<svg width="807" height="1195" viewBox="0 0 807 1195" fill="none" xmlns="http://www.w3.org/2000/svg">
<path d="M503.908 74.3652C502.255 64.8319 501.482 54.6852 496.602 46.1252C498.135 54.7252 501.308 62.9652 502.375 71.6585C506.015 99.9919 504.202 128.645 506.575 157.059C507.135 169.885 508.122 182.672 508.068 195.512C508.162 189.792 508.402 184.059 508.722 178.339C508.735 172.565 508.788 166.765 508.042 161.019C506.948 153.539 507.495 145.952 506.602 138.445C505.455 117.099 507.228 95.5785 503.908 74.3652Z" fill="#030402"/>
<path d="M560.615 106.045C556.175 117.112 557.228 129.352 555.442 140.952C553.682 151.939 555.442 163.139 553.735 174.125C552.442 183.965 553.668 193.925 552.642 203.779C552.015 209.472 551.615 215.192 551.682 220.912C562.122 222.259 572.522 223.952 583.002 224.845C581.562 223.965 579.962 223.325 578.242 223.272C569.842 222.485 561.588 220.659 553.175 219.992C552.908 203.019 554.695 186.072 554.882 169.099C556.162 148.045 556.895 126.872 560.615 106.045Z" fill="#030402"/>
<path d="M521.882 127.859C521.548 123.752 522.028 119.472 520.548 115.539C521.735 147.139 522.842 178.792 521.642 210.419C521.628 225.539 522.895 240.619 523.762 255.712C523.722 262.432 524.575 269.085 525.122 275.779C525.255 290.912 527.735 305.912 527.988 321.045C527.508 331.712 530.282 342.245 529.108 352.925C528.295 352.765 526.668 352.459 525.855 352.299C527.335 354.045 528.842 355.779 530.282 357.565C529.535 320.005 525.935 282.539 523.922 245.032C520.908 206.045 524.575 166.859 521.882 127.859Z" fill="#030402"/>
<path d="M620.788 132.405C618.762 132.219 616.722 131.885 614.668 132.059C610.015 132.765 605.295 133.125 600.588 132.885C605.842 135.992 612.202 134.459 617.988 134.659C619.588 134.992 620.108 133.472 620.788 132.405Z" fill="#030402"/>
<path d="M403.602 210.459C402.628 192.139 404.468 173.725 402.628 155.419C402.095 160.352 401.775 165.339 402.162 170.299C403.908 208.712 397.535 246.832 393.722 284.939C391.015 307.552 391.695 330.379 391.735 353.099C391.588 390.872 392.415 428.645 392.015 466.419C391.882 469.445 392.548 472.832 390.468 475.392C390.988 475.525 392.015 475.819 392.535 475.952C394.055 461.285 393.028 446.499 393.255 431.779C393.442 396.645 392.228 361.539 392.308 326.419C392.268 320.645 393.615 314.952 393.522 309.179C393.508 296.632 395.415 284.232 396.308 271.752C397.135 265.485 397.268 259.005 399.775 253.112C398.108 244.179 400.935 235.272 401.482 226.365C401.655 220.992 402.935 215.765 403.602 210.459Z" fill="#030402"/>
<path d="M789.975 267.779C789.468 263.992 787.748 260.539 785.188 257.739C785.922 261.259 787.882 264.352 788.802 267.819C794.175 305.899 791.948 344.525 789.015 382.712C791.068 375.339 790.868 367.619 791.815 360.085C793.162 350.672 791.935 341.152 792.868 331.712C794.002 317.939 792.082 304.192 792.468 290.405C791.868 282.845 791.188 275.272 789.975 267.779Z" fill="#030402"/>
<path d="M711.575 268.952C710.495 270.165 709.988 271.725 709.602 273.285C700.588 308.125 699.695 344.445 691.055 379.365C690.108 382.632 689.202 385.925 688.895 389.339C693.642 379.579 694.255 368.632 696.668 358.232C700.522 338.432 701.802 318.232 705.602 298.432C706.602 288.405 710.042 278.872 711.575 268.952Z" fill="#030402"/>
<path d="M471.468 459.485C461.908 459.245 452.282 457.925 443.362 454.365C441.335 453.325 439.375 454.699 437.575 455.499C441.935 457.459 446.828 457.365 451.442 458.245C465.295 461.125 479.482 462.285 493.615 461.819C493.602 461.379 493.562 460.499 493.535 460.059C493.135 460.125 492.335 460.259 491.935 460.325C485.108 461.845 478.308 459.472 471.468 459.485Z" fill="#030402"/>
<path d="M391.415 655.939C387.108 654.525 383.722 651.419 379.855 649.192C379.855 649.819 379.868 651.072 379.868 651.699C382.335 654.059 385.082 656.125 387.922 658.019C396.388 663.019 404.962 668.072 414.282 671.352C408.908 666.392 401.895 663.405 395.775 659.392C394.255 658.592 392.802 657.619 391.708 656.272L391.415 655.939Z" fill="#030402"/>
<path d="M567.708 659.405C565.642 657.979 562.988 658.819 560.655 658.725C567.748 663.685 575.295 668.259 583.575 670.925C579.042 666.125 573.042 663.192 567.708 659.405Z" fill="#030402"/>
<path d="M576.135 673.352C571.788 670.872 566.628 671.139 562.122 669.112C562.335 669.699 562.748 670.872 562.948 671.458C562.015 671.658 560.148 672.072 559.215 672.272C574.855 677.525 590.668 682.178 606.562 686.552L607.522 686.245C606.922 685.819 605.735 684.978 605.148 684.552C605.548 684.178 606.375 683.432 606.775 683.072C606.948 682.819 607.295 682.312 607.468 682.059C596.735 680.259 586.642 676.045 576.135 673.352Z" fill="#030402"/>
<path d="M572.668 1080.5C564.775 1079.9 556.855 1080.3 548.948 1080.58C556.428 1083.25 565.108 1082.57 572.668 1080.5Z" fill="#030402"/>
<path d="M406.402 51.4052C401.388 66.5119 401.802 82.7519 400.522 98.4719C400.482 122.419 401.255 146.365 402.162 170.299C401.775 165.339 402.095 160.352 402.628 155.419C402.802 138.605 400.815 121.819 401.842 105.019C402.015 102.939 403.015 101.072 403.748 99.1652C401.855 90.9652 403.868 82.6852 403.655 74.4185C403.402 66.6052 406.308 59.1652 406.402 51.4052Z" fill="#030402"/>
<path d="M690.242 701.432C664.642 696.872 639.282 690.992 614.188 684.192C611.748 683.712 609.322 682.512 606.775 683.072C606.375 683.432 605.548 684.178 605.148 684.552C605.735 684.978 606.922 685.819 607.522 686.245L606.562 686.552L606.242 686.672C619.202 689.312 631.828 693.432 644.868 695.672C660.642 699.245 676.668 701.378 692.562 704.285C695.188 704.845 697.882 704.658 700.522 704.285C698.922 700.312 693.548 702.539 690.242 701.432Z" fill="#030402"/>
<path d="M150.135 833.499C147.002 818.299 142.388 803.365 136.708 788.952C137.268 796.379 140.802 803.125 141.962 810.432C142.415 813.299 143.322 816.072 144.762 818.605C147.442 823.245 147.242 828.925 150.135 833.499Z" fill="#030402"/>
<path d="M475.962 4.2852C470.855 1.73853 465.215 0.178535 459.468 0.111868C451.748 -0.0614652 443.548 -0.501466 436.482 3.2052C425.188 8.41853 417.215 18.9252 412.548 30.2052C409.802 37.0185 406.802 43.9652 406.402 51.4052C406.308 59.1652 403.402 66.6052 403.655 74.4185C403.868 82.6852 401.855 90.9652 403.748 99.1652C403.015 101.072 402.015 102.939 401.842 105.019C400.815 121.819 402.802 138.605 402.628 155.419C404.468 173.725 402.628 192.139 403.602 210.459C402.935 215.765 401.655 220.992 401.482 226.365C400.935 235.272 398.108 244.179 399.775 253.112C397.268 259.005 397.135 265.485 396.308 271.752C395.415 284.232 393.508 296.632 393.522 309.179C393.615 314.952 392.268 320.645 392.308 326.419C392.228 361.539 393.442 396.645 393.255 431.779C393.028 446.499 394.055 461.285 392.535 475.952C392.015 475.819 390.988 475.525 390.468 475.392C387.242 468.952 386.868 461.459 384.402 454.712C381.042 445.579 380.535 435.632 376.548 426.725C369.082 398.912 361.562 371.045 356.935 342.579L356.828 342.965C356.695 343.472 356.428 344.499 356.295 345.005C353.148 323.139 349.802 301.325 347.082 279.405C345.308 257.125 341.762 234.992 340.735 212.659C339.055 194.592 337.628 176.472 334.868 158.525C334.215 150.419 331.468 142.725 329.348 134.925C324.735 120.832 317.028 106.859 304.028 98.9252C292.575 92.2452 277.975 89.9252 265.428 94.8319C252.002 99.5919 242.588 111.725 237.228 124.485C231.655 136.859 230.495 150.512 227.722 163.645C224.708 182.232 223.522 201.125 224.375 219.939C224.935 233.672 227.655 247.312 226.775 261.085C225.348 280.152 223.708 299.219 223.602 318.352C222.615 328.179 223.815 338.019 223.908 347.859C224.828 362.299 225.735 376.872 229.162 390.992C230.268 397.485 231.482 403.979 233.002 410.405C235.748 425.032 237.282 439.845 239.802 454.512C240.295 459.152 241.695 463.685 241.655 468.365C241.895 468.379 242.375 468.379 242.615 468.379C242.588 472.912 243.442 477.379 244.322 481.819C246.015 490.405 246.335 499.272 248.828 507.712C249.962 511.605 250.722 515.619 250.868 519.685C251.668 550.792 250.388 581.925 251.028 613.045C251.495 620.139 252.242 627.219 252.975 634.299C253.908 642.845 256.668 651.032 257.908 659.539C262.775 659.712 268.202 660.832 272.242 657.365C269.962 639.072 265.268 621.032 265.122 602.512C264.868 580.099 265.975 557.645 264.162 535.285C264.082 534.139 264.042 533.019 264.028 531.885C264.348 522.499 264.162 513.045 262.948 503.725C262.775 495.459 262.295 487.165 260.362 479.085C259.028 462.525 256.215 446.085 252.255 429.939C251.135 420.965 247.775 412.325 247.815 403.232C252.402 403.085 256.948 404.259 261.495 403.912C265.495 402.859 269.735 402.779 273.522 401.032C271.682 400.512 269.788 399.885 267.868 399.632C264.842 399.939 261.615 400.672 258.748 399.205C254.575 397.219 249.895 398.152 245.442 398.139C244.895 392.472 242.468 387.019 242.962 381.259C242.988 372.445 240.775 363.805 239.882 355.045C237.228 338.112 236.508 320.779 238.402 303.712C238.602 293.032 240.295 282.405 239.575 271.725C238.588 259.645 237.388 247.365 239.482 235.339C240.282 227.152 240.775 218.859 240.028 210.645C240.642 214.045 241.148 217.459 241.508 220.885C240.295 208.045 242.935 195.259 242.855 182.405C242.762 173.685 244.188 165.059 244.322 156.352C245.842 140.925 248.655 123.925 260.468 112.779C266.495 106.565 275.282 104.885 283.375 103.125C291.175 104.899 297.922 110.059 303.562 115.565C306.882 119.192 311.162 122.699 311.908 127.859C317.442 157.819 323.175 187.912 324.082 218.459C325.095 229.992 324.388 241.579 324.482 253.112C327.042 262.725 329.935 272.312 331.015 282.272C340.175 334.992 350.375 387.539 360.122 440.165C363.015 456.992 366.322 473.752 369.762 490.485C372.202 493.392 376.108 495.419 379.855 493.659C381.042 492.285 382.042 490.765 383.082 489.312C386.642 492.872 391.268 489.645 395.455 489.779C398.575 489.885 401.442 488.832 404.228 487.605C407.482 487.045 410.802 487.232 414.068 487.112C420.042 486.792 425.642 489.605 431.602 489.419C428.815 485.899 423.828 485.872 419.828 484.699C415.268 483.419 410.348 483.725 405.868 482.605C405.428 479.205 405.615 475.765 405.615 472.365C409.388 472.472 413.122 473.059 416.828 473.752L417.415 473.539C417.868 473.392 418.762 473.099 419.215 472.939C420.788 472.472 422.682 472.699 423.828 471.352C418.388 467.259 411.202 466.299 405.308 462.885C404.935 443.165 403.668 423.459 403.762 403.725C403.962 396.299 403.028 388.925 402.975 381.512C401.495 347.979 403.562 314.392 407.482 281.085C408.015 277.992 407.815 274.859 407.055 271.832C407.682 270.819 408.295 269.805 408.895 268.792C409.788 266.019 409.615 262.992 409.922 260.112C409.668 252.739 412.268 245.299 410.735 238.019C410.015 237.539 408.575 236.592 407.855 236.112C409.175 236.165 410.482 236.205 411.775 236.245C412.108 228.499 412.922 220.792 413.335 213.059C413.388 186.859 413.442 160.645 412.868 134.459C413.188 120.192 413.002 105.912 414.242 91.6985C414.455 84.0185 414.788 76.2985 416.455 68.7652C419.268 53.3385 421.415 37.2185 429.935 23.6852C434.295 16.7785 441.375 10.3119 450.068 10.6985C463.708 9.6452 476.162 17.7385 485.082 27.3785C490.202 32.7919 493.028 39.7119 496.602 46.1252C501.482 54.6852 502.255 64.8319 503.908 74.3652C507.228 95.5785 505.455 117.099 506.602 138.445C507.495 145.952 506.948 153.539 508.042 161.019C508.788 166.765 508.735 172.565 508.722 178.339C509.095 187.059 508.828 195.845 509.908 204.499C510.308 206.005 510.628 207.512 510.868 209.045C512.068 253.472 509.602 297.965 511.428 342.392C510.922 350.272 513.575 358.085 512.015 365.939C511.415 382.939 512.855 400.059 510.948 417.019C510.895 431.312 509.068 445.499 509.388 459.805C509.708 469.232 507.428 479.565 512.362 488.179C514.455 492.352 519.415 492.752 523.322 494.125C526.322 493.632 529.282 492.939 532.242 492.325C533.002 490.405 533.762 488.485 534.522 486.579C536.055 486.325 537.575 486.085 539.095 485.859C538.348 485.565 536.842 484.979 536.082 484.685L535.428 483.979C533.042 481.352 533.895 477.645 533.588 474.432C533.455 466.419 532.335 458.432 532.655 450.432C537.188 401.965 542.308 353.565 546.495 305.072C549.122 278.859 550.815 252.565 552.095 226.259L552.842 226.179C560.842 225.165 568.882 226.152 576.882 226.619C579.135 227.059 581.188 226.072 583.002 224.845C572.522 223.952 562.122 222.259 551.682 220.912C551.615 215.192 552.015 209.472 552.642 203.779C553.668 193.925 552.442 183.965 553.735 174.125C555.442 163.139 553.682 151.939 555.442 140.952C557.228 129.352 556.175 117.112 560.615 106.045C562.388 100.285 564.588 94.6985 567.188 89.2585C567.788 86.2852 568.735 83.3919 570.375 80.8319C568.548 79.4052 566.722 77.9919 564.882 76.5785C555.682 85.6719 550.335 97.9252 547.588 110.405C545.308 120.085 545.375 130.032 544.028 139.845C542.508 163.792 544.228 187.819 542.375 211.765C541.695 218.965 541.922 226.232 540.868 233.405C538.015 267.005 536.922 300.765 533.615 334.325C533.268 343.672 531.775 352.939 531.588 362.285C531.335 362.565 530.815 363.125 530.548 363.405C530.482 361.499 531.535 359.205 530.282 357.565C528.842 355.779 530.588 354.672 529.108 352.925C528.295 352.765 529.922 353.085 529.108 352.925C530.282 342.245 527.508 331.712 527.988 321.045C527.735 305.912 525.255 290.912 525.122 275.779C524.575 269.085 523.722 262.432 523.762 255.712C522.895 240.619 521.628 225.539 521.642 210.419C522.842 178.792 521.735 147.139 520.548 115.539C520.108 101.712 518.055 87.9519 515.255 74.4185C512.135 64.0719 511.415 53.0852 507.175 43.0585C501.522 27.2719 491.708 11.5252 475.962 4.2852ZM273.855 95.8985C274.868 98.4319 272.148 99.9652 270.748 101.645C269.495 103.179 267.775 104.005 265.735 103.832C268.095 100.872 270.602 97.9119 273.855 95.8985ZM303.722 109.499C298.268 107.032 295.082 101.392 290.468 97.6985C291.028 97.3919 292.135 96.7652 292.695 96.4585C296.508 100.645 302.068 103.779 303.722 109.499ZM325.722 150.885C325.015 151.565 325.015 151.565 325.722 150.885ZM519.508 159.445C516.975 163.352 513.495 167.059 509.415 169.325C511.642 165.179 515.322 161.605 519.508 159.445ZM405.042 273.899C403.175 276.832 400.828 279.979 397.428 281.205C399.122 278.032 401.668 275.259 405.042 273.899Z" fill="#030402"/>
<path d="M651.428 97.6185C649.762 95.8985 648.602 93.8052 647.508 91.6985C644.322 93.6985 641.855 96.5385 640.175 99.8852C643.322 107.952 646.415 116.272 646.708 125.019C647.535 144.672 646.575 164.352 645.215 183.952C642.348 201.085 641.948 218.512 642.922 235.832C642.762 268.312 640.562 300.725 639.762 333.179C638.975 350.019 638.015 366.845 637.148 383.685C636.562 386.565 634.308 388.845 633.722 391.765C633.828 398.019 636.015 404.099 635.775 410.379C634.522 422.792 634.642 435.312 632.628 447.645C632.548 466.472 628.762 484.979 627.415 503.699C626.575 515.312 623.615 526.725 623.722 538.392C623.508 541.179 626.322 542.592 627.988 544.325C629.988 544.379 631.988 544.459 633.975 544.565C637.722 549.845 641.362 558.819 649.282 557.405C652.842 555.579 654.895 552.032 656.748 548.659C658.442 548.019 659.828 550.219 661.442 550.579C670.015 551.605 677.895 555.392 685.748 558.739C697.922 563.779 709.202 570.632 720.922 576.592C719.842 575.125 718.762 573.632 717.322 572.512C700.242 558.139 679.748 547.859 658.122 542.379C657.122 536.885 658.908 530.845 658.935 525.139C670.962 495.379 680.202 464.592 691.095 434.419C694.735 422.765 698.562 411.165 701.228 399.232C702.415 393.565 704.522 388.032 704.522 382.179C704.522 378.339 705.295 374.552 706.282 370.859C708.242 370.352 710.202 369.845 712.148 369.339C710.922 367.952 709.668 366.592 708.388 365.272C708.335 364.245 708.282 363.245 708.215 362.245C708.762 362.072 709.855 361.739 710.402 361.565C710.575 359.499 710.548 357.432 710.495 355.365C710.188 345.592 712.948 336.072 713.748 326.379C718.495 302.392 723.455 277.859 735.762 256.419C738.615 250.832 742.468 245.885 746.055 240.765C754.468 238.019 764.095 238.565 771.642 243.405C777.455 246.765 781.708 252.099 785.188 257.739C787.748 260.539 789.468 263.992 789.975 267.779C791.188 275.272 791.868 282.845 792.468 290.405C792.082 304.192 794.002 317.939 792.868 331.712C791.935 341.152 793.162 350.672 791.815 360.085C790.868 367.619 791.068 375.339 789.015 382.712C786.762 392.725 785.588 402.939 783.428 412.965C775.908 448.139 761.922 481.392 751.828 515.819C745.735 535.885 737.922 555.925 737.455 577.152C736.655 594.072 739.668 610.832 741.588 627.579C741.842 639.619 741.175 651.659 741.108 663.712C741.508 671.752 739.735 679.752 741.135 687.765C741.548 720.619 742.135 753.499 740.895 786.339C740.455 790.459 742.895 794.672 741.095 798.672C739.602 806.525 739.882 814.579 738.775 822.485C736.455 841.712 734.122 861.085 728.442 879.672C726.775 885.179 725.962 890.979 723.402 896.179C721.015 901.032 720.162 906.432 718.175 911.458C709.535 938.525 698.175 964.592 686.028 990.245C680.148 1002.06 674.002 1013.75 668.442 1025.74C664.802 1034.09 659.055 1041.27 654.682 1049.23C652.175 1054.65 646.762 1057.66 642.508 1061.54C638.188 1065.41 632.308 1066.81 627.962 1070.63C624.095 1073.98 618.975 1075.17 614.415 1077.26C608.588 1080.11 602.042 1077.7 595.922 1079.05C591.495 1080.01 586.228 1079.05 582.588 1082.22C587.055 1082.66 591.522 1082.33 595.948 1081.79C596.468 1082.5 597.508 1083.9 598.028 1084.59C603.508 1084.46 608.922 1082.3 614.388 1083.53C619.655 1084.43 624.935 1083.07 630.095 1082.18C639.042 1079.11 645.522 1071.93 652.695 1066.15C651.562 1072.94 649.228 1079.47 648.095 1086.29C648.108 1091.99 640.282 1091.77 639.148 1096.85C634.388 1111.06 632.602 1126.11 631.735 1141.02C629.975 1157.09 632.295 1173.18 633.442 1189.19C633.482 1190.9 633.948 1192.58 634.508 1194.21C634.428 1184.97 634.682 1175.73 634.788 1166.5C635.495 1154.3 637.588 1142.23 639.242 1130.15C640.068 1124.37 640.682 1118.47 642.735 1112.97C642.828 1121.57 642.415 1130.31 640.442 1138.73C640.655 1153.29 642.095 1168.38 648.362 1181.77C649.482 1184.9 653.255 1185.55 656.015 1184.27C658.215 1182.03 658.322 1178.59 658.722 1175.66C660.028 1157.49 657.468 1139.21 659.722 1121.09C660.735 1111.53 660.308 1101.51 664.335 1092.58C668.295 1078.82 671.868 1064.94 676.148 1051.29C683.788 1027.75 695.935 1006.1 705.948 983.552C721.055 950.539 733.068 916.139 742.215 881.005C752.988 839.565 758.868 796.965 761.602 754.272C762.055 738.339 763.215 722.379 761.975 706.432C761.575 696.659 761.868 686.859 760.775 677.125C759.255 660.205 758.628 643.139 755.242 626.459C753.362 618.032 754.962 609.405 755.722 600.952C758.535 571.245 763.722 541.792 771.482 512.979C778.375 488.965 784.148 464.672 790.402 440.485C792.028 432.645 794.882 425.059 795.335 417.019C797.508 401.912 800.375 386.885 802.135 371.725C803.162 358.379 804.322 345.045 805.228 331.685C805.268 312.299 805.828 292.845 803.095 273.592C800.495 253.152 784.562 236.405 765.962 228.765C760.348 226.405 754.028 226.752 748.095 227.325C728.935 232.245 715.628 250.272 711.575 268.952C710.042 278.872 706.602 288.405 705.602 298.432C701.802 318.232 700.522 338.432 696.668 358.232C694.255 368.632 693.642 379.579 688.895 389.339C679.135 421.485 666.135 452.539 655.375 484.352C654.455 487.445 653.748 490.699 651.868 493.405C651.895 490.325 652.135 487.272 652.335 484.205C652.575 471.205 652.695 458.179 651.708 445.192C651.002 437.165 648.655 429.192 649.748 421.072C650.855 410.459 650.468 399.752 651.322 389.112C651.762 384.285 652.002 379.445 651.948 374.619C651.362 361.579 653.135 348.632 653.722 335.645C654.668 322.352 654.628 309.019 654.535 295.699C653.655 271.725 654.588 247.739 655.588 223.792C656.202 207.779 655.988 191.739 656.188 175.712C656.308 170.312 655.628 164.819 656.842 159.485C660.242 140.419 660.042 120.285 653.602 101.859C653.055 100.365 652.535 98.8052 651.428 97.6185ZM730.362 917.392C726.402 915.872 723.575 912.419 721.522 908.845C725.242 910.685 727.935 914.099 730.362 917.392Z" fill="#030402"/>
<path d="M276.215 477.872C274.722 477.779 273.202 477.859 271.682 477.885C279.162 479.912 284.522 485.939 291.655 488.685C299.162 491.885 307.175 494.552 315.375 494.872C314.682 494.259 313.868 493.939 312.922 493.899C305.748 493.059 299.082 490.059 292.402 487.472L291.388 485.339C303.308 488.205 315.455 490.339 327.762 490.005C320.268 487.859 312.282 488.925 304.722 486.992C295.028 484.752 284.762 483.312 276.215 477.872Z" fill="#030402"/>
<path d="M141.668 535.099C139.735 534.685 137.108 537.432 137.508 539.325C139.668 540.192 142.722 537.232 141.668 535.099Z" fill="#030402"/>
<path d="M132.682 571.765C131.908 570.179 131.002 568.645 130.055 567.152C129.962 569.112 129.908 571.085 129.908 573.059C130.748 577.912 130.962 582.859 130.482 587.765L130.402 588.672C130.908 591.072 131.402 593.485 132.148 595.832L132.482 596.472C136.055 588.739 133.015 579.899 132.682 571.765Z" fill="#030402"/>
<path d="M139.868 569.939C139.255 569.819 138.028 569.592 137.415 569.472C137.402 570.232 137.375 571.739 137.362 572.485C137.415 577.632 137.468 582.792 137.082 587.939C137.775 584.312 138.348 580.672 138.762 577.019C139.308 582.459 139.508 587.939 140.242 593.365C140.108 586.365 140.015 579.365 139.948 572.379C139.922 571.765 139.882 570.539 139.868 569.939Z" fill="#030402"/>
<path d="M146.335 594.232C146.148 593.832 145.775 593.032 145.588 592.632C146.082 604.072 143.202 615.379 144.122 626.805C147.388 620.045 146.735 612.232 146.802 604.925C146.748 601.352 146.762 597.765 146.335 594.232Z" fill="#030402"/>
<path d="M271.322 663.552C268.348 661.872 265.068 660.699 261.602 661.379C261.695 664.205 261.468 667.125 259.695 669.485C259.735 671.205 259.708 672.939 259.735 674.685C260.135 675.312 260.948 676.579 261.348 677.205C261.548 683.499 261.615 689.925 259.855 696.032C258.628 700.845 254.908 704.459 253.242 709.099C254.108 710.779 254.748 712.565 255.108 714.432C250.722 710.739 244.868 713.125 239.748 711.685C239.815 710.739 239.882 709.805 239.922 708.885C236.455 707.819 233.055 706.525 229.655 705.205C227.642 709.712 233.175 711.005 235.948 713.152C236.148 714.845 236.495 716.552 237.722 717.832C237.548 718.725 237.362 719.619 237.162 720.512C239.068 720.885 240.962 721.259 242.842 721.645C244.362 724.112 245.695 726.752 247.722 728.859C251.295 730.285 255.175 730.712 258.802 731.939C262.215 738.699 271.215 735.459 275.735 740.845C282.602 743.739 284.588 751.939 291.388 754.939C291.482 753.685 291.642 751.165 291.722 749.912C291.655 749.445 291.522 748.512 291.455 748.059L290.308 747.965C289.602 747.912 288.175 747.792 287.468 747.739C281.762 739.845 276.615 731.259 268.695 725.312C268.668 724.339 268.615 722.365 268.588 721.379C266.388 720.952 264.122 720.712 261.988 719.939C259.042 719.192 260.642 715.712 260.322 713.552C261.442 713.099 262.548 712.659 263.642 712.232C264.228 706.152 269.402 701.805 269.962 695.725C270.602 691.445 271.575 687.219 272.148 682.925C272.935 676.432 270.828 670.045 271.322 663.552Z" fill="#030402"/>
<path d="M626.322 68.5519C623.788 67.0052 621.135 65.6452 618.428 64.3785C595.262 58.5719 578.935 66.3519 578.935 66.3519L586.468 74.5252C596.495 72.7519 610.148 73.7252 619.362 78.0852C621.642 74.8719 623.962 71.6985 626.322 68.5519Z" fill="#030402"/>
<path d="M578.935 66.3519C573.855 69.1652 569.095 72.5652 564.882 76.5785C566.722 77.9919 568.548 79.4052 570.375 80.8319C568.735 83.3919 567.788 86.2852 567.188 89.2585C570.535 86.2319 572.855 82.1119 576.762 79.6985C579.882 77.7652 583.402 76.5652 586.468 74.5252C584.215 71.5652 578.935 66.3519 578.935 66.3519Z" fill="#030402"/>
<path d="M645.735 86.4852C640.402 79.3919 633.855 73.2585 626.322 68.5519C623.962 71.6985 621.642 74.8719 619.362 78.0852C626.348 81.6585 632.855 86.5919 636.922 93.4052C641.042 92.8985 643.708 89.8319 645.735 86.4852Z" fill="#030402"/>
<path d="M416.455 68.7652C414.788 76.2985 414.455 84.0185 414.242 91.6985C413.002 105.912 413.188 120.192 412.868 134.459C413.442 160.645 413.388 186.859 413.335 213.059C412.922 220.792 412.108 228.499 411.775 236.245C410.482 236.205 409.175 236.165 407.855 236.112C408.575 236.592 410.015 237.539 410.735 238.019C412.268 245.299 409.668 252.739 409.922 260.112C411.722 256.965 411.095 253.152 411.682 249.699C416.468 203.405 412.602 156.872 413.988 110.445C414.548 104.219 414.908 97.9785 414.975 91.7252C414.988 84.0452 416.575 76.4585 416.455 68.7652Z" fill="#030402"/>
<path d="M468.788 83.7519C458.522 82.2852 449.068 77.5385 438.868 75.8185C441.562 78.8585 445.628 80.0185 449.228 81.6052C457.588 84.4319 466.535 86.0185 475.362 85.3785C473.415 84.1252 471.002 84.2319 468.788 83.7519Z" fill="#030402"/>
<path d="M456.935 90.2719C451.135 88.2585 446.308 84.2585 440.535 82.1919C440.868 83.6052 441.602 84.7519 442.708 85.6319C450.322 91.9252 460.255 95.3385 470.122 95.2852C469.948 94.9385 469.588 94.2452 469.415 93.8985C465.362 92.3385 461.002 91.7919 456.935 90.2719Z" fill="#030402"/>
<path d="M585.562 124.432C581.295 123.152 577.375 120.699 572.895 120.152C580.362 127.205 590.562 131.179 600.588 132.885C605.295 133.125 610.015 132.765 614.668 132.059C604.882 129.872 594.962 128.059 585.562 124.432Z" fill="#030402"/>
<path d="M288.775 245.032C281.122 243.365 273.562 240.592 265.655 240.685C267.028 244.565 272.002 244.432 275.255 245.712C282.068 246.912 288.802 250.205 295.802 249.165C294.935 246.059 291.308 245.912 288.775 245.032Z" fill="#030402"/>
<path d="M289.855 508.499C287.482 505.139 283.762 502.899 280.695 500.165C280.055 500.165 278.788 500.139 278.148 500.139C280.388 504.739 285.255 506.939 289.855 508.499Z" fill="#030402"/>
<path d="M208.415 714.139C207.068 715.485 206.162 717.165 205.375 718.912C202.002 726.605 196.975 733.445 191.428 739.712C186.788 744.952 181.122 749.179 176.602 754.539C178.962 753.619 181.295 752.605 183.402 751.205C190.042 746.339 195.655 740.125 200.015 733.152C203.708 727.259 206.855 720.939 208.415 714.139Z" fill="#030402"/>
<path d="M651.428 97.6185C650.722 93.3919 647.975 90.0052 645.735 86.4852C643.708 89.8319 641.042 92.8985 636.922 93.4052C637.962 95.5919 639.068 97.7385 640.175 99.8852C641.855 96.5385 644.322 93.6985 647.508 91.6985C648.602 93.8052 649.762 95.8985 651.428 97.6185Z" fill="#030402"/>
<path d="M456.855 99.2185C451.775 97.4452 447.815 92.8185 442.335 92.4185C447.522 100.699 458.055 104.779 467.562 104.592C465.255 101.099 460.202 101.392 456.855 99.2185Z" fill="#030402"/>
<path d="M273.855 95.8985C270.602 97.9119 268.095 100.872 265.735 103.832C267.775 104.005 269.495 103.179 270.748 101.645C272.148 99.9652 274.868 98.4319 273.855 95.8985Z" fill="#030402"/>
<path d="M303.722 109.499C302.068 103.779 296.508 100.645 292.695 96.4585C292.135 96.7652 291.028 97.3919 290.468 97.6985C295.082 101.392 298.268 107.032 303.722 109.499Z" fill="#030402"/>
<path d="M459.295 109.379C456.548 108.459 453.735 107.739 450.828 107.499C451.908 110.565 455.388 110.605 458.002 111.472C458.322 110.939 458.975 109.899 459.295 109.379Z" fill="#030402"/>
<path d="M547.588 110.405C545.095 113.872 545.495 118.419 544.828 122.445C540.815 148.872 543.482 175.685 542.255 202.272C541.122 212.605 541.015 223.019 540.868 233.405C541.922 226.232 541.695 218.965 542.375 211.765C544.228 187.819 542.508 163.792 544.028 139.845C545.375 130.032 545.308 120.085 547.588 110.405Z" fill="#030402"/>
<path d="M586.788 133.499C584.148 132.285 581.202 132.219 578.348 132.099C578.562 132.699 578.988 133.885 579.202 134.485C588.935 138.859 599.348 142.965 610.242 142.072C609.735 140.685 608.762 139.819 607.335 139.459C600.535 137.299 593.348 136.432 586.788 133.499Z" fill="#030402"/>
<path d="M604.068 149.832C599.775 148.565 595.908 145.912 591.415 145.485C594.028 150.299 599.748 151.805 604.855 151.472C604.668 151.059 604.268 150.245 604.068 149.832Z" fill="#030402"/>
<path d="M596.668 339.232C589.602 337.939 582.628 335.179 575.362 335.512C575.082 336.045 574.495 337.099 574.202 337.619C582.175 340.872 590.748 342.525 599.295 343.272C605.615 344.045 611.762 346.178 618.188 345.885C617.255 343.832 614.788 343.699 612.895 343.152C607.442 342.005 602.148 340.205 596.668 339.232Z" fill="#030402"/>
<path d="M331.508 648.859C323.655 643.499 313.975 641.819 304.695 640.819C301.882 640.739 298.388 640.112 296.322 642.579C302.708 643.232 309.082 644.059 315.428 645.005C320.908 645.819 326.028 648.139 331.508 648.859Z" fill="#030402"/>
<path d="M378.175 657.085C369.695 652.525 360.615 648.965 351.162 647.045C351.388 649.459 353.828 649.832 355.615 650.485C362.895 652.605 369.442 656.699 376.815 658.512C377.162 658.152 377.842 657.432 378.175 657.085Z" fill="#030402"/>
<path d="M463.562 152.819C459.015 149.219 453.175 147.992 448.042 145.445C448.028 146.085 448.002 147.379 447.988 148.019C453.122 149.765 458.042 152.472 463.562 152.819Z" fill="#030402"/>
<path d="M489.668 307.219C469.242 303.819 448.175 301.085 427.668 305.552C426.442 305.885 425.335 306.485 424.348 307.325C446.042 307.592 467.948 304.845 489.508 308.445C489.548 308.139 489.628 307.525 489.668 307.219Z" fill="#030402"/>
<path d="M575.935 382.099C567.588 380.325 560.882 374.445 552.775 372.179C558.068 377.219 565.255 378.979 571.708 381.939C579.348 384.645 587.255 387.232 595.455 387.152C601.948 387.165 608.428 386.912 614.908 387.045C615.295 386.712 616.055 386.045 616.442 385.712C610.748 385.765 605.068 386.099 599.375 385.859C591.428 385.485 583.722 383.432 575.935 382.099Z" fill="#030402"/>
<path d="M554.255 603.579C549.628 596.299 541.108 592.819 534.068 588.339C539.682 593.659 545.215 599.245 551.948 603.152C552.522 603.259 553.668 603.472 554.255 603.579Z" fill="#030402"/>
<path d="M90.9483 663.565C88.5483 666.699 89.2683 670.952 88.9083 674.659C92.0683 671.952 90.9483 667.205 90.9483 663.565Z" fill="#030402"/>
<path d="M449.415 157.579C442.588 154.712 436.975 149.712 430.348 146.459C430.722 149.085 432.908 150.739 434.695 152.432C446.242 162.299 461.828 166.765 476.882 165.699C478.228 165.632 479.442 165.019 480.682 164.579C470.068 163.432 459.068 162.565 449.415 157.579Z" fill="#030402"/>
<path d="M325.722 150.885C325.015 151.565 325.015 151.565 325.722 150.885Z" fill="#030402"/>
<path d="M483.522 171.312C463.415 170.312 444.508 162.912 426.375 154.725C425.855 157.672 429.282 158.552 431.108 160.045C444.095 167.699 459.242 171.125 474.215 171.565C477.242 171.592 480.948 173.499 483.522 171.312Z" fill="#030402"/>
<path d="M656.842 159.485C655.628 164.819 656.308 170.312 656.188 175.712C655.988 191.739 656.202 207.779 655.588 223.792C654.588 247.739 653.655 271.725 654.535 295.699C654.628 309.019 654.668 322.352 653.722 335.645C653.135 348.632 651.362 361.579 651.948 374.619C652.802 355.899 655.295 337.245 655.162 318.472C655.522 292.712 654.068 266.912 655.828 241.179C656.388 213.952 657.255 186.712 656.842 159.485Z" fill="#030402"/>
<path d="M509.415 169.325C511.642 165.179 515.322 161.605 519.508 159.445C516.975 163.352 513.495 167.059 509.415 169.325Z" fill="#030402"/>
<path d="M453.988 171.792C446.495 170.352 439.375 166.885 431.668 166.792C429.135 166.725 429.802 169.565 431.415 170.299C443.908 177.259 458.682 178.592 472.735 178.605C477.308 177.752 482.682 178.925 486.628 176.059C475.788 174.352 464.588 174.992 453.988 171.792Z" fill="#030402"/>
<path d="M768.642 307.752C757.455 302.619 747.082 295.459 735.255 291.885C738.348 296.845 744.042 299.299 748.868 302.232C758.642 307.179 769.042 310.832 779.628 313.645C776.508 310.792 772.255 309.792 768.642 307.752Z" fill="#030402"/>
<path d="M300.335 177.939C290.348 177.779 280.655 174.979 271.175 172.072C271.682 174.659 274.602 175.032 276.628 175.939C284.282 178.739 292.455 179.552 300.548 179.325C300.495 178.979 300.388 178.285 300.335 177.939Z" fill="#030402"/>
<path d="M284.335 185.552C280.028 183.659 276.135 180.672 271.415 179.845C276.628 187.459 286.842 189.485 295.468 190.739C297.522 190.592 300.948 192.325 301.842 189.565C295.935 188.672 289.802 188.205 284.335 185.552Z" fill="#030402"/>
<path d="M763.602 327.419C758.762 320.979 752.695 315.045 745.535 311.219C744.882 313.445 747.002 314.832 748.188 316.312C752.015 320.072 756.175 323.485 760.388 326.792C761.188 326.952 762.788 327.272 763.602 327.419Z" fill="#030402"/>
<path d="M596.788 495.819C587.215 491.339 577.442 487.205 567.268 484.259C566.268 484.192 564.295 484.059 563.295 483.992C568.908 488.139 575.708 490.419 582.002 493.365C588.775 495.512 595.202 499.139 602.415 499.525C600.708 498.045 598.842 496.765 596.788 495.819Z" fill="#030402"/>
<path d="M144.162 649.032C141.028 653.619 137.108 657.592 133.015 661.339C126.695 666.805 119.428 671.045 112.228 675.259C108.388 677.565 103.828 679.419 101.628 683.619C105.562 683.499 109.562 683.059 113.162 681.392C126.642 675.099 137.975 664.725 146.588 652.712C145.975 651.792 144.762 649.952 144.162 649.032Z" fill="#030402"/>
<path d="M295.588 195.752C288.668 193.792 281.722 190.699 274.375 191.245C274.802 193.779 277.602 194.032 279.468 194.859C285.148 196.645 291.068 197.579 296.975 198.019C296.628 197.459 295.935 196.325 295.588 195.752Z" fill="#030402"/>
<path d="M510.868 209.045C510.628 207.512 510.308 206.005 509.908 204.499C509.175 224.685 509.828 244.925 509.588 265.139C509.682 288.445 508.282 311.779 509.802 335.059C511.215 345.285 509.855 355.845 512.015 365.939C513.575 358.085 510.922 350.272 511.428 342.392C509.602 297.965 512.068 253.472 510.868 209.045Z" fill="#030402"/>
<path d="M587.268 211.299C583.642 209.819 579.522 208.072 575.588 209.365C570.735 211.085 565.562 208.712 560.655 210.032L559.628 212.085C560.188 212.272 561.322 212.659 561.882 212.859C570.882 214.032 580.002 214.045 588.975 215.392C593.202 217.339 597.255 219.925 601.895 220.792C602.588 220.739 603.975 220.619 604.668 220.552C599.348 216.632 593.242 214.019 587.268 211.299Z" fill="#030402"/>
<path d="M610.962 217.419C606.535 214.739 601.788 212.605 596.988 210.645C596.175 210.645 594.535 210.645 593.722 210.632C597.455 214.872 603.082 216.432 607.655 219.499C610.415 221.245 613.455 222.499 616.602 223.325C616.375 220.179 613.255 218.952 610.962 217.419Z" fill="#030402"/>
<path d="M436.722 434.552C432.895 428.965 428.402 423.272 422.495 419.845C422.308 423.672 425.882 425.792 428.335 428.112C431.122 430.272 433.468 433.059 436.722 434.552Z" fill="#030402"/>
<path d="M236.588 926.592C232.388 921.179 228.415 915.192 222.402 911.619C221.602 915.325 224.975 917.792 226.295 920.899C228.508 925.752 231.802 930.925 236.815 933.152C236.228 931.752 235.602 930.379 234.962 929.019C235.375 928.405 236.188 927.192 236.588 926.592Z" fill="#030402"/>
<path d="M292.255 989.458C288.508 994.085 293.428 999.845 293.375 1005.06C294.042 1005.37 295.388 1005.98 296.055 1006.29C295.535 1000.54 294.562 994.778 292.255 989.458Z" fill="#030402"/>
<path d="M588.975 215.392C580.002 214.045 570.882 214.032 561.882 212.859C563.322 214.259 565.375 214.472 567.255 214.752C574.455 215.725 581.735 215.419 588.975 215.392Z" fill="#030402"/>
<path d="M341.428 214.485C341.255 214.032 340.908 213.112 340.735 212.659C341.762 234.992 345.308 257.125 347.082 279.405C349.802 301.325 353.148 323.139 356.295 345.005C356.428 344.499 356.695 343.472 356.828 342.965C355.308 326.272 351.748 309.765 350.028 293.072C347.895 278.445 347.095 263.659 344.668 249.072C343.815 237.525 342.575 226.005 341.428 214.485Z" fill="#030402"/>
<path d="M623.668 237.779C613.002 227.285 596.935 226.139 583.002 224.845C581.188 226.072 579.135 227.059 576.882 226.619C568.882 226.152 560.842 225.165 552.842 226.179C555.455 226.805 558.162 226.845 560.828 226.939C572.388 227.125 583.828 228.992 595.322 230.045C604.988 231.512 615.228 232.352 623.668 237.779Z" fill="#030402"/>
<path d="M285.455 469.579C279.735 465.952 276.228 459.805 270.695 455.952C273.108 465.085 282.042 472.899 291.522 473.912C289.868 472.005 287.522 470.952 285.455 469.579Z" fill="#030402"/>
<path d="M308.162 242.192C297.628 237.779 286.855 232.819 275.295 232.245C275.708 232.645 276.548 233.445 276.962 233.845C286.855 238.885 297.548 241.939 308.255 244.685C308.228 244.059 308.188 242.805 308.162 242.192Z" fill="#030402"/>
<path d="M239.482 235.339C237.388 247.365 238.588 259.645 239.575 271.725C240.295 282.405 238.602 293.032 238.402 303.712C236.508 320.779 237.228 338.112 239.882 355.045C240.202 341.125 236.708 327.125 238.655 313.165C239.188 307.579 238.788 301.939 239.735 296.379C240.868 285.499 240.162 274.539 240.202 263.619C240.508 263.219 241.095 262.419 241.402 262.019C241.722 261.579 242.362 260.699 242.682 260.259C241.882 260.432 240.255 260.765 239.442 260.939C237.642 252.392 241.002 243.805 239.482 235.339Z" fill="#030402"/>
<path d="M274.295 248.845C268.082 247.539 261.402 246.112 255.295 248.685C257.908 250.845 261.535 250.792 264.735 250.979C269.695 251.099 274.655 251.352 279.602 251.192C278.468 249.365 276.162 249.365 274.295 248.845Z" fill="#030402"/>
<path d="M307.442 254.032C294.935 253.472 282.522 255.499 270.068 256.339C268.228 256.472 266.295 256.525 264.575 257.352C275.282 257.792 285.842 255.499 296.535 255.405C296.308 256.099 295.868 256.579 295.215 256.859C282.655 258.032 269.882 258.739 257.628 261.912C270.642 261.139 283.482 258.445 296.508 257.899C300.122 256.525 304.188 256.165 307.442 254.032Z" fill="#030402"/>
<path d="M295.215 256.859C295.868 256.579 296.308 256.099 296.535 255.405C285.842 255.499 275.282 257.792 264.575 257.352C257.428 257.219 250.362 258.339 243.308 259.405L242.682 260.259C242.362 260.699 241.722 261.579 241.402 262.019C246.455 264.072 252.388 262.925 257.628 261.912C269.882 258.739 282.655 258.032 295.215 256.859Z" fill="#030402"/>
<path d="M408.895 268.792C408.295 269.805 407.682 270.819 407.055 271.832C407.815 274.859 408.015 277.992 407.482 281.085C403.562 314.392 401.495 347.979 402.975 381.512C403.975 372.499 403.002 363.445 403.175 354.419C404.508 341.152 403.468 327.752 405.348 314.525C406.082 299.245 408.762 284.099 408.895 268.792Z" fill="#030402"/>
<path d="M804.015 273.499L803.095 273.592C805.828 292.845 805.268 312.299 805.228 331.685C804.322 345.045 803.162 358.379 802.135 371.725C800.375 386.885 797.508 401.912 795.335 417.019C795.455 417.699 795.708 419.045 795.828 419.725C797.975 409.792 798.908 399.645 801.055 389.712C802.695 379.765 802.975 369.659 804.455 359.699C806.242 346.445 805.762 333.059 806.002 319.739C806.242 304.325 807.042 288.712 804.015 273.499Z" fill="#030402"/>
<path d="M397.428 281.205C399.122 278.032 401.668 275.259 405.042 273.899C403.175 276.832 400.828 279.979 397.428 281.205Z" fill="#030402"/>
<path d="M437.562 284.299C436.068 283.499 434.468 283.325 432.762 283.765C430.682 284.165 432.362 286.739 433.842 286.205C435.095 285.712 436.335 285.245 437.575 284.765L437.562 284.299Z" fill="#030402"/>
<path d="M448.548 288.539C446.602 285.072 441.015 285.725 437.575 284.765C436.335 285.245 435.095 285.712 433.842 286.205C438.748 286.952 443.628 287.885 448.548 288.539Z" fill="#030402"/>
<path d="M538.748 658.952C535.375 658.218 531.882 658.619 528.468 658.779C529.788 660.205 531.495 661.152 533.268 661.898C541.855 665.512 550.202 669.805 559.215 672.272C560.148 672.072 562.015 671.658 562.948 671.458C562.748 670.872 562.335 669.699 562.122 669.112C554.415 665.512 546.255 662.965 538.748 658.952Z" fill="#030402"/>
<path d="M455.655 299.405C445.802 293.579 433.415 291.445 422.188 294.085C423.055 295.125 424.242 295.725 425.588 295.805C430.628 296.365 435.708 296.099 440.735 296.805C445.762 297.392 450.602 299.032 455.655 299.405Z" fill="#030402"/>
<path d="M741.175 300.752C739.028 299.605 736.708 298.832 734.255 298.752C743.975 308.445 756.415 314.699 768.508 320.872C768.828 318.339 766.362 317.192 764.722 315.805C757.162 310.365 749.482 305.005 741.175 300.752Z" fill="#030402"/>
<path d="M315.082 382.925C301.002 383.805 286.895 382.539 272.828 383.232C275.068 384.899 278.082 384.592 280.682 385.085C292.122 386.565 303.562 384.992 314.975 384.272C315.002 383.939 315.055 383.272 315.082 382.925Z" fill="#030402"/>
<path d="M424.015 448.579C421.002 446.525 418.042 443.739 414.108 444.072C416.482 449.339 422.015 452.205 426.855 454.872C434.268 458.592 440.562 464.379 448.348 467.365C440.535 460.712 432.202 454.739 424.015 448.579Z" fill="#030402"/>
<path d="M140.242 593.365C139.508 587.939 139.308 582.459 138.762 577.019C138.348 580.672 137.775 584.312 137.082 587.939C135.562 599.472 136.082 611.205 137.682 622.712C138.882 622.005 140.148 621.245 139.908 619.645C140.375 610.899 141.588 602.085 140.242 593.365Z" fill="#030402"/>
<path d="M451.442 344.139C440.722 341.605 432.028 333.179 420.788 332.565C419.015 332.765 414.815 332.512 415.895 335.365C435.468 341.045 454.535 351.179 475.468 349.912C479.948 349.579 484.935 349.992 488.708 347.072C476.255 346.952 463.508 348.005 451.442 344.139Z" fill="#030402"/>
<path d="M624.828 356.619C604.162 349.272 581.975 343.845 559.922 346.365C561.788 347.579 563.642 349.112 565.988 349.139C579.935 350.259 594.002 351.045 607.735 353.939C613.388 355.059 618.988 356.805 624.828 356.619Z" fill="#030402"/>
<path d="M559.922 346.365C557.482 344.272 556.522 349.845 559.482 349.205C573.202 351.232 587.068 351.712 600.802 353.685C603.108 353.979 605.428 353.952 607.735 353.939C594.002 351.045 579.935 350.259 565.988 349.139C563.642 349.112 561.788 347.579 559.922 346.365Z" fill="#030402"/>
<path d="M710.495 355.365C710.548 357.432 710.575 359.499 710.402 361.565L710.308 362.725C716.135 368.952 724.402 371.619 731.762 375.485C741.522 379.845 751.535 385.605 762.642 384.312C762.882 384.085 763.362 383.632 763.602 383.392C758.148 381.952 752.948 379.752 747.562 378.139C737.722 375.099 728.855 369.725 720.015 364.579C716.068 362.405 713.215 358.859 710.495 355.365Z" fill="#030402"/>
<path d="M559.908 357.659C556.882 356.779 552.428 354.712 550.362 358.352C555.082 362.645 561.695 361.592 567.522 361.819C566.082 359.005 562.508 358.819 559.908 357.659Z" fill="#030402"/>
<path d="M435.215 443.605C433.028 438.725 428.268 435.645 424.762 431.765C425.535 437.232 431.068 440.565 435.215 443.605Z" fill="#030402"/>
<path d="M759.602 389.605C743.188 384.965 725.735 380.672 712.548 369.232L712.148 369.339C710.202 369.845 708.242 370.352 706.282 370.859C705.295 374.552 704.522 378.339 704.522 382.179C704.815 383.525 705.108 384.872 705.415 386.219C704.828 381.392 706.522 376.739 707.042 371.992C724.775 384.552 746.628 388.125 767.428 392.499C765.575 390.232 762.135 390.632 759.602 389.605Z" fill="#030402"/>
<path d="M244.042 379.685C243.775 380.085 243.228 380.872 242.962 381.259C242.468 387.019 244.895 392.472 245.442 398.139C249.895 398.152 254.575 397.219 258.748 399.205C261.615 400.672 264.842 399.939 267.868 399.632C261.135 396.472 253.375 397.939 246.175 397.365C245.975 391.405 244.108 385.659 244.042 379.685Z" fill="#030402"/>
<path d="M336.442 388.125C332.708 389.779 329.375 392.179 325.842 394.232C314.522 400.312 301.642 403.805 288.722 403.005C283.615 402.845 278.602 401.645 273.522 401.032C269.735 402.779 265.495 402.859 261.495 403.912C282.068 406.979 304.375 408.179 323.362 398.205C328.028 395.405 333.575 392.965 336.442 388.125Z" fill="#030402"/>
<path d="M427.908 441.925C425.495 439.085 423.202 435.832 419.562 434.485C419.922 439.992 425.388 442.765 428.722 446.459C431.548 449.592 435.828 451.512 437.575 455.499C439.375 454.699 441.335 453.325 443.362 454.365C452.282 457.925 461.908 459.245 471.468 459.485C478.308 459.472 485.108 461.845 491.935 460.325C479.215 455.472 465.202 454.365 451.682 455.099C455.148 454.752 458.575 454.285 461.988 453.685C454.375 454.392 446.722 453.752 439.095 453.979C435.108 450.205 431.375 446.179 427.908 441.925Z" fill="#030402"/>
<path d="M439.308 467.845C429.428 464.432 421.375 457.512 412.722 451.939C412.095 452.152 410.842 452.579 410.215 452.792C414.895 460.005 422.628 464.325 430.335 467.632C437.642 470.619 444.668 475.272 452.855 475.152C449.268 471.312 444.068 469.699 439.308 467.845Z" fill="#030402"/>
<path d="M418.695 1125.94C417.122 1121.43 416.882 1116.53 414.628 1112.26C414.748 1120.9 419.882 1128.87 418.602 1137.67C417.788 1137.62 416.162 1137.51 415.362 1137.45C414.588 1141.19 416.362 1145.17 416.428 1149.02C417.282 1152.57 416.548 1156.89 419.095 1159.83C420.095 1155.81 419.775 1151.65 420.028 1147.57C420.215 1148.38 420.588 1150.03 420.775 1150.85C423.962 1153.14 423.868 1147.77 424.268 1145.85C423.415 1145.54 421.708 1144.93 420.855 1144.61C417.042 1142.1 419.295 1136.58 419.562 1132.87C419.962 1130.5 419.495 1128.15 418.695 1125.94Z" fill="#030402"/>
<path d="M440.735 478.405C435.468 475.605 429.948 473.325 424.562 470.779L423.828 471.352C422.682 472.699 420.788 472.472 419.215 472.939C418.762 473.099 417.868 473.392 417.415 473.539C425.922 478.779 435.655 481.285 444.682 485.379C459.882 490.965 477.908 495.779 492.842 486.819C482.482 487.325 471.815 488.605 461.708 485.445C454.722 483.125 447.708 480.819 440.735 478.405Z" fill="#030402"/>
<path d="M104.575 494.645C89.4283 485.685 72.775 479.005 55.335 476.339C47.8283 475.859 40.2416 475.752 32.7216 476.392C22.9749 478.312 13.1349 481.859 5.72156 488.712C-0.411777 500.072 -1.85175 514.152 2.56158 526.392C7.88159 542.432 19.6816 555.059 28.455 569.179C31.7083 576.725 33.8483 583.992 35.2617 592.072C37.3683 604.539 38.3216 619.499 42.1083 631.645C46.2816 650.912 56.5083 667.965 64.0816 685.965C73.7616 705.912 85.2817 724.899 96.4683 744.019C105.975 759.219 111.708 776.365 118.148 792.992C124.428 809.565 128.988 826.699 133.348 843.845C133.642 845.405 134.468 846.752 135.228 848.125C136.535 847.659 137.828 847.205 139.122 846.765C138.935 849.152 138.735 851.539 138.522 853.939C139.482 854.805 140.415 855.685 141.348 856.579C141.508 858.805 141.642 861.019 141.802 863.259C144.322 864.912 145.988 867.285 144.988 870.419C145.802 871.352 146.602 872.299 147.402 873.259C147.722 877.205 147.895 881.565 151.268 884.259C153.988 881.685 156.748 879.152 159.535 876.659C160.468 877.605 161.388 878.565 162.295 879.525C160.522 880.539 158.655 881.485 157.002 882.752C155.762 884.645 155.375 886.952 154.708 889.085C157.895 895.979 162.735 902.379 169.602 905.939C169.015 906.872 168.428 907.832 167.828 908.805C169.148 908.539 170.455 908.285 171.748 908.045C172.415 910.992 173.775 913.699 177.322 913.152C178.228 911.179 177.508 907.139 180.695 907.432C183.748 907.312 185.762 909.979 187.842 911.792C188.122 913.752 188.588 915.685 189.468 917.485C191.855 912.525 188.948 906.672 184.908 903.552C181.108 900.365 178.482 895.699 173.642 893.899C173.868 892.045 174.082 890.192 174.295 888.365C173.135 888.432 171.962 888.512 170.762 888.592C169.628 882.032 164.095 877.632 162.388 871.312C159.895 863.605 154.095 856.819 154.322 848.419C152.335 843.619 151.735 838.405 150.135 833.499C147.242 828.925 147.442 823.245 144.762 818.605C143.322 816.072 142.415 813.299 141.962 810.432C140.802 803.125 137.268 796.379 136.708 788.952C128.242 766.565 119.975 743.899 107.922 723.139C103.508 714.952 97.1483 708.165 91.135 701.192C91.0417 698.992 91.0283 696.712 89.7349 694.845C82.0816 681.565 73.9882 668.485 67.7216 654.485C64.0816 647.419 60.0416 640.272 59.6949 632.125C58.9083 627.792 58.2017 623.432 57.615 619.072C56.255 607.205 53.855 595.525 51.855 583.752C49.1483 572.405 43.2816 562.112 37.0549 552.352C34.2683 548.205 30.6549 544.699 27.6416 540.712C21.1616 531.659 14.4683 521.872 13.0816 510.565C11.6149 499.432 20.5349 490.472 29.6683 485.805C36.1349 481.685 44.0949 483.659 51.2816 483.272C50.8549 483.312 50.0016 483.405 49.575 483.445L50.9617 483.805C52.295 484.139 53.6283 484.485 54.9349 484.845C58.5083 485.672 61.8816 487.085 65.2549 488.485C66.0949 488.805 67.775 489.432 68.615 489.739L69.095 489.925C69.2683 489.992 69.615 490.112 69.7883 490.179C70.0017 490.272 70.4416 490.472 70.6683 490.565C73.0016 491.539 75.3083 492.565 77.615 493.552L78.2816 493.792C78.4683 493.859 78.8416 493.992 79.015 494.072C79.4683 494.405 80.3749 495.072 80.8282 495.419L82.3082 496.045C82.5749 496.325 83.1349 496.899 83.4016 497.179L84.2549 497.472C84.4949 497.592 84.975 497.832 85.2017 497.952C97.5483 506.645 109.842 515.579 120.282 526.592C121.642 527.885 123.002 529.192 124.308 530.525C124.362 530.579 124.482 530.685 124.535 530.739C126.175 532.259 127.748 533.845 129.242 535.512C130.495 536.245 131.335 537.325 131.735 538.752C131.882 538.872 132.175 539.125 132.322 539.259C133.682 540.365 134.948 541.565 136.095 542.885C141.348 548.685 146.402 554.659 150.882 561.085C152.228 563.045 153.495 565.045 154.842 567.005C155.068 567.339 155.535 567.992 155.775 568.312C156.735 569.659 157.682 571.019 158.588 572.405C165.455 583.019 170.442 594.819 173.175 607.165C176.388 610.605 176.295 615.379 176.708 619.765C177.482 618.525 178.228 617.285 178.975 616.059C179.242 616.792 179.775 618.245 180.042 618.979C181.948 619.752 184.215 619.952 185.748 621.392C187.255 623.685 187.975 626.699 190.655 627.979C190.722 625.085 190.815 622.192 190.948 619.312L190.988 618.472C188.682 614.565 189.428 609.912 188.362 605.659C186.442 594.939 180.495 585.605 174.802 576.525C168.815 565.125 161.362 554.565 153.495 544.392C139.135 526.085 124.535 507.205 104.575 494.645ZM137.508 539.325C139.668 540.192 142.722 537.232 141.668 535.099C139.735 534.685 137.108 537.432 137.508 539.325Z" fill="#030402"/>
<path d="M547.308 482.445C543.255 480.832 539.455 483.632 535.428 483.979L536.082 484.685C536.842 484.979 538.348 485.565 539.095 485.859C537.575 486.085 536.055 486.325 534.522 486.579C533.762 488.485 533.002 490.405 532.242 492.325C529.282 492.939 526.322 493.632 523.322 494.125C525.855 495.392 528.588 496.245 531.388 496.632C534.508 495.365 534.482 491.112 535.882 488.459C536.775 488.245 538.575 487.805 539.468 487.579C548.775 487.365 555.628 494.152 562.842 498.965C573.668 505.899 584.375 513.032 595.215 519.939C599.695 522.525 603.775 525.859 608.695 527.592C606.975 524.592 603.948 522.699 601.428 520.432C592.175 512.685 582.495 505.472 572.548 498.632C564.362 492.939 557.122 485.339 547.308 482.445Z" fill="#030402"/>
<path d="M655.375 484.352C654.615 484.312 653.095 484.245 652.335 484.205C652.135 487.272 651.895 490.325 651.868 493.405C653.748 490.699 654.455 487.445 655.375 484.352Z" fill="#9E9D9C"/>
<path d="M380.068 915.019C379.868 908.952 380.268 902.845 379.495 896.805C378.828 911.979 379.295 927.179 379.148 942.365C379.282 961.139 378.815 979.939 379.548 998.712C380.282 993.699 379.988 988.645 379.988 983.619C380.255 960.752 379.788 937.885 380.068 915.019Z" fill="#9E9D9C"/>
<path d="M294.908 494.765C288.855 491.579 283.788 486.352 276.895 484.925C277.522 487.419 277.682 490.125 278.948 492.392C283.188 495.739 287.642 498.819 291.975 502.032C293.295 503.179 295.028 503.459 296.708 503.605C293.455 499.725 289.175 496.885 285.962 492.979C293.668 495.619 299.668 501.859 307.628 503.859C304.322 499.765 299.135 497.792 294.908 494.765Z" fill="#030402"/>
<path d="M69.095 489.925L68.615 489.739C68.7617 489.885 69.0416 490.165 69.1883 490.299L69.095 489.925Z" fill="#030402"/>
<path d="M79.015 494.072C78.8416 493.992 78.4683 493.859 78.2816 493.792L78.4149 494.459L79.015 494.072Z" fill="#030402"/>
<path d="M85.2017 497.952C84.975 497.832 84.4949 497.592 84.2549 497.472L84.295 498.005L85.2017 497.952Z" fill="#030402"/>
<path d="M69.7883 490.179C69.615 490.112 69.2683 489.992 69.095 489.925L69.1883 490.299L69.7883 490.179Z" fill="#030402"/>
<path d="M70.655 603.419C70.495 603.525 70.175 603.725 70.015 603.832H70.3883L70.655 603.419Z" fill="#030402"/>
<path d="M74.4016 607.085L74.015 607.099L74.455 607.739L74.5217 607.499L74.4016 607.085Z" fill="#030402"/>
<path d="M83.6016 637.005C83.1483 634.872 82.2016 633.005 79.775 632.579C80.295 635.259 80.6549 637.965 80.9749 640.685C81.6282 641.925 82.295 643.179 82.9483 644.432L83.2816 641.752C83.2549 641.192 83.1883 640.059 83.1616 639.485C83.2683 638.872 83.495 637.632 83.6016 637.005Z" fill="#030402"/>
<path d="M124.482 544.125C123.802 544.765 123.802 544.765 124.482 544.125Z" fill="#030402"/>
<path d="M70.6683 490.565C70.4416 490.472 70.0017 490.272 69.7883 490.179L70.0549 490.632L70.6683 490.565Z" fill="#030402"/>
<path d="M78.2816 493.792L77.615 493.552L77.775 494.312L78.4149 494.459L78.2816 493.792Z" fill="#030402"/>
<path d="M124.535 530.739C124.482 530.685 124.362 530.579 124.308 530.525L124.495 530.739L124.535 530.739Z" fill="#030402"/>
<path d="M132.482 596.472L132.148 595.832L131.868 596.379L132.188 597.019L132.482 596.472Z" fill="#030402"/>
<path d="M69.7883 490.179L69.1883 490.299L69.5616 490.685L70.0549 490.632L69.7883 490.179Z" fill="#030402"/>
<path d="M78.4149 494.459L77.775 494.312C77.9617 494.632 78.335 495.259 78.535 495.579L78.4149 494.459Z" fill="#030402"/>
<path d="M83.1616 639.485C85.1483 639.192 85.295 638.365 83.6016 637.005C83.495 637.632 83.2683 638.872 83.1616 639.485Z" fill="#030402"/>
<path d="M80.8282 495.419C80.3749 495.072 79.4683 494.405 79.015 494.072L78.4149 494.459L78.535 495.579L79.655 495.992L80.8282 495.419Z" fill="#030402"/>
<path d="M84.2549 497.472L83.4016 497.179L83.2549 498.045L84.295 498.005L84.2549 497.472Z" fill="#030402"/>
<path d="M126.242 572.019L125.282 572.339C125.335 572.965 125.442 574.192 125.482 574.819L126.335 574.685C126.308 574.019 126.268 572.685 126.242 572.019Z" fill="#030402"/>
<path d="M124.655 578.739C124.668 578.925 124.682 579.299 124.695 579.485L124.655 578.739Z" fill="#030402"/>
<path d="M127.735 586.485L127.002 586.285C127.122 586.539 127.375 587.045 127.508 587.299L127.735 586.485Z" fill="#030402"/>
<path d="M129.055 589.085L128.108 588.712L128.215 589.339C128.428 589.272 128.842 589.152 129.055 589.085Z" fill="#030402"/>
<path d="M84.2549 648.432C83.9083 647.645 83.2282 646.072 82.8949 645.299C82.9082 645.925 82.9482 647.192 82.9749 647.832L84.2549 648.432Z" fill="#030402"/>
<path d="M88.7617 655.378C88.695 655.178 88.5884 654.779 88.535 654.579L88.7617 655.378Z" fill="#030402"/>
<path d="M89.415 658.125C89.2816 657.845 89.015 657.299 88.8817 657.032V658.045L89.415 658.125Z" fill="#030402"/>
<path d="M82.3082 496.045L80.8282 495.419L79.655 495.992L79.5083 496.845C79.8283 497.085 80.4816 497.552 80.8149 497.792L82.3882 498.325L83.2549 498.045L83.4016 497.179C83.1349 496.899 82.5749 496.325 82.3082 496.045Z" fill="#030402"/>
<path d="M79.655 495.992L78.535 495.579C78.775 495.885 79.2683 496.525 79.5083 496.845L79.655 495.992Z" fill="#030402"/>
<path d="M83.2549 498.045L82.3882 498.325C82.6682 498.419 83.255 498.619 83.535 498.712L83.2549 498.045Z" fill="#030402"/>
<path d="M361.815 500.259C354.815 503.112 348.095 506.832 340.588 508.299C333.255 510.299 325.628 509.819 318.122 510.179C304.615 511.152 294.975 522.285 282.255 525.739C276.175 527.205 270.068 528.752 264.308 531.232L264.028 531.885C264.042 533.019 264.082 534.139 264.162 535.285C269.668 535.179 275.402 535.699 280.628 533.619C292.735 529.619 302.202 520.352 314.175 516.112C322.868 513.565 332.228 514.379 340.828 511.379C346.135 509.539 351.255 507.152 356.228 504.565C358.242 503.339 360.668 502.445 361.815 500.259Z" fill="#030402"/>
<path d="M250.868 519.685C250.722 515.619 249.962 511.605 248.828 507.712C249.228 515.725 249.762 523.739 250.495 531.739C250.455 547.299 250.988 562.885 249.868 578.419C249.535 586.859 249.508 595.312 249.802 603.752C250.748 612.632 250.055 621.619 251.548 630.445C252.428 644.019 257.002 657.019 258.255 670.539C258.602 675.952 257.442 681.419 258.428 686.819C259.508 682.859 259.575 678.739 259.735 674.685C259.708 672.939 259.735 671.205 259.695 669.485C259.135 666.165 258.455 662.859 257.908 659.539C256.668 651.032 253.908 642.845 252.975 634.299C252.242 627.219 251.495 620.139 251.028 613.045C250.388 581.925 251.668 550.792 250.868 519.685Z" fill="#030402"/>
<path d="M693.148 566.005C682.628 560.005 671.242 554.632 659.028 553.632C658.802 555.125 658.575 556.632 658.348 558.138C670.242 560.605 681.642 565.219 692.042 571.445C704.482 578.152 713.788 589.992 727.482 594.419C726.975 591.765 725.162 589.712 723.335 587.845C714.482 579.032 703.748 572.472 693.148 566.005Z" fill="#030402"/>
<path d="M82.9483 644.432C82.295 643.179 81.6282 641.925 80.9749 640.685C80.5482 645.765 79.9616 650.845 79.5883 655.939C79.4683 657.699 79.3083 659.459 79.1216 661.232C79.735 661.472 80.9483 661.965 81.5483 662.219C81.9617 660.565 82.3483 658.925 82.6416 657.259C82.8016 654.112 82.8549 650.965 82.9749 647.832C82.9482 647.192 82.9082 645.925 82.8949 645.299L82.9483 644.432Z" fill="#030402"/>
<path d="M422.122 597.259C415.295 596.485 408.988 592.805 401.975 593.339C403.908 597.139 409.068 596.872 412.508 598.512C417.455 600.859 423.082 600.139 428.175 601.885C440.988 607.645 453.508 614.139 466.482 619.525C466.175 617.085 467.895 616.418 469.895 616.138C468.922 616.272 466.962 616.539 465.988 616.672C461.335 611.605 454.762 609.165 448.815 606.032C440.162 602.485 431.602 597.992 422.122 597.259Z" fill="#030402"/>
<path d="M74.015 607.099H72.895C70.2416 609.445 74.7884 611.499 74.455 607.739L74.015 607.099Z" fill="#030402"/>
<path d="M70.3883 603.832H70.015L70.095 604.285C70.175 604.165 70.3216 603.939 70.3883 603.832Z" fill="#030402"/>
<path d="M72.895 607.099C72.3483 607.085 71.2683 607.072 70.7349 607.072C70.5349 609.632 70.2949 612.205 70.0816 614.779C70.0683 615.365 70.0417 616.552 70.0283 617.139C69.935 617.912 69.7616 619.432 69.6816 620.192C70.1483 620.272 71.0949 620.445 71.5616 620.525C72.3749 620.672 73.175 620.819 73.9617 620.979C73.4417 626.952 73.215 632.965 74.1216 638.912C74.695 638.992 75.8683 639.139 76.455 639.219C76.495 635.339 76.5483 631.459 76.4016 627.579C76.1483 622.739 76.0283 617.885 76.135 613.032L76.1483 612.912C75.5349 611.125 75.0017 609.312 74.5217 607.499L74.455 607.739C74.7884 611.499 70.2416 609.445 72.895 607.099Z" fill="#030402"/>
<path d="M176.708 619.765C176.295 615.379 176.388 610.605 173.175 607.165C173.428 614.525 174.348 621.845 175.228 629.165C168.442 633.605 161.762 638.405 154.015 641.085C155.628 635.045 158.748 629.512 159.975 623.365C156.868 627.485 155.095 632.365 152.588 636.845C150.188 641.178 146.882 644.912 144.162 649.032C144.762 649.952 145.975 651.792 146.588 652.712C147.495 651.339 148.362 649.979 149.228 648.605C159.868 645.685 168.922 639.205 177.788 632.912C181.908 642.885 190.028 650.205 195.802 659.085C198.295 658.832 200.762 658.592 203.242 658.352C203.268 656.792 203.255 655.272 203.295 653.739C206.228 655.725 206.135 658.779 203.655 661.099C205.122 662.379 206.575 663.672 208.028 664.965C208.575 664.192 209.668 662.619 210.215 661.845C202.535 648.259 197.815 633.259 190.948 619.312C190.815 622.192 190.722 625.085 190.655 627.979C187.975 626.699 187.255 623.685 185.748 621.392C184.215 619.952 181.948 619.752 180.042 618.979C179.775 618.245 179.242 616.792 178.975 616.059C178.228 617.285 177.482 618.525 176.708 619.765Z" fill="#030402"/>
<path d="M463.148 609.219C461.055 607.979 460.268 611.285 462.415 611.712C464.548 612.952 465.295 609.659 463.148 609.219Z" fill="#030402"/>
<path d="M316.922 636.885C312.975 635.872 308.962 634.472 304.815 635.165C321.522 641.685 338.428 647.912 355.108 654.592C356.935 655.285 358.908 655.285 360.815 655.499C357.455 652.952 353.668 651.072 350.162 648.765C339.282 644.285 328.362 639.765 316.922 636.885Z" fill="#030402"/>
<path d="M303.428 650.138C302.108 645.738 296.308 645.285 292.508 646.138C292.268 646.698 291.802 647.845 291.562 648.419C295.642 647.939 299.655 648.592 303.428 650.138Z" fill="#030402"/>
<path d="M387.922 658.019C385.082 656.125 382.335 654.059 379.868 651.699C379.495 653.272 379.122 654.872 378.748 656.485L378.175 657.085C377.842 657.432 377.162 658.152 376.815 658.512L377.042 659.499C377.428 659.472 378.202 659.419 378.588 659.379C380.428 659.112 382.322 659.005 384.108 659.579C385.068 659.192 386.975 658.405 387.922 658.019Z" fill="#030402"/>
<path d="M412.802 659.618C409.268 657.538 405.722 655.379 401.895 653.859C398.615 655.379 395.535 657.805 391.708 656.272C392.802 657.619 394.255 658.592 395.775 659.392C397.615 658.659 398.695 657.379 399.015 655.539C402.668 657.352 405.802 659.965 409.082 662.352C417.855 668.899 427.482 674.219 437.308 679.019C440.948 680.872 444.402 683.672 448.748 683.232C437.335 674.525 424.895 667.312 412.802 659.618Z" fill="#030402"/>
<path d="M446.148 672.779C441.495 670.219 436.642 668.005 431.495 666.619C431.762 670.525 436.322 671.459 438.988 673.419C449.055 678.192 459.388 682.419 469.255 687.619C470.255 685.112 467.562 684.085 466.068 682.819C459.775 678.805 452.642 676.419 446.148 672.779Z" fill="#030402"/>
<path d="M365.295 1073.83C362.122 1073.62 358.948 1073.51 355.762 1073.46C356.482 1074.85 357.282 1076.18 358.202 1077.46C360.588 1076.94 362.508 1075.33 364.602 1074.21L365.295 1073.83Z" fill="#030402"/>
<path d="M306.095 655.165C300.282 655.152 294.002 653.819 288.508 656.285C293.842 656.312 299.162 656.445 304.482 656.125C304.882 655.885 305.695 655.405 306.095 655.165Z" fill="#030402"/>
<path d="M203.655 661.099C206.135 658.779 206.228 655.725 203.295 653.739C203.255 655.272 203.268 656.792 203.242 658.352C200.762 658.592 198.295 658.832 195.802 659.085L196.255 659.872C197.948 659.992 199.628 660.085 201.308 660.179C201.748 666.672 205.002 672.832 209.215 677.699C209.308 678.659 209.388 679.632 209.468 680.619C210.482 680.432 211.482 680.259 212.468 680.099C212.415 682.059 212.135 684.059 212.348 686.045C213.802 689.525 216.895 691.939 219.508 694.525C224.042 688.299 220.082 679.445 213.695 676.312C213.695 675.299 213.682 674.285 213.655 673.299C210.655 670.685 210.055 666.872 210.282 663.085L210.215 661.845C209.668 662.619 208.575 664.192 208.028 664.965C206.575 663.672 205.122 662.379 203.655 661.099Z" fill="#030402"/>
<path d="M319.148 658.298C314.522 656.352 309.442 656.072 304.482 656.125C299.162 656.445 293.842 656.312 288.508 656.285C284.335 656.792 279.642 657.405 276.428 660.392C283.255 662.272 289.762 658.112 296.628 658.832C304.122 658.099 311.882 660.632 319.148 658.298Z" fill="#030402"/>
<path d="M272.242 657.365C268.202 660.832 262.775 659.712 257.908 659.539C258.455 662.859 259.135 666.165 259.695 669.485C261.468 667.125 261.695 664.205 261.602 661.379C265.068 660.699 268.348 661.872 271.322 663.552C270.828 670.045 272.935 676.432 272.148 682.925C271.575 687.219 270.602 691.445 269.962 695.725C269.402 701.805 264.228 706.152 263.642 712.232C262.548 712.659 261.442 713.099 260.322 713.552C260.642 715.712 259.042 719.192 261.988 719.939C264.122 720.712 266.388 720.952 268.588 721.379C268.615 722.365 268.668 724.339 268.695 725.312C276.615 731.259 281.762 739.845 287.468 747.739C288.175 747.792 289.602 747.912 290.308 747.965C286.028 738.205 277.682 730.885 270.242 723.472C273.348 722.272 276.455 721.125 279.495 719.792C277.788 719.338 276.082 718.818 274.362 718.312C275.148 716.818 275.935 715.325 276.748 713.885C272.242 715.005 268.148 717.352 263.588 718.352C265.775 709.925 272.775 703.392 273.495 694.472C275.682 685.165 274.748 675.565 274.388 666.125C290.495 656.539 310.108 659.805 327.508 663.152C334.002 663.699 339.228 667.845 345.015 670.378C365.575 681.245 385.348 694.179 401.802 710.739C416.535 725.219 427.628 743.099 435.002 762.339C445.148 785.779 450.068 812.672 468.588 831.512C467.815 827.592 465.015 824.579 463.162 821.165C449.388 797.685 443.068 770.859 431.122 746.512C415.882 714.579 387.882 690.765 358.082 672.779C355.868 671.259 353.242 670.232 351.388 668.232C397.148 677.259 442.508 688.792 486.282 705.032C492.842 707.912 499.988 709.459 506.135 713.232C521.082 721.579 535.095 731.765 546.695 744.405C564.748 762.085 583.722 779.085 605.095 792.698C615.455 799.445 625.095 807.992 637.068 811.725C634.655 808.578 630.988 806.885 627.695 804.859C620.735 800.925 613.908 796.778 607.082 792.618C595.268 784.378 583.935 775.485 572.775 766.392C560.148 754.645 548.082 742.312 535.388 730.645C530.748 726.259 525.295 722.872 520.668 718.499C549.948 729.659 578.802 742.592 608.348 752.685C607.122 750.805 604.095 750.605 602.175 749.472C580.348 739.072 558.508 728.512 535.948 719.752C536.028 720.312 536.188 721.445 536.255 722.005C534.148 717.645 528.775 716.818 524.735 715.045C481.948 697.952 437.895 683.965 392.922 673.925C374.788 669.432 356.415 666.005 338.215 661.819C332.562 658.392 325.668 656.938 319.148 658.298C311.882 660.632 304.122 658.099 296.628 658.832C289.762 658.112 283.255 662.272 276.428 660.392C275.348 660.459 274.242 660.579 273.122 660.752C272.842 659.619 272.535 658.485 272.242 657.365Z" fill="#030402"/>
<path d="M595.602 665.099C588.882 663.325 583.668 656.899 576.108 658.672C581.962 663.405 589.282 665.672 596.148 668.499C595.975 667.365 595.788 666.232 595.602 665.099Z" fill="#030402"/>
<path d="M384.108 659.579C382.322 659.005 380.428 659.112 378.588 659.379C382.922 662.725 388.068 664.939 393.268 666.539C391.962 662.645 387.135 661.819 384.108 659.579Z" fill="#030402"/>
<path d="M201.308 660.179C199.628 660.085 197.948 659.992 196.255 659.872C203.015 674.872 211.042 689.325 219.882 703.192C223.055 708.339 228.655 713.005 227.908 719.645C226.428 730.245 220.068 739.419 212.948 747.099C209.762 750.792 206.002 754.005 203.375 758.152C213.628 755.565 220.415 746.339 225.308 737.565C228.255 731.805 230.788 725.779 231.535 719.299C236.242 722.899 240.282 727.339 245.442 730.339C245.442 731.272 245.455 733.125 245.468 734.059C253.135 732.752 259.615 738.165 266.242 741.085C275.668 746.232 284.188 753.032 291.482 760.899C297.962 767.459 302.482 775.605 308.788 782.325C309.948 782.045 311.108 781.779 312.255 781.525C321.322 789.512 331.975 795.539 343.082 800.219C345.322 801.245 347.722 801.832 350.148 802.139C349.522 800.419 347.628 800.032 346.175 799.272C331.188 792.192 317.588 782.219 306.535 769.859C301.882 763.005 297.002 756.299 291.722 749.912C291.642 751.165 291.482 753.685 291.388 754.939C284.588 751.939 282.602 743.739 275.735 740.845C271.215 735.459 262.215 738.699 258.802 731.939C255.175 730.712 251.295 730.285 247.722 728.859C245.695 726.752 244.362 724.112 242.842 721.645C240.962 721.259 239.068 720.885 237.162 720.512C237.362 719.619 237.548 718.725 237.722 717.832C236.495 716.552 236.148 714.845 235.948 713.152C233.175 711.005 227.642 709.712 229.655 705.205C233.055 706.525 236.455 707.819 239.922 708.885C239.882 709.805 239.815 710.739 239.748 711.685C244.868 713.125 250.722 710.739 255.108 714.432C254.748 712.565 254.108 710.779 253.242 709.099C254.908 704.459 258.628 700.845 259.855 696.032C261.615 689.925 261.548 683.499 261.348 677.205C260.948 676.579 260.135 675.312 259.735 674.685C259.575 678.739 259.508 682.859 258.428 686.819C257.015 690.979 258.308 695.965 255.308 699.579C252.788 703.005 250.682 706.712 248.868 710.579C244.642 707.859 239.708 706.432 235.575 703.619C231.295 698.379 227.748 692.539 224.722 686.485C220.215 678.499 214.788 671.085 210.282 663.085C210.055 666.872 210.655 670.685 213.655 673.299C213.682 674.285 213.695 675.299 213.695 676.312C220.082 679.445 224.042 688.299 219.508 694.525C216.895 691.939 213.802 689.525 212.348 686.045C212.135 684.059 212.415 682.059 212.468 680.099C211.482 680.259 210.482 680.432 209.468 680.619C209.388 679.632 209.308 678.659 209.215 677.699C205.002 672.832 201.748 666.672 201.308 660.179ZM221.762 695.032C224.388 696.752 226.028 699.512 227.788 702.032C225.175 700.432 222.228 699.525 219.495 698.152C217.548 696.885 220.388 694.499 221.762 695.032Z" fill="#030402"/>
<path d="M473.668 683.192C473.295 681.579 471.175 681.272 470.095 680.259C468.762 681.099 467.415 681.965 466.068 682.819C467.562 684.085 470.255 685.112 469.255 687.619C471.975 689.232 475.188 688.859 478.202 688.819C476.535 687.205 472.988 686.032 473.668 683.192Z" fill="#030402"/>
<path d="M477.322 684.459C476.402 684.139 474.588 683.499 473.668 683.192C472.988 686.032 476.535 687.205 478.202 688.819C486.322 693.619 495.482 696.112 504.282 699.352C504.268 698.872 504.242 697.899 504.228 697.419C495.335 692.965 485.815 689.725 477.322 684.459Z" fill="#030402"/>
<path d="M409.535 696.325C406.522 693.579 403.602 690.405 399.588 689.165C400.255 693.112 403.388 695.859 405.668 698.939C412.282 706.565 419.215 713.912 425.735 721.618C439.255 737.618 447.468 757.085 456.375 775.805C453.162 761.979 445.975 749.525 439.095 737.245C430.335 722.885 421.855 708.005 409.535 696.325Z" fill="#030402"/>
<path d="M329.188 1067.74C325.108 1066.7 321.002 1065.03 316.775 1064.99C313.975 1066.98 318.562 1068.86 320.202 1069.66C322.708 1067.54 326.162 1067.94 329.188 1067.74Z" fill="#030402"/>
<path d="M420.362 1087.83C418.695 1085.46 417.722 1081.61 414.322 1081.39C418.108 1088.62 422.588 1095.65 424.188 1103.79C425.375 1106.73 424.962 1111.53 428.655 1112.63C429.562 1103.53 424.575 1095.46 420.362 1087.83Z" fill="#030402"/>
<path d="M328.602 690.672C320.695 695.392 314.282 702.379 305.988 706.539C298.748 709.632 290.548 709.019 283.215 711.845C287.295 712.045 291.335 712.685 295.322 713.485C294.362 714.152 293.375 714.805 292.375 715.472C297.375 714.685 302.348 713.419 306.935 711.285C315.735 706.299 321.975 698.085 328.602 690.672Z" fill="#030402"/>
<path d="M185.922 693.285C184.002 693.579 182.162 694.219 180.695 695.552C164.508 707.712 145.082 714.099 126.468 721.405C126.348 721.939 126.122 723.005 126.015 723.525C148.882 721.045 168.642 707.565 185.922 693.285Z" fill="#030402"/>
<path d="M221.762 695.032C220.388 694.499 217.548 696.885 219.495 698.152C222.228 699.525 225.175 700.432 227.788 702.032C226.028 699.512 224.388 696.752 221.762 695.032Z" fill="#030402"/>
<path d="M295.322 713.485C291.335 712.685 287.295 712.045 283.215 711.845C281.015 712.299 278.802 712.899 276.748 713.885C275.935 715.325 275.148 716.818 274.362 718.312C276.082 718.818 277.788 719.338 279.495 719.792C283.815 718.418 288.135 717.019 292.375 715.472C293.375 714.805 294.362 714.152 295.322 713.485Z" fill="#030402"/>
<path d="M270.388 776.925C270.002 777.139 269.242 777.565 268.855 777.779C275.868 791.019 287.335 801.245 298.428 811.045C300.282 812.698 302.308 814.365 304.895 814.512C304.255 813.339 303.468 812.285 302.522 811.365C290.402 801.339 279.695 789.565 270.388 776.925Z" fill="#030402"/>
<path d="M349.335 786.152C340.655 783.779 332.602 778.339 323.282 778.925C324.362 781.339 327.162 781.845 329.348 782.779C335.802 785.245 342.642 786.405 349.255 788.325C349.282 787.779 349.322 786.699 349.335 786.152Z" fill="#030402"/>
<path d="M741.095 798.672C741.122 795.472 740.602 792.325 739.975 789.205C739.282 810.659 737.442 832.099 733.468 853.205C731.748 867.899 725.602 881.619 723.402 896.179C725.962 890.979 726.775 885.179 728.442 879.672C734.122 861.085 736.455 841.712 738.775 822.485C739.882 814.579 739.602 806.525 741.095 798.672Z" fill="#030402"/>
<path d="M220.428 791.632C219.962 793.419 219.508 795.205 219.028 797.019C210.108 825.499 200.722 855.059 204.388 885.299C205.175 888.832 204.802 893.085 207.628 895.792C208.255 878.459 206.482 860.912 209.788 843.765C212.148 829.259 215.295 814.912 218.988 800.712C219.682 797.712 220.055 794.659 220.428 791.632Z" fill="#030402"/>
<path d="M170.628 840.352C170.882 833.059 171.695 824.872 167.922 818.365C166.695 820.925 167.668 823.672 167.842 826.352C168.215 831.192 167.895 836.045 167.922 840.898C168.602 840.765 169.948 840.485 170.628 840.352Z" fill="#030402"/>
<path d="M178.388 828.925C178.468 827.699 178.042 824.912 176.255 825.685C175.455 838.285 171.975 851.059 174.788 863.619L176.802 863.019C179.495 851.819 178.402 840.299 178.388 828.925Z" fill="#030402"/>
<path d="M186.322 830.259C182.922 832.672 184.975 837.592 183.855 841.112C181.655 852.352 181.055 863.805 181.588 875.232C182.282 875.299 183.695 875.419 184.388 875.472C185.575 868.845 186.628 862.139 186.615 855.392C185.602 857.099 184.482 858.739 183.308 860.392C182.775 851.472 184.068 842.499 185.962 833.805C186.055 832.925 186.228 831.139 186.322 830.259Z" fill="#030402"/>
<path d="M195.788 833.179C193.575 837.032 193.428 841.565 192.602 845.832C190.282 862.725 186.868 879.685 188.722 896.805C191.615 896.752 190.762 893.525 191.388 891.752C193.695 872.285 193.228 852.605 195.788 833.179Z" fill="#030402"/>
<path d="M185.962 833.805C184.068 842.499 182.775 851.472 183.308 860.392C184.482 858.739 185.602 857.099 186.615 855.392C186.522 848.205 187.108 840.925 185.962 833.805Z" fill="#030402"/>
<path d="M139.122 846.765C137.828 847.205 136.535 847.659 135.228 848.125L134.415 848.419C137.095 857.099 139.815 865.779 143.175 874.232C151.748 893.032 164.188 909.765 177.962 925.085C181.482 928.899 183.668 933.672 186.148 938.179C194.988 953.259 205.148 967.512 213.882 982.659C223.215 997.792 232.442 1012.98 241.762 1028.1C242.882 1029.82 243.935 1031.66 245.522 1033.01C245.108 1024.91 242.508 1017.18 238.322 1010.3C240.522 1004.45 250.802 1001.22 253.815 1007.97C256.402 1012.22 259.935 1015.75 263.282 1019.42C261.628 1021.27 260.042 1023.18 258.482 1025.15C260.468 1025.69 262.468 1026.21 264.442 1026.74C264.268 1024.89 264.095 1023.05 263.935 1021.22C267.988 1022.21 269.908 1026.43 273.215 1028.65C278.335 1032.29 282.482 1037.11 287.602 1040.7C288.495 1040.74 290.282 1040.83 291.162 1040.89C284.308 1034.57 277.148 1028.58 270.268 1022.29C255.042 1007.59 244.175 989.219 233.215 971.299C230.215 966.139 226.468 961.419 224.122 955.912C214.348 934.739 199.002 916.912 184.308 899.059C171.842 883.752 163.015 866.019 154.322 848.419C154.095 856.819 159.895 863.605 162.388 871.312C164.095 877.632 169.628 882.032 170.762 888.592C171.962 888.512 173.135 888.432 174.295 888.365C174.082 890.192 173.868 892.045 173.642 893.899C178.482 895.699 181.108 900.365 184.908 903.552C188.948 906.672 191.855 912.525 189.468 917.485C188.588 915.685 188.122 913.752 187.842 911.792C185.762 909.979 183.748 907.312 180.695 907.432C177.508 907.139 178.228 911.179 177.322 913.152C173.775 913.699 172.415 910.992 171.748 908.045C170.455 908.285 169.148 908.539 167.828 908.805C168.428 907.832 169.015 906.872 169.602 905.939C162.735 902.379 157.895 895.979 154.708 889.085C155.375 886.952 155.762 884.645 157.002 882.752C158.655 881.485 160.522 880.539 162.295 879.525C161.388 878.565 160.468 877.605 159.535 876.659C156.748 879.152 153.988 881.685 151.268 884.259C147.895 881.565 147.722 877.205 147.402 873.259C146.602 872.299 145.802 871.352 144.988 870.419C145.988 867.285 144.322 864.912 141.802 863.259C141.642 861.019 141.508 858.805 141.348 856.579C140.415 855.685 139.482 854.805 138.522 853.939C138.735 851.539 138.935 849.152 139.122 846.765ZM216.535 948.899C215.615 949.592 214.695 950.299 213.762 951.032C213.362 953.805 210.548 953.885 208.282 953.925C207.975 955.565 207.655 957.205 207.335 958.872C205.615 956.272 203.082 954.459 199.842 955.205C197.762 952.032 194.308 946.765 198.348 943.779C202.082 942.752 206.122 941.952 209.748 943.725C208.442 941.552 207.535 939.165 207.068 936.685C213.855 935.539 214.122 944.552 216.535 948.899ZM220.255 953.712C221.922 957.872 223.468 962.098 225.108 966.285C223.988 966.312 221.108 964.072 221.028 966.312C222.562 968.832 223.202 971.859 224.762 974.299C225.642 973.219 226.228 971.979 226.522 970.552C228.095 971.525 229.655 972.499 231.215 973.485C230.175 976.672 227.322 978.512 224.628 980.259C226.988 981.645 229.575 982.525 232.308 982.645C231.762 980.472 231.375 978.258 231.148 976.045C232.468 976.525 233.762 977.032 235.042 977.552C234.602 980.059 234.388 982.645 234.962 985.179C233.228 986.845 231.215 988.299 229.882 990.365C229.322 992.285 231.228 993.459 232.402 994.579C233.135 992.672 233.868 990.739 234.588 988.859C235.562 990.072 236.495 991.325 237.375 992.632C238.402 992.552 239.428 992.485 240.442 992.445C242.615 994.259 245.708 995.552 246.562 998.472C245.708 1000.78 243.388 997.352 241.962 997.099C240.802 997.392 239.642 997.699 238.455 998.019C236.948 997.125 235.442 996.245 233.895 995.405C232.535 1000.17 239.575 1001.25 237.935 1006.06C235.882 1005.98 233.802 1005.93 231.735 1005.93C235.588 1005.21 233.068 1002.42 230.802 1001.59C230.882 1000.81 230.948 1000.02 231.002 999.272C228.308 995.965 225.442 992.899 221.722 990.739C220.202 987.325 221.055 983.219 219.455 979.739C218.348 980.099 217.228 980.485 216.095 980.885C216.295 979.445 216.495 978.005 216.668 976.592C213.362 976.819 211.122 973.992 212.495 970.845C211.842 970.992 210.535 971.272 209.882 971.419C210.335 970.152 210.775 968.899 211.202 967.659C210.908 967.045 210.335 965.805 210.042 965.179C212.415 962.685 212.602 959.419 211.948 956.219C213.322 954.845 214.695 953.499 216.055 952.152C217.468 952.632 218.895 953.085 220.255 953.712Z" fill="#030402"/>
<path d="M522.722 903.859C519.295 912.312 518.642 921.485 518.468 930.512C516.508 946.459 518.588 962.499 519.562 978.405C517.055 995.832 519.388 1014.29 528.255 1029.69C529.442 1031.43 530.108 1034.01 532.522 1034.37C525.828 1018.42 520.335 1001.43 521.322 983.912C522.295 976.632 521.388 969.299 521.322 961.992C520.975 949.245 521.055 936.485 521.575 923.739C521.668 917.085 523.255 910.525 522.722 903.859Z" fill="#030402"/>
<path d="M721.522 908.845C725.242 910.685 727.935 914.099 730.362 917.392C726.402 915.872 723.575 912.419 721.522 908.845Z" fill="#030402"/>
<path d="M244.842 930.872C244.228 930.498 243.002 929.752 242.388 929.379C243.428 941.059 248.335 951.939 251.162 963.232C253.695 963.005 256.188 962.712 258.708 962.458C260.575 970.298 262.722 978.432 267.508 985.059C270.562 979.405 266.535 973.205 265.255 967.579C262.348 960.739 260.308 953.299 255.908 947.259C256.082 951.339 256.935 955.339 257.908 959.299C256.908 960.192 255.882 961.085 254.842 961.979C253.215 957.699 252.135 953.259 250.882 948.859C249.188 942.752 246.348 937.032 244.842 930.872Z" fill="#030402"/>
<path d="M216.535 948.899C214.122 944.552 213.855 935.539 207.068 936.685C207.535 939.165 208.442 941.552 209.748 943.725C206.122 941.952 202.082 942.752 198.348 943.779C194.308 946.765 197.762 952.032 199.842 955.205C203.082 954.459 205.615 956.272 207.335 958.872C207.655 957.205 207.975 955.565 208.282 953.925C210.548 953.885 213.362 953.805 213.762 951.032C214.695 950.299 215.615 949.592 216.535 948.899Z" fill="#030402"/>
<path d="M253.815 1007.97C250.802 1001.22 240.522 1004.45 238.322 1010.3C242.508 1017.18 245.108 1024.91 245.522 1033.01C247.482 1033.42 249.468 1033.77 251.322 1034.57C253.455 1036.97 254.935 1039.87 256.748 1042.53C256.308 1043.98 255.842 1045.46 255.375 1046.95C256.988 1047.05 259.735 1045.65 259.708 1048.26C260.135 1053.97 266.708 1057.03 265.735 1063.09C267.082 1063.73 268.402 1064.39 269.735 1065.06C269.188 1066.61 268.642 1068.15 268.095 1069.73C270.842 1073.05 270.135 1077.78 272.895 1081.06C276.495 1085.69 277.375 1091.61 278.015 1097.25C278.535 1102.61 280.322 1107.71 281.348 1112.98C283.228 1112.83 285.108 1112.71 286.975 1112.61C288.242 1108.11 289.242 1103.55 289.882 1098.93C287.815 1098.09 285.748 1097.25 283.682 1096.41C284.175 1096.17 285.162 1095.71 285.668 1095.47C284.948 1094.17 284.228 1092.86 283.495 1091.59C288.348 1084.13 283.228 1075.39 285.548 1067.39L285.655 1066.73C283.242 1065.65 281.108 1064.03 279.935 1061.62C280.375 1060.78 280.802 1059.97 281.215 1059.17C279.268 1056.67 278.615 1053.53 279.495 1050.47C281.722 1048.73 284.775 1048.66 287.455 1048.49C293.588 1048.46 297.762 1053.54 302.842 1056.11C314.695 1060.09 326.895 1062.91 338.962 1066.17C339.108 1065.49 339.402 1064.11 339.548 1063.43C322.268 1058.87 305.055 1052.45 291.162 1040.89C290.282 1040.83 288.495 1040.74 287.602 1040.7C282.482 1037.11 278.335 1032.29 273.215 1028.65C269.908 1026.43 267.988 1022.21 263.935 1021.22C264.095 1023.05 264.268 1024.89 264.442 1026.74C262.468 1026.21 260.468 1025.69 258.482 1025.15C260.042 1023.18 261.628 1021.27 263.282 1019.42C259.935 1015.75 256.402 1012.22 253.815 1007.97ZM254.802 1015.43C256.148 1015.82 257.482 1016.22 258.802 1016.62C258.908 1017.99 259.002 1019.38 259.082 1020.78C257.002 1020.93 254.548 1021.37 253.015 1019.53C250.615 1017.47 251.908 1014.18 252.202 1011.54C253.722 1012.3 254.148 1013.99 254.802 1015.43Z" fill="#030402"/>
<path d="M300.522 1172.03C298.362 1169.49 295.548 1172.82 293.655 1174.03C289.882 1179.18 293.668 1185.7 293.042 1191.47C296.508 1190.51 300.108 1190.19 303.682 1190.38C303.615 1189.47 303.482 1187.66 303.415 1186.77C302.815 1186.87 301.615 1187.1 301.015 1187.22C300.242 1185.25 299.508 1183.26 298.815 1181.29C301.415 1179.07 303.468 1174.79 300.522 1172.03Z" fill="#030402"/>
<path d="M220.255 953.712C218.895 953.085 217.468 952.632 216.055 952.152C214.695 953.499 213.322 954.845 211.948 956.219C212.602 959.419 212.415 962.685 210.042 965.179C210.335 965.805 210.908 967.045 211.202 967.659C210.775 968.899 210.335 970.152 209.882 971.419C210.535 971.272 211.842 970.992 212.495 970.845C211.122 973.992 213.362 976.819 216.668 976.592C216.495 978.005 216.295 979.445 216.095 980.885C217.228 980.485 218.348 980.099 219.455 979.739C221.055 983.219 220.202 987.325 221.722 990.739C225.442 992.899 228.308 995.965 231.002 999.272C230.948 1000.02 230.882 1000.81 230.802 1001.59C233.068 1002.42 235.588 1005.21 231.735 1005.93C233.802 1005.93 235.882 1005.98 237.935 1006.06C239.575 1001.25 232.535 1000.17 233.895 995.405C235.442 996.245 236.948 997.125 238.455 998.019C239.642 997.699 240.802 997.392 241.962 997.099C243.388 997.352 245.708 1000.78 246.562 998.472C245.708 995.552 242.615 994.259 240.442 992.445C239.428 992.485 238.402 992.552 237.375 992.632C236.495 991.325 235.562 990.072 234.588 988.859C233.868 990.739 233.135 992.672 232.402 994.579C231.228 993.459 229.322 992.285 229.882 990.365C231.215 988.299 233.228 986.845 234.962 985.179C234.388 982.645 234.602 980.059 235.042 977.552C233.762 977.032 232.468 976.525 231.148 976.045C231.375 978.258 231.762 980.472 232.308 982.645C229.575 982.525 226.988 981.645 224.628 980.259C227.322 978.512 230.175 976.672 231.215 973.485C229.655 972.499 228.095 971.525 226.522 970.552C226.228 971.979 225.642 973.219 224.762 974.299C223.202 971.859 222.562 968.832 221.028 966.312C221.108 964.072 223.988 966.312 225.108 966.285C223.468 962.098 221.922 957.872 220.255 953.712Z" fill="#030402"/>
<path d="M472.308 959.485C471.682 958.912 471.055 958.365 470.402 957.845C470.162 957.779 469.695 957.672 469.455 957.605C468.388 960.299 467.295 962.992 466.335 965.752C466.708 967.272 467.055 968.832 467.362 970.392C468.908 966.699 470.535 963.059 472.308 959.485Z" fill="#030402"/>
<path d="M277.002 962.152C276.468 961.992 275.388 961.659 274.842 961.499C274.762 967.805 274.815 974.125 274.802 980.445C276.308 990.152 278.028 1000.45 285.108 1007.86C285.548 1005.94 285.588 1004.01 284.815 1002.21C282.922 996.752 280.855 991.352 279.455 985.739C278.135 977.939 277.282 970.059 277.002 962.152Z" fill="#030402"/>
<path d="M477.282 974.059C476.215 975.845 475.188 977.659 474.522 979.645C469.362 995.885 462.095 1011.65 451.482 1025.07C447.362 1030.79 442.108 1035.62 438.335 1041.62C440.042 1040.99 441.695 1040.26 443.282 1039.42C459.202 1022.06 470.722 1000.9 477.268 978.299C477.268 977.232 477.282 975.125 477.282 974.059Z" fill="#030402"/>
<path d="M467.362 970.392C467.055 968.832 466.708 967.272 466.335 965.752C457.308 991.739 442.962 1016.27 422.802 1035.21C417.322 1040.66 411.282 1045.55 406.108 1051.31C407.215 1050.97 408.295 1050.61 409.375 1050.22C416.002 1044.03 424.882 1040.66 430.508 1033.38C446.735 1015.05 458.828 993.272 467.362 970.392Z" fill="#030402"/>
<path d="M538.975 1016.45C537.175 1012.78 536.535 1008.46 533.708 1005.38C533.828 1013.73 537.055 1021.89 540.748 1029.31C543.882 1036.3 550.415 1040.71 556.442 1044.98C548.908 1036.62 543.188 1026.86 538.975 1016.45Z" fill="#030402"/>
<path d="M254.802 1015.43C254.148 1013.99 253.722 1012.3 252.202 1011.54C251.908 1014.18 250.615 1017.47 253.015 1019.53C254.548 1021.37 257.002 1020.93 259.082 1020.78C259.002 1019.38 258.908 1017.99 258.802 1016.62C257.482 1016.22 256.148 1015.82 254.802 1015.43Z" fill="#030402"/>
<path d="M251.322 1034.57C249.468 1033.77 247.482 1033.42 245.522 1033.01C245.455 1035.3 247.268 1037.05 248.268 1038.98C262.495 1061.55 271.602 1086.99 276.882 1113.07C280.748 1129.34 282.362 1145.98 285.122 1162.45C285.215 1171.11 287.468 1179.54 289.268 1187.97C289.975 1190.61 290.535 1194.46 293.962 1194.75C298.855 1194.94 303.695 1193.7 308.602 1194.05C307.615 1174.1 305.628 1154.22 303.308 1134.38C301.162 1120.9 297.495 1107.7 294.002 1094.53C290.522 1085.69 289.615 1075.97 285.548 1067.39C283.228 1075.39 288.348 1084.13 283.495 1091.59C284.228 1092.86 284.948 1094.17 285.668 1095.47C285.162 1095.71 284.175 1096.17 283.682 1096.41C285.748 1097.25 287.815 1098.09 289.882 1098.93C289.242 1103.55 288.242 1108.11 286.975 1112.61C285.108 1112.71 283.228 1112.83 281.348 1112.98C280.322 1107.71 278.535 1102.61 278.015 1097.25C277.375 1091.61 276.495 1085.69 272.895 1081.06C270.135 1077.78 270.842 1073.05 268.095 1069.73C268.642 1068.15 269.188 1066.61 269.735 1065.06C268.402 1064.39 267.082 1063.73 265.735 1063.09C266.708 1057.03 260.135 1053.97 259.708 1048.26C259.735 1045.65 256.988 1047.05 255.375 1046.95C255.842 1045.46 256.308 1043.98 256.748 1042.53C254.935 1039.87 253.455 1036.97 251.322 1034.57ZM290.308 1122.22C291.175 1126.3 286.522 1129.51 283.548 1126.11C284.988 1123.53 287.042 1121.29 290.308 1122.22ZM300.522 1172.03C303.468 1174.79 301.415 1179.07 298.815 1181.29C299.508 1183.26 300.242 1185.25 301.015 1187.22C301.615 1187.1 302.815 1186.87 303.415 1186.77C303.482 1187.66 303.615 1189.47 303.682 1190.38C300.108 1190.19 296.508 1190.51 293.042 1191.47C293.668 1185.7 289.882 1179.18 293.655 1174.03C295.548 1172.82 298.362 1169.49 300.522 1172.03Z" fill="#030402"/>
<path d="M302.842 1056.11C297.762 1053.54 293.588 1048.46 287.455 1048.49C284.775 1048.66 281.722 1048.73 279.495 1050.47C278.615 1053.53 279.268 1056.67 281.215 1059.17C280.802 1059.97 280.375 1060.78 279.935 1061.62C281.108 1064.03 283.242 1065.65 285.655 1066.73C284.948 1061.54 281.842 1056.54 282.868 1051.21C284.655 1049.35 287.455 1049.59 289.468 1050.89C295.602 1053.29 300.028 1059.26 307.122 1058.82C329.188 1066.78 352.562 1070.62 375.935 1071.65C376.122 1071.54 376.508 1071.31 376.708 1071.19C369.415 1069.23 361.948 1068.1 354.562 1066.57C349.535 1065.65 344.495 1064.77 339.548 1063.43C339.402 1064.11 339.108 1065.49 338.962 1066.17C326.895 1062.91 314.695 1060.09 302.842 1056.11Z" fill="#030402"/>
<path d="M603.482 1052.39C587.042 1054.39 570.522 1052.63 554.042 1052.65C517.228 1051.15 480.895 1058.5 445.108 1066.22C428.495 1069.55 411.828 1072.97 394.868 1074.02C397.268 1074.74 399.655 1075.51 402.042 1076.25C388.882 1078.89 375.455 1077.66 362.135 1078.02C355.762 1078.14 349.535 1076.13 343.148 1076.85C346.962 1078.63 351.322 1078.75 355.455 1079.18C375.895 1080.02 396.562 1080.01 416.682 1075.91C425.135 1073.95 433.908 1073.47 441.975 1070.03C457.322 1065.57 472.895 1061.41 488.828 1059.75C502.962 1057.82 517.295 1058.54 531.402 1056.53C542.508 1055.5 553.695 1056.67 564.775 1055.5C572.735 1056.66 580.775 1056.35 588.788 1056.34C593.908 1056.34 599.095 1055.06 603.482 1052.39Z" fill="#030402"/>
<path d="M355.442 1072.87C346.602 1071.63 337.895 1069.61 329.188 1067.74C326.162 1067.94 322.708 1067.54 320.202 1069.66C325.468 1072.55 331.455 1073.46 336.908 1075.86C338.855 1076.78 341.042 1076.89 343.148 1076.85C349.535 1076.13 355.762 1078.14 362.135 1078.02C375.455 1077.66 388.882 1078.89 402.042 1076.25C399.655 1075.51 397.268 1074.74 394.868 1074.02C384.802 1074.86 374.695 1074.61 364.602 1074.21C362.508 1075.33 360.588 1076.94 358.202 1077.46C357.282 1076.18 356.482 1074.85 355.762 1073.46L355.442 1072.87ZM336.482 1070.53C338.282 1071.54 338.362 1072.46 336.695 1073.26C334.868 1072.21 334.802 1071.3 336.482 1070.53Z" fill="#030402"/>
<path d="M336.695 1073.26C334.868 1072.21 334.802 1071.3 336.482 1070.53C338.282 1071.54 338.362 1072.46 336.695 1073.26Z" fill="#030402"/>
<path d="M480.655 1080.94C472.322 1085.33 466.815 1093.91 463.362 1102.46C460.215 1110.43 458.628 1119.78 461.962 1127.93C462.415 1127.42 463.322 1126.41 463.775 1125.91C464.562 1114.23 467.042 1102.27 473.682 1092.43C476.468 1088.87 477.775 1084.43 480.655 1080.94Z" fill="#030402"/>
<path d="M358.348 1086.34C351.095 1082.65 343.148 1078.81 334.762 1080.65C334.348 1085.06 339.482 1084.38 342.282 1085.14C348.642 1085.35 354.415 1088.43 360.722 1088.75C360.228 1087.65 359.442 1086.85 358.348 1086.34Z" fill="#030402"/>
<path d="M411.188 1087.73C410.375 1085.67 406.095 1086.42 408.242 1089.01C415.628 1100.58 420.922 1113.59 423.175 1127.17C423.988 1127.13 425.615 1127.07 426.415 1127.03C425.175 1128.55 423.935 1130.07 422.775 1131.69C422.815 1131.89 422.882 1132.29 422.908 1132.49C424.535 1132.39 426.162 1132.31 427.762 1132.25C426.815 1116.17 419.762 1101.1 411.188 1087.73Z" fill="#030402"/>
<path d="M420.002 1119.7C418.682 1116.39 419.015 1110.07 413.948 1110.69C414.122 1111.07 414.455 1111.87 414.628 1112.26C416.882 1116.53 417.122 1121.43 418.695 1125.94C419.495 1128.15 419.962 1130.5 419.562 1132.87C419.495 1133.62 419.362 1135.11 419.308 1135.85C420.415 1135.98 422.655 1136.23 423.762 1136.37C423.548 1135.41 423.122 1133.46 422.908 1132.49C422.882 1132.29 422.815 1131.89 422.775 1131.69C423.935 1130.07 425.175 1128.55 426.415 1127.03C425.615 1127.07 423.988 1127.13 423.175 1127.17C420.788 1125.59 421.055 1122.13 420.002 1119.7Z" fill="#030402"/>
<path d="M642.735 1112.97C640.682 1118.47 640.068 1124.37 639.242 1130.15C638.948 1133.21 638.828 1136.29 638.828 1139.38L640.442 1138.73C642.415 1130.31 642.828 1121.57 642.735 1112.97Z" fill="#030402"/>
<path d="M283.548 1126.11C284.988 1123.53 287.042 1121.29 290.308 1122.22C291.175 1126.3 286.522 1129.51 283.548 1126.11Z" fill="#030402"/>
<path d="M424.402 1137.23C422.748 1136.97 421.082 1136.73 419.428 1136.5C420.148 1138.97 418.535 1142.73 420.855 1144.61C421.708 1144.93 423.415 1145.54 424.268 1145.85C424.322 1142.97 424.348 1140.09 424.402 1137.23Z" fill="#030402"/>
</svg>
