<svg width="807" height="1195" viewBox="0 0 807 1195" fill="none" xmlns="http://www.w3.org/2000/svg">
<path d="M302.37 74.3652C304.023 64.8319 304.796 54.6852 309.676 46.1252C308.143 54.7252 304.97 62.9652 303.903 71.6585C300.263 99.9919 302.076 128.645 299.703 157.059C299.143 169.885 298.156 182.672 298.21 195.512C298.116 189.792 297.876 184.059 297.556 178.339C297.543 172.565 297.49 166.765 298.236 161.019C299.33 153.539 298.783 145.952 299.676 138.445C300.823 117.099 299.05 95.5785 302.37 74.3652Z" fill="#030402"/>
<path d="M245.663 106.045C250.103 117.112 249.049 129.352 250.836 140.952C252.596 151.939 250.836 163.139 252.543 174.125C253.836 183.965 252.61 193.925 253.636 203.779C254.263 209.472 254.663 215.192 254.596 220.912C244.156 222.259 233.756 223.952 223.276 224.845C224.716 223.965 226.316 223.325 228.036 223.272C236.436 222.485 244.69 220.659 253.103 219.992C253.37 203.019 251.583 186.072 251.396 169.099C250.116 148.045 249.383 126.872 245.663 106.045Z" fill="#030402"/>
<path d="M284.396 127.859C284.73 123.752 284.25 119.472 285.73 115.539C284.543 147.139 283.436 178.792 284.636 210.419C284.65 225.539 283.383 240.619 282.516 255.712C282.556 262.432 281.703 269.085 281.156 275.779C281.023 290.912 278.543 305.912 278.289 321.045C278.769 331.712 275.996 342.245 277.169 352.925C277.983 352.765 279.609 352.459 280.423 352.299C278.943 354.045 277.436 355.779 275.996 357.565C276.743 320.005 280.343 282.539 282.356 245.032C285.37 206.045 281.703 166.859 284.396 127.859Z" fill="#030402"/>
<path d="M185.49 132.405C187.516 132.219 189.556 131.885 191.609 132.059C196.263 132.765 200.983 133.125 205.689 132.885C200.436 135.992 194.076 134.459 188.289 134.659C186.689 134.992 186.17 133.472 185.49 132.405Z" fill="#030402"/>
<path d="M402.676 210.459C403.649 192.139 401.81 173.725 403.65 155.419C404.183 160.352 404.503 165.339 404.116 170.299C402.37 208.712 408.743 246.832 412.556 284.939C415.263 307.552 414.583 330.379 414.543 353.099C414.69 390.872 413.863 428.645 414.263 466.419C414.396 469.445 413.729 472.832 415.809 475.392C415.289 475.525 414.263 475.819 413.743 475.952C412.223 461.285 413.249 446.499 413.023 431.779C412.836 396.645 414.05 361.539 413.97 326.419C414.01 320.645 412.663 314.952 412.756 309.179C412.769 296.632 410.863 284.232 409.969 271.752C409.143 265.485 409.009 259.005 406.503 253.112C408.169 244.179 405.343 235.272 404.796 226.365C404.623 220.992 403.343 215.765 402.676 210.459Z" fill="#030402"/>
<path d="M16.3028 267.779C16.8095 263.992 18.5295 260.539 21.0895 257.739C20.3562 261.259 18.3962 264.352 17.4762 267.819C12.1028 305.899 14.3295 344.525 17.2628 382.712C15.2095 375.339 15.4095 367.619 14.4628 360.085C13.1162 350.672 14.3428 341.152 13.4095 331.712C12.2762 317.939 14.1962 304.192 13.8095 290.405C14.4095 282.845 15.0895 275.272 16.3028 267.779Z" fill="#030402"/>
<path d="M94.7029 268.952C95.7829 270.165 96.2895 271.725 96.6762 273.285C105.689 308.125 106.583 344.445 115.223 379.365C116.169 382.632 117.076 385.925 117.383 389.339C112.636 379.579 112.023 368.632 109.61 358.232C105.756 338.432 104.476 318.232 100.676 298.432C99.6762 288.405 96.2362 278.872 94.7029 268.952Z" fill="#030402"/>
<path d="M334.81 459.485C344.37 459.245 353.996 457.925 362.916 454.365C364.943 453.325 366.903 454.699 368.703 455.499C364.343 457.459 359.45 457.365 354.836 458.245C340.983 461.125 326.796 462.285 312.663 461.819C312.676 461.379 312.716 460.499 312.743 460.059C313.143 460.125 313.943 460.259 314.343 460.325C321.17 461.845 327.97 459.472 334.81 459.485Z" fill="#030402"/>
<path d="M414.863 655.939C419.17 654.525 422.556 651.419 426.423 649.192C426.423 649.819 426.409 651.072 426.409 651.699C423.943 654.059 421.196 656.125 418.356 658.019C409.89 663.019 401.316 668.072 391.996 671.352C397.369 666.392 404.383 663.405 410.503 659.392C412.023 658.592 413.476 657.619 414.569 656.272L414.863 655.939Z" fill="#030402"/>
<path d="M238.57 659.405C240.636 657.979 243.289 658.819 245.623 658.725C238.529 663.685 230.983 668.259 222.703 670.925C227.236 666.125 233.236 663.192 238.57 659.405Z" fill="#030402"/>
<path d="M230.143 673.352C234.49 670.872 239.65 671.139 244.156 669.112C243.943 669.699 243.529 670.872 243.329 671.458C244.263 671.658 246.13 672.072 247.063 672.272C231.423 677.525 215.61 682.178 199.716 686.552L198.756 686.245C199.356 685.819 200.543 684.978 201.13 684.552C200.73 684.178 199.903 683.432 199.503 683.072C199.329 682.819 198.983 682.312 198.81 682.059C209.543 680.259 219.636 676.045 230.143 673.352Z" fill="#030402"/>
<path d="M233.61 1080.5C241.503 1079.9 249.423 1080.3 257.329 1080.58C249.849 1083.25 241.17 1082.57 233.61 1080.5Z" fill="#030402"/>
<path d="M399.876 51.4052C404.889 66.5119 404.476 82.7519 405.756 98.4719C405.796 122.419 405.023 146.365 404.116 170.299C404.503 165.339 404.183 160.352 403.65 155.419C403.476 138.605 405.463 121.819 404.436 105.019C404.263 102.939 403.263 101.072 402.53 99.1652C404.423 90.9652 402.409 82.6852 402.623 74.4185C402.876 66.6052 399.969 59.1652 399.876 51.4052Z" fill="#030402"/>
<path d="M116.036 701.432C141.636 696.872 166.996 690.992 192.09 684.192C194.53 683.712 196.956 682.512 199.503 683.072C199.903 683.432 200.73 684.178 201.13 684.552C200.543 684.978 199.356 685.819 198.756 686.245L199.716 686.552L200.036 686.672C187.076 689.312 174.45 693.432 161.41 695.672C145.636 699.245 129.609 701.378 113.716 704.285C111.089 704.845 108.396 704.658 105.756 704.285C107.356 700.312 112.73 702.539 116.036 701.432Z" fill="#030402"/>
<path d="M656.143 833.499C659.276 818.299 663.89 803.365 669.57 788.952C669.01 796.379 665.476 803.125 664.316 810.432C663.863 813.299 662.956 816.072 661.516 818.605C658.836 823.245 659.036 828.925 656.143 833.499Z" fill="#030402"/>
<path d="M330.316 4.2852C335.423 1.73853 341.063 0.178535 346.81 0.111868C354.53 -0.0614652 362.73 -0.501466 369.796 3.2052C381.09 8.41853 389.063 18.9252 393.73 30.2052C396.476 37.0185 399.476 43.9652 399.876 51.4052C399.969 59.1652 402.876 66.6052 402.623 74.4185C402.409 82.6852 404.423 90.9652 402.53 99.1652C403.263 101.072 404.263 102.939 404.436 105.019C405.463 121.819 403.476 138.605 403.65 155.419C401.81 173.725 403.649 192.139 402.676 210.459C403.343 215.765 404.623 220.992 404.796 226.365C405.343 235.272 408.169 244.179 406.503 253.112C409.009 259.005 409.143 265.485 409.969 271.752C410.863 284.232 412.769 296.632 412.756 309.179C412.663 314.952 414.01 320.645 413.97 326.419C414.05 361.539 412.836 396.645 413.023 431.779C413.249 446.499 412.223 461.285 413.743 475.952C414.263 475.819 415.289 475.525 415.809 475.392C419.036 468.952 419.41 461.459 421.876 454.712C425.236 445.579 425.743 435.632 429.729 426.725C437.196 398.912 444.716 371.045 449.343 342.579L449.45 342.965C449.583 343.472 449.849 344.499 449.983 345.005C453.129 323.139 456.476 301.325 459.196 279.405C460.97 257.125 464.516 234.992 465.543 212.659C467.223 194.592 468.649 176.472 471.409 158.525C472.063 150.419 474.81 142.725 476.93 134.925C481.543 120.832 489.25 106.859 502.25 98.9252C513.703 92.2452 528.303 89.9252 540.849 94.8319C554.276 99.5919 563.69 111.725 569.05 124.485C574.623 136.859 575.783 150.512 578.556 163.645C581.57 182.232 582.756 201.125 581.903 219.939C581.343 233.672 578.623 247.312 579.503 261.085C580.93 280.152 582.57 299.219 582.676 318.352C583.663 328.179 582.463 338.019 582.37 347.859C581.45 362.299 580.543 376.872 577.116 390.992C576.01 397.485 574.796 403.979 573.276 410.405C570.53 425.032 568.996 439.845 566.476 454.512C565.983 459.152 564.583 463.685 564.623 468.365C564.383 468.379 563.903 468.379 563.663 468.379C563.69 472.912 562.836 477.379 561.956 481.819C560.263 490.405 559.943 499.272 557.45 507.712C556.316 511.605 555.556 515.619 555.409 519.685C554.609 550.792 555.89 581.925 555.25 613.045C554.783 620.139 554.036 627.219 553.303 634.299C552.37 642.845 549.61 651.032 548.37 659.539C543.503 659.712 538.076 660.832 534.036 657.365C536.316 639.072 541.009 621.032 541.156 602.512C541.409 580.099 540.303 557.645 542.116 535.285C542.196 534.139 542.236 533.019 542.25 531.885C541.93 522.499 542.116 513.045 543.329 503.725C543.503 495.459 543.983 487.165 545.916 479.085C547.249 462.525 550.063 446.085 554.023 429.939C555.143 420.965 558.503 412.325 558.463 403.232C553.876 403.085 549.33 404.259 544.783 403.912C540.783 402.859 536.543 402.779 532.756 401.032C534.596 400.512 536.489 399.885 538.409 399.632C541.436 399.939 544.663 400.672 547.53 399.205C551.703 397.219 556.383 398.152 560.836 398.139C561.383 392.472 563.809 387.019 563.316 381.259C563.289 372.445 565.503 363.805 566.396 355.045C569.05 338.112 569.77 320.779 567.876 303.712C567.676 293.032 565.983 282.405 566.703 271.725C567.69 259.645 568.89 247.365 566.796 235.339C565.996 227.152 565.503 218.859 566.25 210.645C565.636 214.045 565.13 217.459 564.77 220.885C565.983 208.045 563.343 195.259 563.423 182.405C563.516 173.685 562.09 165.059 561.956 156.352C560.436 140.925 557.623 123.925 545.809 112.779C539.783 106.565 530.996 104.885 522.903 103.125C515.103 104.899 508.356 110.059 502.716 115.565C499.396 119.192 495.116 122.699 494.37 127.859C488.836 157.819 483.103 187.912 482.196 218.459C481.183 229.992 481.89 241.579 481.796 253.112C479.236 262.725 476.343 272.312 475.263 282.272C466.103 334.992 455.903 387.539 446.156 440.165C443.263 456.992 439.956 473.752 436.516 490.485C434.076 493.392 430.17 495.419 426.423 493.659C425.236 492.285 424.236 490.765 423.196 489.312C419.636 492.872 415.01 489.645 410.823 489.779C407.703 489.885 404.836 488.832 402.049 487.605C398.796 487.045 395.476 487.232 392.21 487.112C386.236 486.792 380.636 489.605 374.676 489.419C377.463 485.899 382.45 485.872 386.45 484.699C391.01 483.419 395.93 483.725 400.41 482.605C400.85 479.205 400.663 475.765 400.663 472.365C396.89 472.472 393.156 473.059 389.45 473.752L388.863 473.539C388.41 473.392 387.516 473.099 387.063 472.939C385.49 472.472 383.596 472.699 382.45 471.352C387.89 467.259 395.076 466.299 400.97 462.885C401.343 443.165 402.61 423.459 402.516 403.725C402.316 396.299 403.25 388.925 403.303 381.512C404.783 347.979 402.716 314.392 398.796 281.085C398.263 277.992 398.463 274.859 399.223 271.832C398.596 270.819 397.983 269.805 397.383 268.792C396.49 266.019 396.663 262.992 396.356 260.112C396.61 252.739 394.01 245.299 395.543 238.019C396.263 237.539 397.703 236.592 398.423 236.112C397.103 236.165 395.796 236.205 394.503 236.245C394.17 228.499 393.356 220.792 392.943 213.059C392.89 186.859 392.836 160.645 393.41 134.459C393.09 120.192 393.276 105.912 392.036 91.6985C391.823 84.0185 391.49 76.2985 389.823 68.7652C387.01 53.3385 384.863 37.2185 376.343 23.6852C371.983 16.7785 364.903 10.3119 356.21 10.6985C342.57 9.6452 330.116 17.7385 321.196 27.3785C316.076 32.7919 313.25 39.7119 309.676 46.1252C304.796 54.6852 304.023 64.8319 302.37 74.3652C299.05 95.5785 300.823 117.099 299.676 138.445C298.783 145.952 299.33 153.539 298.236 161.019C297.49 166.765 297.543 172.565 297.556 178.339C297.183 187.059 297.45 195.845 296.37 204.499C295.97 206.005 295.65 207.512 295.41 209.045C294.21 253.472 296.676 297.965 294.85 342.392C295.356 350.272 292.703 358.085 294.263 365.939C294.863 382.939 293.423 400.059 295.329 417.019C295.383 431.312 297.209 445.499 296.889 459.805C296.569 469.232 298.85 479.565 293.916 488.179C291.823 492.352 286.863 492.752 282.956 494.125C279.956 493.632 276.996 492.939 274.036 492.325C273.276 490.405 272.516 488.485 271.756 486.579C270.223 486.325 268.703 486.085 267.183 485.859C267.929 485.565 269.436 484.979 270.196 484.685L270.85 483.979C273.236 481.352 272.383 477.645 272.69 474.432C272.823 466.419 273.943 458.432 273.623 450.432C269.089 401.965 263.97 353.565 259.783 305.072C257.156 278.859 255.463 252.565 254.183 226.259L253.436 226.179C245.436 225.165 237.396 226.152 229.396 226.619C227.143 227.059 225.09 226.072 223.276 224.845C233.756 223.952 244.156 222.259 254.596 220.912C254.663 215.192 254.263 209.472 253.636 203.779C252.61 193.925 253.836 183.965 252.543 174.125C250.836 163.139 252.596 151.939 250.836 140.952C249.049 129.352 250.103 117.112 245.663 106.045C243.889 100.285 241.689 94.6985 239.089 89.2585C238.489 86.2852 237.543 83.3919 235.903 80.8319C237.73 79.4052 239.556 77.9919 241.396 76.5785C250.596 85.6719 255.943 97.9252 258.69 110.405C260.97 120.085 260.903 130.032 262.249 139.845C263.769 163.792 262.05 187.819 263.903 211.765C264.583 218.965 264.356 226.232 265.41 233.405C268.263 267.005 269.356 300.765 272.663 334.325C273.009 343.672 274.503 352.939 274.69 362.285C274.943 362.565 275.463 363.125 275.73 363.405C275.796 361.499 274.743 359.205 275.996 357.565C277.436 355.779 275.689 354.672 277.169 352.925C277.983 352.765 276.356 353.085 277.169 352.925C275.996 342.245 278.769 331.712 278.289 321.045C278.543 305.912 281.023 290.912 281.156 275.779C281.703 269.085 282.556 262.432 282.516 255.712C283.383 240.619 284.65 225.539 284.636 210.419C283.436 178.792 284.543 147.139 285.73 115.539C286.17 101.712 288.223 87.9519 291.023 74.4185C294.143 64.0719 294.863 53.0852 299.103 43.0585C304.756 27.2719 314.57 11.5252 330.316 4.2852ZM532.423 95.8985C531.41 98.4319 534.13 99.9652 535.53 101.645C536.783 103.179 538.503 104.005 540.543 103.832C538.183 100.872 535.676 97.9119 532.423 95.8985ZM502.556 109.499C508.01 107.032 511.196 101.392 515.809 97.6985C515.249 97.3919 514.143 96.7652 513.583 96.4585C509.769 100.645 504.21 103.779 502.556 109.499ZM480.556 150.885C481.263 151.565 481.263 151.565 480.556 150.885ZM286.77 159.445C289.303 163.352 292.783 167.059 296.863 169.325C294.636 165.179 290.956 161.605 286.77 159.445ZM401.236 273.899C403.103 276.832 405.45 279.979 408.85 281.205C407.156 278.032 404.61 275.259 401.236 273.899Z" fill="#030402"/>
<path d="M154.849 97.6185C156.516 95.8985 157.676 93.8052 158.77 91.6985C161.956 93.6985 164.423 96.5385 166.103 99.8852C162.956 107.952 159.863 116.272 159.57 125.019C158.743 144.672 159.703 164.352 161.063 183.952C163.93 201.085 164.33 218.512 163.356 235.832C163.516 268.312 165.716 300.725 166.516 333.179C167.303 350.019 168.263 366.845 169.129 383.685C169.716 386.565 171.969 388.845 172.556 391.765C172.449 398.019 170.263 404.099 170.503 410.379C171.756 422.792 171.636 435.312 173.65 447.645C173.73 466.472 177.516 484.979 178.863 503.699C179.703 515.312 182.663 526.725 182.556 538.392C182.769 541.179 179.956 542.592 178.289 544.325C176.289 544.379 174.289 544.459 172.303 544.565C168.556 549.845 164.916 558.819 156.996 557.405C153.436 555.579 151.383 552.032 149.53 548.659C147.836 548.019 146.449 550.219 144.836 550.579C136.263 551.605 128.383 555.392 120.53 558.739C108.356 563.779 97.0762 570.632 85.3562 576.592C86.4362 575.125 87.5161 573.632 88.9561 572.512C106.036 558.139 126.53 547.859 148.156 542.379C149.156 536.885 147.369 530.845 147.343 525.139C135.316 495.379 126.076 464.592 115.183 434.419C111.543 422.765 107.716 411.165 105.049 399.232C103.863 393.565 101.756 388.032 101.756 382.179C101.756 378.339 100.983 374.552 99.9961 370.859C98.0361 370.352 96.0761 369.845 94.1295 369.339C95.3561 367.952 96.6095 366.592 97.8895 365.272C97.9428 364.245 97.9962 363.245 98.0628 362.245C97.5162 362.072 96.4228 361.739 95.8761 361.565C95.7028 359.499 95.7295 357.432 95.7828 355.365C96.0895 345.592 93.3295 336.072 92.5295 326.379C87.7828 302.392 82.8228 277.859 70.5162 256.419C67.6628 250.832 63.8095 245.885 60.2228 240.765C51.8095 238.019 42.1828 238.565 34.6362 243.405C28.8228 246.765 24.5695 252.099 21.0895 257.739C18.5295 260.539 16.8095 263.992 16.3028 267.779C15.0895 275.272 14.4095 282.845 13.8095 290.405C14.1962 304.192 12.2762 317.939 13.4095 331.712C14.3428 341.152 13.1162 350.672 14.4628 360.085C15.4095 367.619 15.2095 375.339 17.2628 382.712C19.5162 392.725 20.6895 402.939 22.8495 412.965C30.3695 448.139 44.3562 481.392 54.4495 515.819C60.5428 535.885 68.3562 555.925 68.8228 577.152C69.6228 594.072 66.6095 610.832 64.6895 627.579C64.4362 639.619 65.1028 651.659 65.1695 663.712C64.7695 671.752 66.5428 679.752 65.1428 687.765C64.7295 720.619 64.1428 753.499 65.3828 786.339C65.8228 790.459 63.3828 794.672 65.1828 798.672C66.6762 806.525 66.3962 814.579 67.5028 822.485C69.8228 841.712 72.1562 861.085 77.8362 879.672C79.5028 885.179 80.3161 890.979 82.8761 896.179C85.2628 901.032 86.1162 906.432 88.1028 911.458C96.7428 938.525 108.103 964.592 120.249 990.245C126.129 1002.06 132.276 1013.75 137.836 1025.74C141.476 1034.09 147.223 1041.27 151.596 1049.23C154.103 1054.65 159.516 1057.66 163.77 1061.54C168.09 1065.41 173.969 1066.81 178.316 1070.63C182.183 1073.98 187.303 1075.17 191.863 1077.26C197.69 1080.11 204.236 1077.7 210.356 1079.05C214.783 1080.01 220.049 1079.05 223.689 1082.22C219.223 1082.66 214.756 1082.33 210.329 1081.79C209.809 1082.5 208.769 1083.9 208.249 1084.59C202.769 1084.46 197.356 1082.3 191.889 1083.53C186.623 1084.43 181.343 1083.07 176.183 1082.18C167.236 1079.11 160.756 1071.93 153.583 1066.15C154.716 1072.94 157.049 1079.47 158.183 1086.29C158.169 1091.99 165.996 1091.77 167.129 1096.85C171.889 1111.06 173.676 1126.11 174.543 1141.02C176.303 1157.09 173.983 1173.18 172.836 1189.19C172.796 1190.9 172.33 1192.58 171.77 1194.21C171.85 1184.97 171.596 1175.73 171.49 1166.5C170.783 1154.3 168.69 1142.23 167.036 1130.15C166.21 1124.37 165.596 1118.47 163.543 1112.97C163.449 1121.57 163.863 1130.31 165.836 1138.73C165.623 1153.29 164.183 1168.38 157.916 1181.77C156.796 1184.9 153.023 1185.55 150.263 1184.27C148.063 1182.03 147.956 1178.59 147.556 1175.66C146.249 1157.49 148.809 1139.21 146.556 1121.09C145.543 1111.53 145.97 1101.51 141.943 1092.58C137.983 1078.82 134.409 1064.94 130.129 1051.29C122.489 1027.75 110.343 1006.1 100.329 983.552C85.2228 950.539 73.2095 916.139 64.0628 881.005C53.2895 839.565 47.4095 796.965 44.6762 754.272C44.2228 738.339 43.0628 722.379 44.3028 706.432C44.7028 696.659 44.4095 686.859 45.5028 677.125C47.0228 660.205 47.6495 643.139 51.0362 626.459C52.9162 618.032 51.3162 609.405 50.5562 600.952C47.7428 571.245 42.5562 541.792 34.7962 512.979C27.9028 488.965 22.1295 464.672 15.8762 440.485C14.2495 432.645 11.3962 425.059 10.9428 417.019C8.7695 401.912 5.90283 386.885 4.14283 371.725C3.11616 358.379 1.95615 345.045 1.04948 331.685C1.00948 312.299 0.44949 292.845 3.18282 273.592C5.78282 253.152 21.7162 236.405 40.3162 228.765C45.9295 226.405 52.2495 226.752 58.1828 227.325C77.3428 232.245 90.6495 250.272 94.7029 268.952C96.2362 278.872 99.6762 288.405 100.676 298.432C104.476 318.232 105.756 338.432 109.61 358.232C112.023 368.632 112.636 379.579 117.383 389.339C127.143 421.485 140.143 452.539 150.903 484.352C151.823 487.445 152.53 490.699 154.41 493.405C154.383 490.325 154.143 487.272 153.943 484.205C153.703 471.205 153.583 458.179 154.57 445.192C155.276 437.165 157.623 429.192 156.53 421.072C155.423 410.459 155.809 399.752 154.956 389.112C154.516 384.285 154.276 379.445 154.329 374.619C154.916 361.579 153.143 348.632 152.556 335.645C151.609 322.352 151.65 309.019 151.743 295.699C152.623 271.725 151.689 247.739 150.689 223.792C150.076 207.779 150.289 191.739 150.089 175.712C149.969 170.312 150.649 164.819 149.436 159.485C146.036 140.419 146.236 120.285 152.676 101.859C153.223 100.365 153.743 98.8052 154.849 97.6185ZM75.9161 917.392C79.8761 915.872 82.7028 912.419 84.7561 908.845C81.0361 910.685 78.3428 914.099 75.9161 917.392Z" fill="#030402"/>
<path d="M530.063 477.872C531.556 477.779 533.076 477.859 534.596 477.885C527.116 479.912 521.756 485.939 514.623 488.685C507.116 491.885 499.103 494.552 490.903 494.872C491.596 494.259 492.41 493.939 493.356 493.899C500.53 493.059 507.196 490.059 513.876 487.472L514.89 485.339C502.97 488.205 490.823 490.339 478.516 490.005C486.01 487.859 493.996 488.925 501.556 486.992C511.25 484.752 521.516 483.312 530.063 477.872Z" fill="#030402"/>
<path d="M664.609 535.099C666.543 534.685 669.169 537.432 668.769 539.325C666.609 540.192 663.556 537.232 664.609 535.099Z" fill="#030402"/>
<path d="M673.596 571.765C674.369 570.179 675.276 568.645 676.223 567.152C676.316 569.112 676.37 571.085 676.37 573.059C675.53 577.912 675.316 582.859 675.796 587.765L675.876 588.672C675.369 591.072 674.876 593.485 674.13 595.832L673.796 596.472C670.223 588.739 673.263 579.899 673.596 571.765Z" fill="#030402"/>
<path d="M666.409 569.939C667.023 569.819 668.25 569.592 668.863 569.472C668.876 570.232 668.903 571.739 668.916 572.485C668.863 577.632 668.81 582.792 669.196 587.939C668.503 584.312 667.93 580.672 667.516 577.019C666.97 582.459 666.77 587.939 666.036 593.365C666.17 586.365 666.263 579.365 666.329 572.379C666.356 571.765 666.396 570.539 666.409 569.939Z" fill="#030402"/>
<path d="M659.943 594.232C660.13 593.832 660.503 593.032 660.69 592.632C660.196 604.072 663.076 615.379 662.156 626.805C658.889 620.045 659.543 612.232 659.476 604.925C659.529 601.352 659.516 597.765 659.943 594.232Z" fill="#030402"/>
<path d="M534.956 663.552C537.93 661.872 541.209 660.699 544.676 661.379C544.583 664.205 544.809 667.125 546.583 669.485C546.543 671.205 546.57 672.939 546.543 674.685C546.143 675.312 545.33 676.579 544.93 677.205C544.73 683.499 544.663 689.925 546.423 696.032C547.65 700.845 551.37 704.459 553.036 709.099C552.17 710.779 551.529 712.565 551.169 714.432C555.556 710.739 561.41 713.125 566.53 711.685C566.463 710.739 566.396 709.805 566.356 708.885C569.823 707.819 573.223 706.525 576.623 705.205C578.636 709.712 573.103 711.005 570.329 713.152C570.129 714.845 569.783 716.552 568.556 717.832C568.73 718.725 568.916 719.619 569.116 720.512C567.21 720.885 565.316 721.259 563.436 721.645C561.916 724.112 560.583 726.752 558.556 728.859C554.983 730.285 551.103 730.712 547.476 731.939C544.063 738.699 535.063 735.459 530.543 740.845C523.676 743.739 521.69 751.939 514.89 754.939C514.796 753.685 514.636 751.165 514.556 749.912C514.623 749.445 514.756 748.512 514.823 748.059L515.97 747.965C516.676 747.912 518.103 747.792 518.809 747.739C524.516 739.845 529.663 731.259 537.583 725.312C537.609 724.339 537.663 722.365 537.69 721.379C539.89 720.952 542.156 720.712 544.29 719.939C547.236 719.192 545.636 715.712 545.956 713.552C544.836 713.099 543.73 712.659 542.636 712.232C542.05 706.152 536.876 701.805 536.316 695.725C535.676 691.445 534.703 687.219 534.13 682.925C533.343 676.432 535.45 670.045 534.956 663.552Z" fill="#030402"/>
<path d="M179.956 68.5519C182.489 67.0052 185.143 65.6452 187.849 64.3785C211.016 58.5719 227.343 66.3519 227.343 66.3519L219.81 74.5252C209.783 72.7519 196.129 73.7252 186.916 78.0852C184.636 74.8719 182.316 71.6985 179.956 68.5519Z" fill="#030402"/>
<path d="M227.343 66.3519C232.423 69.1652 237.183 72.5652 241.396 76.5785C239.556 77.9919 237.73 79.4052 235.903 80.8319C237.543 83.3919 238.489 86.2852 239.089 89.2585C235.743 86.2319 233.423 82.1119 229.516 79.6985C226.396 77.7652 222.876 76.5652 219.81 74.5252C222.063 71.5652 227.343 66.3519 227.343 66.3519Z" fill="#030402"/>
<path d="M160.543 86.4852C165.876 79.3919 172.423 73.2585 179.956 68.5519C182.316 71.6985 184.636 74.8719 186.916 78.0852C179.929 81.6585 173.423 86.5919 169.356 93.4052C165.236 92.8985 162.569 89.8319 160.543 86.4852Z" fill="#030402"/>
<path d="M389.823 68.7652C391.49 76.2985 391.823 84.0185 392.036 91.6985C393.276 105.912 393.09 120.192 393.41 134.459C392.836 160.645 392.89 186.859 392.943 213.059C393.356 220.792 394.17 228.499 394.503 236.245C395.796 236.205 397.103 236.165 398.423 236.112C397.703 236.592 396.263 237.539 395.543 238.019C394.01 245.299 396.61 252.739 396.356 260.112C394.556 256.965 395.183 253.152 394.596 249.699C389.81 203.405 393.676 156.872 392.29 110.445C391.73 104.219 391.37 97.9785 391.303 91.7252C391.29 84.0452 389.703 76.4585 389.823 68.7652Z" fill="#030402"/>
<path d="M337.49 83.7519C347.756 82.2852 357.21 77.5385 367.41 75.8185C364.716 78.8585 360.649 80.0185 357.049 81.6052C348.689 84.4319 339.743 86.0185 330.916 85.3785C332.863 84.1252 335.276 84.2319 337.49 83.7519Z" fill="#030402"/>
<path d="M349.343 90.2719C355.143 88.2585 359.97 84.2585 365.743 82.1919C365.41 83.6052 364.676 84.7519 363.57 85.6319C355.956 91.9252 346.023 95.3385 336.156 95.2852C336.33 94.9385 336.69 94.2452 336.863 93.8985C340.916 92.3385 345.276 91.7919 349.343 90.2719Z" fill="#030402"/>
<path d="M220.716 124.432C224.983 123.152 228.903 120.699 233.383 120.152C225.916 127.205 215.716 131.179 205.689 132.885C200.983 133.125 196.263 132.765 191.609 132.059C201.396 129.872 211.316 128.059 220.716 124.432Z" fill="#030402"/>
<path d="M517.503 245.032C525.156 243.365 532.716 240.592 540.623 240.685C539.25 244.565 534.276 244.432 531.023 245.712C524.209 246.912 517.476 250.205 510.476 249.165C511.343 246.059 514.969 245.912 517.503 245.032Z" fill="#030402"/>
<path d="M516.423 508.499C518.796 505.139 522.516 502.899 525.583 500.165C526.223 500.165 527.49 500.139 528.13 500.139C525.89 504.739 521.023 506.939 516.423 508.499Z" fill="#030402"/>
<path d="M597.863 714.139C599.21 715.485 600.116 717.165 600.903 718.912C604.276 726.605 609.303 733.445 614.849 739.712C619.489 744.952 625.156 749.179 629.676 754.539C627.316 753.619 624.983 752.605 622.876 751.205C616.236 746.339 610.623 740.125 606.263 733.152C602.569 727.259 599.423 720.939 597.863 714.139Z" fill="#030402"/>
<path d="M154.849 97.6185C155.556 93.3919 158.303 90.0052 160.543 86.4852C162.569 89.8319 165.236 92.8985 169.356 93.4052C168.316 95.5919 167.209 97.7385 166.103 99.8852C164.423 96.5385 161.956 93.6985 158.77 91.6985C157.676 93.8052 156.516 95.8985 154.849 97.6185Z" fill="#030402"/>
<path d="M349.423 99.2185C354.503 97.4452 358.463 92.8185 363.943 92.4185C358.756 100.699 348.223 104.779 338.716 104.592C341.023 101.099 346.076 101.392 349.423 99.2185Z" fill="#030402"/>
<path d="M532.423 95.8985C535.676 97.9119 538.183 100.872 540.543 103.832C538.503 104.005 536.783 103.179 535.53 101.645C534.13 99.9652 531.41 98.4319 532.423 95.8985Z" fill="#030402"/>
<path d="M502.556 109.499C504.21 103.779 509.769 100.645 513.583 96.4585C514.143 96.7652 515.249 97.3919 515.809 97.6985C511.196 101.392 508.01 107.032 502.556 109.499Z" fill="#030402"/>
<path d="M346.983 109.379C349.73 108.459 352.543 107.739 355.45 107.499C354.37 110.565 350.89 110.605 348.276 111.472C347.956 110.939 347.303 109.899 346.983 109.379Z" fill="#030402"/>
<path d="M258.69 110.405C261.183 113.872 260.783 118.419 261.45 122.445C265.463 148.872 262.796 175.685 264.023 202.272C265.156 212.605 265.263 223.019 265.41 233.405C264.356 226.232 264.583 218.965 263.903 211.765C262.05 187.819 263.769 163.792 262.249 139.845C260.903 130.032 260.97 120.085 258.69 110.405Z" fill="#030402"/>
<path d="M219.49 133.499C222.13 132.285 225.076 132.219 227.93 132.099C227.716 132.699 227.29 133.885 227.076 134.485C217.343 138.859 206.93 142.965 196.036 142.072C196.543 140.685 197.516 139.819 198.943 139.459C205.743 137.299 212.93 136.432 219.49 133.499Z" fill="#030402"/>
<path d="M202.209 149.832C206.503 148.565 210.37 145.912 214.863 145.485C212.25 150.299 206.529 151.805 201.423 151.472C201.609 151.059 202.009 150.245 202.209 149.832Z" fill="#030402"/>
<path d="M209.609 339.232C216.676 337.939 223.649 335.179 230.916 335.512C231.196 336.045 231.783 337.099 232.076 337.619C224.103 340.872 215.53 342.525 206.983 343.272C200.663 344.045 194.516 346.178 188.089 345.885C189.023 343.832 191.489 343.699 193.383 343.152C198.836 342.005 204.129 340.205 209.609 339.232Z" fill="#030402"/>
<path d="M474.77 648.859C482.623 643.499 492.303 641.819 501.583 640.819C504.396 640.739 507.89 640.112 509.956 642.579C503.57 643.232 497.196 644.059 490.85 645.005C485.37 645.819 480.25 648.139 474.77 648.859Z" fill="#030402"/>
<path d="M428.103 657.085C436.583 652.525 445.663 648.965 455.116 647.045C454.89 649.459 452.449 649.832 450.663 650.485C443.383 652.605 436.836 656.699 429.463 658.512C429.116 658.152 428.436 657.432 428.103 657.085Z" fill="#030402"/>
<path d="M342.716 152.819C347.263 149.219 353.103 147.992 358.236 145.445C358.25 146.085 358.276 147.379 358.29 148.019C353.156 149.765 348.236 152.472 342.716 152.819Z" fill="#030402"/>
<path d="M316.609 307.219C337.036 303.819 358.103 301.085 378.609 305.552C379.836 305.885 380.943 306.485 381.93 307.325C360.236 307.592 338.33 304.845 316.77 308.445C316.73 308.139 316.649 307.525 316.609 307.219Z" fill="#030402"/>
<path d="M230.343 382.099C238.689 380.325 245.396 374.445 253.503 372.179C248.209 377.219 241.023 378.979 234.57 381.939C226.93 384.645 219.023 387.232 210.823 387.152C204.33 387.165 197.85 386.912 191.37 387.045C190.983 386.712 190.223 386.045 189.836 385.712C195.529 385.765 201.21 386.099 206.903 385.859C214.85 385.485 222.556 383.432 230.343 382.099Z" fill="#030402"/>
<path d="M252.023 603.579C256.649 596.299 265.169 592.819 272.209 588.339C266.596 593.659 261.063 599.245 254.329 603.152C253.756 603.259 252.609 603.472 252.023 603.579Z" fill="#030402"/>
<path d="M715.33 663.565C717.73 666.699 717.01 670.952 717.37 674.659C714.21 671.952 715.33 667.205 715.33 663.565Z" fill="#030402"/>
<path d="M356.863 157.579C363.69 154.712 369.303 149.712 375.93 146.459C375.556 149.085 373.37 150.739 371.583 152.432C360.036 162.299 344.45 166.765 329.396 165.699C328.05 165.632 326.836 165.019 325.596 164.579C336.21 163.432 347.21 162.565 356.863 157.579Z" fill="#030402"/>
<path d="M480.556 150.885C481.263 151.565 481.263 151.565 480.556 150.885Z" fill="#030402"/>
<path d="M322.756 171.312C342.863 170.312 361.77 162.912 379.903 154.725C380.423 157.672 376.996 158.552 375.169 160.045C362.183 167.699 347.036 171.125 332.063 171.565C329.036 171.592 325.329 173.499 322.756 171.312Z" fill="#030402"/>
<path d="M149.436 159.485C150.649 164.819 149.969 170.312 150.089 175.712C150.289 191.739 150.076 207.779 150.689 223.792C151.689 247.739 152.623 271.725 151.743 295.699C151.65 309.019 151.609 322.352 152.556 335.645C153.143 348.632 154.916 361.579 154.329 374.619C153.476 355.899 150.983 337.245 151.116 318.472C150.756 292.712 152.21 266.912 150.45 241.179C149.89 213.952 149.023 186.712 149.436 159.485Z" fill="#030402"/>
<path d="M296.863 169.325C294.636 165.179 290.956 161.605 286.77 159.445C289.303 163.352 292.783 167.059 296.863 169.325Z" fill="#030402"/>
<path d="M352.29 171.792C359.783 170.352 366.903 166.885 374.61 166.792C377.143 166.725 376.476 169.565 374.863 170.299C362.37 177.259 347.596 178.592 333.543 178.605C328.97 177.752 323.596 178.925 319.65 176.059C330.49 174.352 341.69 174.992 352.29 171.792Z" fill="#030402"/>
<path d="M37.6362 307.752C48.8228 302.619 59.1962 295.459 71.0228 291.885C67.9295 296.845 62.2362 299.299 57.4095 302.232C47.6362 307.179 37.2362 310.832 26.6495 313.645C29.7695 310.792 34.0228 309.792 37.6362 307.752Z" fill="#030402"/>
<path d="M505.943 177.939C515.93 177.779 525.623 174.979 535.103 172.072C534.596 174.659 531.676 175.032 529.649 175.939C521.996 178.739 513.823 179.552 505.729 179.325C505.783 178.979 505.89 178.285 505.943 177.939Z" fill="#030402"/>
<path d="M521.943 185.552C526.249 183.659 530.143 180.672 534.863 179.845C529.65 187.459 519.436 189.485 510.809 190.739C508.756 190.592 505.329 192.325 504.436 189.565C510.343 188.672 516.476 188.205 521.943 185.552Z" fill="#030402"/>
<path d="M42.6761 327.419C47.5161 320.979 53.5828 315.045 60.7428 311.219C61.3962 313.445 59.2761 314.832 58.0895 316.312C54.2628 320.072 50.1028 323.485 45.8895 326.792C45.0895 326.952 43.4895 327.272 42.6761 327.419Z" fill="#030402"/>
<path d="M209.49 495.819C219.063 491.339 228.836 487.205 239.01 484.259C240.01 484.192 241.983 484.059 242.983 483.992C237.37 488.139 230.57 490.419 224.276 493.365C217.503 495.512 211.076 499.139 203.863 499.525C205.57 498.045 207.436 496.765 209.49 495.819Z" fill="#030402"/>
<path d="M662.116 649.032C665.25 653.619 669.169 657.592 673.263 661.339C679.583 666.805 686.85 671.045 694.05 675.259C697.89 677.565 702.449 679.419 704.649 683.619C700.716 683.499 696.716 683.059 693.116 681.392C679.636 675.099 668.303 664.725 659.69 652.712C660.303 651.792 661.516 649.952 662.116 649.032Z" fill="#030402"/>
<path d="M510.689 195.752C517.609 193.792 524.556 190.699 531.903 191.245C531.476 193.779 528.676 194.032 526.809 194.859C521.129 196.645 515.21 197.579 509.303 198.019C509.65 197.459 510.343 196.325 510.689 195.752Z" fill="#030402"/>
<path d="M295.41 209.045C295.65 207.512 295.97 206.005 296.37 204.499C297.103 224.685 296.45 244.925 296.69 265.139C296.596 288.445 297.996 311.779 296.476 335.059C295.063 345.285 296.423 355.845 294.263 365.939C292.703 358.085 295.356 350.272 294.85 342.392C296.676 297.965 294.21 253.472 295.41 209.045Z" fill="#030402"/>
<path d="M219.009 211.299C222.636 209.819 226.756 208.072 230.689 209.365C235.543 211.085 240.716 208.712 245.623 210.032L246.649 212.085C246.089 212.272 244.956 212.659 244.396 212.859C235.396 214.032 226.276 214.045 217.303 215.392C213.076 217.339 209.023 219.925 204.383 220.792C203.689 220.739 202.303 220.619 201.609 220.552C206.929 216.632 213.036 214.019 219.009 211.299Z" fill="#030402"/>
<path d="M195.316 217.419C199.743 214.739 204.489 212.605 209.289 210.645C210.103 210.645 211.743 210.645 212.556 210.632C208.823 214.872 203.196 216.432 198.623 219.499C195.863 221.245 192.823 222.499 189.676 223.325C189.903 220.179 193.023 218.952 195.316 217.419Z" fill="#030402"/>
<path d="M369.556 434.552C373.383 428.965 377.876 423.272 383.783 419.845C383.97 423.672 380.396 425.792 377.943 428.112C375.156 430.272 372.809 433.059 369.556 434.552Z" fill="#030402"/>
<path d="M569.69 926.592C573.89 921.179 577.863 915.192 583.876 911.619C584.676 915.325 581.303 917.792 579.983 920.899C577.77 925.752 574.476 930.925 569.463 933.152C570.05 931.752 570.676 930.379 571.316 929.019C570.903 928.405 570.09 927.192 569.69 926.592Z" fill="#030402"/>
<path d="M514.023 989.458C517.77 994.085 512.849 999.845 512.903 1005.06C512.236 1005.37 510.89 1005.98 510.223 1006.29C510.743 1000.54 511.716 994.778 514.023 989.458Z" fill="#030402"/>
<path d="M217.303 215.392C226.276 214.045 235.396 214.032 244.396 212.859C242.956 214.259 240.903 214.472 239.023 214.752C231.823 215.725 224.543 215.419 217.303 215.392Z" fill="#030402"/>
<path d="M464.85 214.485C465.023 214.032 465.37 213.112 465.543 212.659C464.516 234.992 460.97 257.125 459.196 279.405C456.476 301.325 453.129 323.139 449.983 345.005C449.849 344.499 449.583 343.472 449.45 342.965C450.97 326.272 454.529 309.765 456.249 293.072C458.383 278.445 459.183 263.659 461.61 249.072C462.463 237.525 463.703 226.005 464.85 214.485Z" fill="#030402"/>
<path d="M182.609 237.779C193.276 227.285 209.343 226.139 223.276 224.845C225.09 226.072 227.143 227.059 229.396 226.619C237.396 226.152 245.436 225.165 253.436 226.179C250.823 226.805 248.116 226.845 245.45 226.939C233.89 227.125 222.449 228.992 210.956 230.045C201.289 231.512 191.049 232.352 182.609 237.779Z" fill="#030402"/>
<path d="M520.823 469.579C526.543 465.952 530.049 459.805 535.583 455.952C533.169 465.085 524.236 472.899 514.756 473.912C516.409 472.005 518.756 470.952 520.823 469.579Z" fill="#030402"/>
<path d="M498.116 242.192C508.65 237.779 519.423 232.819 530.983 232.245C530.569 232.645 529.729 233.445 529.316 233.845C519.423 238.885 508.729 241.939 498.023 244.685C498.049 244.059 498.09 242.805 498.116 242.192Z" fill="#030402"/>
<path d="M566.796 235.339C568.89 247.365 567.69 259.645 566.703 271.725C565.983 282.405 567.676 293.032 567.876 303.712C569.77 320.779 569.05 338.112 566.396 355.045C566.076 341.125 569.57 327.125 567.623 313.165C567.09 307.579 567.49 301.939 566.543 296.379C565.41 285.499 566.116 274.539 566.076 263.619C565.77 263.219 565.183 262.419 564.876 262.019C564.556 261.579 563.916 260.699 563.596 260.259C564.396 260.432 566.023 260.765 566.836 260.939C568.636 252.392 565.276 243.805 566.796 235.339Z" fill="#030402"/>
<path d="M531.983 248.845C538.196 247.539 544.876 246.112 550.983 248.685C548.369 250.845 544.743 250.792 541.543 250.979C536.583 251.099 531.623 251.352 526.676 251.192C527.809 249.365 530.116 249.365 531.983 248.845Z" fill="#030402"/>
<path d="M498.836 254.032C511.343 253.472 523.756 255.499 536.21 256.339C538.05 256.472 539.983 256.525 541.703 257.352C530.996 257.792 520.436 255.499 509.743 255.405C509.969 256.099 510.41 256.579 511.063 256.859C523.623 258.032 536.396 258.739 548.649 261.912C535.636 261.139 522.796 258.445 509.77 257.899C506.156 256.525 502.09 256.165 498.836 254.032Z" fill="#030402"/>
<path d="M511.063 256.859C510.41 256.579 509.969 256.099 509.743 255.405C520.436 255.499 530.996 257.792 541.703 257.352C548.85 257.219 555.916 258.339 562.97 259.405L563.596 260.259C563.916 260.699 564.556 261.579 564.876 262.019C559.823 264.072 553.889 262.925 548.649 261.912C536.396 258.739 523.623 258.032 511.063 256.859Z" fill="#030402"/>
<path d="M397.383 268.792C397.983 269.805 398.596 270.819 399.223 271.832C398.463 274.859 398.263 277.992 398.796 281.085C402.716 314.392 404.783 347.979 403.303 381.512C402.303 372.499 403.276 363.445 403.103 354.419C401.769 341.152 402.809 327.752 400.929 314.525C400.196 299.245 397.516 284.099 397.383 268.792Z" fill="#030402"/>
<path d="M2.26283 273.499L3.18282 273.592C0.44949 292.845 1.00948 312.299 1.04948 331.685C1.95615 345.045 3.11616 358.379 4.14283 371.725C5.90283 386.885 8.7695 401.912 10.9428 417.019C10.8228 417.699 10.5695 419.045 10.4495 419.725C8.30283 409.792 7.3695 399.645 5.22283 389.712C3.58283 379.765 3.30283 369.659 1.82283 359.699C0.0361638 346.445 0.516179 333.059 0.276179 319.739C0.0361794 304.325 -0.763834 288.712 2.26283 273.499Z" fill="#030402"/>
<path d="M408.85 281.205C407.156 278.032 404.61 275.259 401.236 273.899C403.103 276.832 405.45 279.979 408.85 281.205Z" fill="#030402"/>
<path d="M368.716 284.299C370.21 283.499 371.81 283.325 373.516 283.765C375.596 284.165 373.916 286.739 372.436 286.205C371.183 285.712 369.943 285.245 368.703 284.765L368.716 284.299Z" fill="#030402"/>
<path d="M357.729 288.539C359.676 285.072 365.263 285.725 368.703 284.765C369.943 285.245 371.183 285.712 372.436 286.205C367.53 286.952 362.649 287.885 357.729 288.539Z" fill="#030402"/>
<path d="M267.53 658.952C270.903 658.218 274.396 658.619 277.809 658.779C276.489 660.205 274.783 661.152 273.009 661.898C264.423 665.512 256.076 669.805 247.063 672.272C246.13 672.072 244.263 671.658 243.329 671.458C243.529 670.872 243.943 669.699 244.156 669.112C251.863 665.512 260.023 662.965 267.53 658.952Z" fill="#030402"/>
<path d="M350.623 299.405C360.476 293.579 372.863 291.445 384.089 294.085C383.223 295.125 382.036 295.725 380.689 295.805C375.649 296.365 370.569 296.099 365.543 296.805C360.516 297.392 355.676 299.032 350.623 299.405Z" fill="#030402"/>
<path d="M65.1028 300.752C67.2495 299.605 69.5695 298.832 72.0228 298.752C62.3028 308.445 49.8628 314.699 37.7695 320.872C37.4495 318.339 39.9162 317.192 41.5562 315.805C49.1162 310.365 56.7962 305.005 65.1028 300.752Z" fill="#030402"/>
<path d="M491.196 382.925C505.276 383.805 519.383 382.539 533.45 383.232C531.21 384.899 528.196 384.592 525.596 385.085C514.156 386.565 502.716 384.992 491.303 384.272C491.276 383.939 491.223 383.272 491.196 382.925Z" fill="#030402"/>
<path d="M382.263 448.579C385.276 446.525 388.236 443.739 392.169 444.072C389.796 449.339 384.263 452.205 379.423 454.872C372.009 458.592 365.716 464.379 357.93 467.365C365.743 460.712 374.076 454.739 382.263 448.579Z" fill="#030402"/>
<path d="M666.036 593.365C666.77 587.939 666.97 582.459 667.516 577.019C667.93 580.672 668.503 584.312 669.196 587.939C670.716 599.472 670.196 611.205 668.596 622.712C667.396 622.005 666.13 621.245 666.37 619.645C665.903 610.899 664.69 602.085 666.036 593.365Z" fill="#030402"/>
<path d="M354.836 344.139C365.556 341.605 374.25 333.179 385.49 332.565C387.263 332.765 391.463 332.512 390.383 335.365C370.81 341.045 351.743 351.179 330.81 349.912C326.33 349.579 321.343 349.992 317.57 347.072C330.023 346.952 342.769 348.005 354.836 344.139Z" fill="#030402"/>
<path d="M181.45 356.619C202.116 349.272 224.303 343.845 246.356 346.365C244.49 347.579 242.636 349.112 240.289 349.139C226.343 350.259 212.276 351.045 198.543 353.939C192.889 355.059 187.29 356.805 181.45 356.619Z" fill="#030402"/>
<path d="M246.356 346.365C248.796 344.272 249.756 349.845 246.796 349.205C233.076 351.232 219.209 351.712 205.476 353.685C203.169 353.979 200.849 353.952 198.543 353.939C212.276 351.045 226.343 350.259 240.289 349.139C242.636 349.112 244.49 347.579 246.356 346.365Z" fill="#030402"/>
<path d="M95.7828 355.365C95.7295 357.432 95.7028 359.499 95.8761 361.565L95.9695 362.725C90.1428 368.952 81.8762 371.619 74.5162 375.485C64.7562 379.845 54.7428 385.605 43.6362 384.312C43.3962 384.085 42.9161 383.632 42.6761 383.392C48.1295 381.952 53.3295 379.752 58.7161 378.139C68.5561 375.099 77.4228 369.725 86.2628 364.579C90.2095 362.405 93.0628 358.859 95.7828 355.365Z" fill="#030402"/>
<path d="M246.37 357.659C249.396 356.779 253.849 354.712 255.916 358.352C251.196 362.645 244.583 361.592 238.756 361.819C240.196 359.005 243.77 358.819 246.37 357.659Z" fill="#030402"/>
<path d="M371.063 443.605C373.25 438.725 378.01 435.645 381.516 431.765C380.743 437.232 375.21 440.565 371.063 443.605Z" fill="#030402"/>
<path d="M46.6761 389.605C63.0895 384.965 80.5428 380.672 93.7295 369.232L94.1295 369.339C96.0761 369.845 98.0361 370.352 99.9961 370.859C100.983 374.552 101.756 378.339 101.756 382.179C101.463 383.525 101.17 384.872 100.863 386.219C101.45 381.392 99.7562 376.739 99.2362 371.992C81.5028 384.552 59.6495 388.125 38.8495 392.499C40.7028 390.232 44.1428 390.632 46.6761 389.605Z" fill="#030402"/>
<path d="M562.236 379.685C562.503 380.085 563.049 380.872 563.316 381.259C563.809 387.019 561.383 392.472 560.836 398.139C556.383 398.152 551.703 397.219 547.53 399.205C544.663 400.672 541.436 399.939 538.409 399.632C545.143 396.472 552.903 397.939 560.103 397.365C560.303 391.405 562.169 385.659 562.236 379.685Z" fill="#030402"/>
<path d="M469.836 388.125C473.57 389.779 476.903 392.179 480.436 394.232C491.756 400.312 504.636 403.805 517.556 403.005C522.663 402.845 527.676 401.645 532.756 401.032C536.543 402.779 540.783 402.859 544.783 403.912C524.21 406.979 501.903 408.179 482.916 398.205C478.25 395.405 472.703 392.965 469.836 388.125Z" fill="#030402"/>
<path d="M378.37 441.925C380.783 439.085 383.076 435.832 386.716 434.485C386.356 439.992 380.89 442.765 377.556 446.459C374.73 449.592 370.45 451.512 368.703 455.499C366.903 454.699 364.943 453.325 362.916 454.365C353.996 457.925 344.37 459.245 334.81 459.485C327.97 459.472 321.17 461.845 314.343 460.325C327.063 455.472 341.076 454.365 354.596 455.099C351.129 454.752 347.703 454.285 344.289 453.685C351.903 454.392 359.556 453.752 367.183 453.979C371.169 450.205 374.903 446.179 378.37 441.925Z" fill="#030402"/>
<path d="M366.97 467.845C376.85 464.432 384.903 457.512 393.556 451.939C394.183 452.152 395.436 452.579 396.063 452.792C391.383 460.005 383.65 464.325 375.943 467.632C368.636 470.619 361.61 475.272 353.423 475.152C357.01 471.312 362.21 469.699 366.97 467.845Z" fill="#030402"/>
<path d="M387.583 1125.94C389.156 1121.43 389.396 1116.53 391.65 1112.26C391.53 1120.9 386.396 1128.87 387.676 1137.67C388.49 1137.62 390.116 1137.51 390.916 1137.45C391.69 1141.19 389.916 1145.17 389.85 1149.02C388.996 1152.57 389.73 1156.89 387.183 1159.83C386.183 1155.81 386.503 1151.65 386.25 1147.57C386.063 1148.38 385.69 1150.03 385.503 1150.85C382.316 1153.14 382.41 1147.77 382.01 1145.85C382.863 1145.54 384.57 1144.93 385.423 1144.61C389.236 1142.1 386.983 1136.58 386.716 1132.87C386.316 1130.5 386.783 1128.15 387.583 1125.94Z" fill="#030402"/>
<path d="M365.543 478.405C370.809 475.605 376.329 473.325 381.716 470.779L382.45 471.352C383.596 472.699 385.49 472.472 387.063 472.939C387.516 473.099 388.41 473.392 388.863 473.539C380.356 478.779 370.623 481.285 361.596 485.379C346.396 490.965 328.369 495.779 313.436 486.819C323.796 487.325 334.463 488.605 344.569 485.445C351.556 483.125 358.569 480.819 365.543 478.405Z" fill="#030402"/>
<path d="M701.703 494.645C716.85 485.685 733.503 479.005 750.943 476.339C758.45 475.859 766.036 475.752 773.556 476.392C783.303 478.312 793.143 481.859 800.556 488.712C806.69 500.072 808.13 514.152 803.716 526.392C798.396 542.432 786.596 555.059 777.823 569.179C774.57 576.725 772.43 583.992 771.016 592.072C768.91 604.539 767.956 619.499 764.17 631.645C759.996 650.912 749.77 667.965 742.196 685.965C732.516 705.912 720.996 724.899 709.81 744.019C700.303 759.219 694.57 776.365 688.13 792.992C681.85 809.565 677.29 826.699 672.93 843.845C672.636 845.405 671.81 846.752 671.05 848.125C669.743 847.659 668.45 847.205 667.156 846.765C667.343 849.152 667.543 851.539 667.756 853.939C666.796 854.805 665.863 855.685 664.93 856.579C664.77 858.805 664.636 861.019 664.476 863.259C661.956 864.912 660.29 867.285 661.29 870.419C660.476 871.352 659.676 872.299 658.876 873.259C658.556 877.205 658.383 881.565 655.01 884.259C652.29 881.685 649.53 879.152 646.743 876.659C645.81 877.605 644.89 878.565 643.983 879.525C645.756 880.539 647.623 881.485 649.276 882.752C650.516 884.645 650.903 886.952 651.57 889.085C648.383 895.979 643.543 902.379 636.676 905.939C637.263 906.872 637.85 907.832 638.45 908.805C637.13 908.539 635.823 908.285 634.53 908.045C633.863 910.992 632.503 913.699 628.956 913.152C628.05 911.179 628.769 907.139 625.583 907.432C622.529 907.312 620.516 909.979 618.436 911.792C618.156 913.752 617.69 915.685 616.81 917.485C614.423 912.525 617.33 906.672 621.37 903.552C625.17 900.365 627.796 895.699 632.636 893.899C632.41 892.045 632.196 890.192 631.983 888.365C633.143 888.432 634.316 888.512 635.516 888.592C636.65 882.032 642.183 877.632 643.89 871.312C646.383 863.605 652.183 856.819 651.956 848.419C653.943 843.619 654.543 838.405 656.143 833.499C659.036 828.925 658.836 823.245 661.516 818.605C662.956 816.072 663.863 813.299 664.316 810.432C665.476 803.125 669.01 796.379 669.57 788.952C678.036 766.565 686.303 743.899 698.356 723.139C702.77 714.952 709.129 708.165 715.143 701.192C715.236 698.992 715.25 696.712 716.543 694.845C724.196 681.565 732.29 668.485 738.556 654.485C742.196 647.419 746.236 640.272 746.583 632.125C747.37 627.792 748.076 623.432 748.663 619.072C750.023 607.205 752.423 595.525 754.423 583.752C757.13 572.405 762.996 562.112 769.223 552.352C772.01 548.205 775.623 544.699 778.636 540.712C785.116 531.659 791.81 521.872 793.196 510.565C794.663 499.432 785.743 490.472 776.61 485.805C770.143 481.685 762.183 483.659 754.996 483.272C755.423 483.312 756.276 483.405 756.703 483.445L755.316 483.805C753.983 484.139 752.65 484.485 751.343 484.845C747.77 485.672 744.396 487.085 741.023 488.485C740.183 488.805 738.503 489.432 737.663 489.739L737.183 489.925C737.01 489.992 736.663 490.112 736.49 490.179C736.276 490.272 735.836 490.472 735.61 490.565C733.276 491.539 730.97 492.565 728.663 493.552L727.996 493.792C727.81 493.859 727.436 493.992 727.263 494.072C726.81 494.405 725.903 495.072 725.45 495.419L723.97 496.045C723.703 496.325 723.143 496.899 722.876 497.179L722.023 497.472C721.783 497.592 721.303 497.832 721.076 497.952C708.73 506.645 696.436 515.579 685.996 526.592C684.636 527.885 683.276 529.192 681.97 530.525C681.916 530.579 681.796 530.685 681.743 530.739C680.103 532.259 678.53 533.845 677.036 535.512C675.783 536.245 674.943 537.325 674.543 538.752C674.396 538.872 674.103 539.125 673.956 539.259C672.596 540.365 671.33 541.565 670.183 542.885C664.93 548.685 659.876 554.659 655.396 561.085C654.05 563.045 652.783 565.045 651.436 567.005C651.21 567.339 650.743 567.992 650.503 568.312C649.543 569.659 648.596 571.019 647.69 572.405C640.823 583.019 635.836 594.819 633.103 607.165C629.89 610.605 629.983 615.379 629.57 619.765C628.796 618.525 628.05 617.285 627.303 616.059C627.036 616.792 626.503 618.245 626.236 618.979C624.329 619.752 622.063 619.952 620.53 621.392C619.023 623.685 618.303 626.699 615.623 627.979C615.556 625.085 615.463 622.192 615.33 619.312L615.29 618.472C617.596 614.565 616.85 609.912 617.916 605.659C619.836 594.939 625.783 585.605 631.476 576.525C637.463 565.125 644.916 554.565 652.783 544.392C667.143 526.085 681.743 507.205 701.703 494.645ZM668.769 539.325C666.609 540.192 663.556 537.232 664.609 535.099C666.543 534.685 669.169 537.432 668.769 539.325Z" fill="#030402"/>
<path d="M258.97 482.445C263.023 480.832 266.823 483.632 270.85 483.979L270.196 484.685C269.436 484.979 267.929 485.565 267.183 485.859C268.703 486.085 270.223 486.325 271.756 486.579C272.516 488.485 273.276 490.405 274.036 492.325C276.996 492.939 279.956 493.632 282.956 494.125C280.423 495.392 277.689 496.245 274.889 496.632C271.769 495.365 271.796 491.112 270.396 488.459C269.503 488.245 267.703 487.805 266.81 487.579C257.503 487.365 250.65 494.152 243.436 498.965C232.61 505.899 221.903 513.032 211.063 519.939C206.583 522.525 202.503 525.859 197.583 527.592C199.303 524.592 202.33 522.699 204.85 520.432C214.103 512.685 223.783 505.472 233.73 498.632C241.916 492.939 249.156 485.339 258.97 482.445Z" fill="#030402"/>
<path d="M150.903 484.352C151.663 484.312 153.183 484.245 153.943 484.205C154.143 487.272 154.383 490.325 154.41 493.405C152.53 490.699 151.823 487.445 150.903 484.352Z" fill="#9E9D9C"/>
<path d="M426.209 915.019C426.409 908.952 426.009 902.845 426.783 896.805C427.449 911.979 426.983 927.179 427.129 942.365C426.996 961.139 427.463 979.939 426.729 998.712C425.996 993.699 426.289 988.645 426.289 983.619C426.023 960.752 426.489 937.885 426.209 915.019Z" fill="#9E9D9C"/>
<path d="M511.37 494.765C517.423 491.579 522.49 486.352 529.383 484.925C528.756 487.419 528.596 490.125 527.329 492.392C523.089 495.739 518.636 498.819 514.303 502.032C512.983 503.179 511.249 503.459 509.569 503.605C512.823 499.725 517.103 496.885 520.316 492.979C512.609 495.619 506.609 501.859 498.649 503.859C501.956 499.765 507.143 497.792 511.37 494.765Z" fill="#030402"/>
<path d="M737.183 489.925L737.663 489.739C737.516 489.885 737.236 490.165 737.09 490.299L737.183 489.925Z" fill="#030402"/>
<path d="M727.263 494.072C727.436 493.992 727.81 493.859 727.996 493.792L727.863 494.459L727.263 494.072Z" fill="#030402"/>
<path d="M721.076 497.952C721.303 497.832 721.783 497.592 722.023 497.472L721.983 498.005L721.076 497.952Z" fill="#030402"/>
<path d="M736.49 490.179C736.663 490.112 737.01 489.992 737.183 489.925L737.09 490.299L736.49 490.179Z" fill="#030402"/>
<path d="M735.623 603.419C735.783 603.525 736.103 603.725 736.263 603.832H735.89L735.623 603.419Z" fill="#030402"/>
<path d="M731.876 607.085L732.263 607.099L731.823 607.739L731.756 607.499L731.876 607.085Z" fill="#030402"/>
<path d="M722.676 637.005C723.13 634.872 724.076 633.005 726.503 632.579C725.983 635.259 725.623 637.965 725.303 640.685C724.65 641.925 723.983 643.179 723.33 644.432L722.996 641.752C723.023 641.192 723.09 640.059 723.116 639.485C723.01 638.872 722.783 637.632 722.676 637.005Z" fill="#030402"/>
<path d="M681.796 544.125C682.476 544.765 682.476 544.765 681.796 544.125Z" fill="#030402"/>
<path d="M735.61 490.565C735.836 490.472 736.276 490.272 736.49 490.179L736.223 490.632L735.61 490.565Z" fill="#030402"/>
<path d="M727.996 493.792L728.663 493.552L728.503 494.312L727.863 494.459L727.996 493.792Z" fill="#030402"/>
<path d="M681.743 530.739C681.796 530.685 681.916 530.579 681.97 530.525L681.783 530.739L681.743 530.739Z" fill="#030402"/>
<path d="M673.796 596.472L674.13 595.832L674.409 596.379L674.089 597.019L673.796 596.472Z" fill="#030402"/>
<path d="M736.49 490.179L737.09 490.299L736.716 490.685L736.223 490.632L736.49 490.179Z" fill="#030402"/>
<path d="M727.863 494.459L728.503 494.312C728.316 494.632 727.943 495.259 727.743 495.579L727.863 494.459Z" fill="#030402"/>
<path d="M723.116 639.485C721.13 639.192 720.983 638.365 722.676 637.005C722.783 637.632 723.01 638.872 723.116 639.485Z" fill="#030402"/>
<path d="M725.45 495.419C725.903 495.072 726.81 494.405 727.263 494.072L727.863 494.459L727.743 495.579L726.623 495.992L725.45 495.419Z" fill="#030402"/>
<path d="M722.023 497.472L722.876 497.179L723.023 498.045L721.983 498.005L722.023 497.472Z" fill="#030402"/>
<path d="M680.036 572.019L680.996 572.339C680.943 572.965 680.836 574.192 680.796 574.819L679.943 574.685C679.97 574.019 680.01 572.685 680.036 572.019Z" fill="#030402"/>
<path d="M681.623 578.739C681.61 578.925 681.596 579.299 681.583 579.485L681.623 578.739Z" fill="#030402"/>
<path d="M678.543 586.485L679.276 586.285C679.156 586.539 678.903 587.045 678.769 587.299L678.543 586.485Z" fill="#030402"/>
<path d="M677.223 589.085L678.169 588.712L678.063 589.339C677.849 589.272 677.436 589.152 677.223 589.085Z" fill="#030402"/>
<path d="M722.023 648.432C722.37 647.645 723.05 646.072 723.383 645.299C723.37 645.925 723.33 647.192 723.303 647.832L722.023 648.432Z" fill="#030402"/>
<path d="M717.516 655.378C717.583 655.178 717.689 654.779 717.743 654.579L717.516 655.378Z" fill="#030402"/>
<path d="M716.863 658.125C716.996 657.845 717.263 657.299 717.396 657.032V658.045L716.863 658.125Z" fill="#030402"/>
<path d="M723.97 496.045L725.45 495.419L726.623 495.992L726.77 496.845C726.45 497.085 725.796 497.552 725.463 497.792L723.89 498.325L723.023 498.045L722.876 497.179C723.143 496.899 723.703 496.325 723.97 496.045Z" fill="#030402"/>
<path d="M726.623 495.992L727.743 495.579C727.503 495.885 727.01 496.525 726.77 496.845L726.623 495.992Z" fill="#030402"/>
<path d="M723.023 498.045L723.89 498.325C723.61 498.419 723.023 498.619 722.743 498.712L723.023 498.045Z" fill="#030402"/>
<path d="M444.463 500.259C451.463 503.112 458.183 506.832 465.69 508.299C473.023 510.299 480.649 509.819 488.156 510.179C501.663 511.152 511.303 522.285 524.023 525.739C530.103 527.205 536.21 528.752 541.97 531.232L542.25 531.885C542.236 533.019 542.196 534.139 542.116 535.285C536.61 535.179 530.876 535.699 525.649 533.619C513.543 529.619 504.076 520.352 492.103 516.112C483.41 513.565 474.05 514.379 465.45 511.379C460.143 509.539 455.023 507.152 450.05 504.565C448.036 503.339 445.61 502.445 444.463 500.259Z" fill="#030402"/>
<path d="M555.409 519.685C555.556 515.619 556.316 511.605 557.45 507.712C557.05 515.725 556.516 523.739 555.783 531.739C555.823 547.299 555.289 562.885 556.409 578.419C556.743 586.859 556.769 595.312 556.476 603.752C555.529 612.632 556.223 621.619 554.729 630.445C553.849 644.019 549.276 657.019 548.023 670.539C547.676 675.952 548.836 681.419 547.849 686.819C546.769 682.859 546.703 678.739 546.543 674.685C546.57 672.939 546.543 671.205 546.583 669.485C547.143 666.165 547.823 662.859 548.37 659.539C549.61 651.032 552.37 642.845 553.303 634.299C554.036 627.219 554.783 620.139 555.25 613.045C555.89 581.925 554.609 550.792 555.409 519.685Z" fill="#030402"/>
<path d="M113.129 566.005C123.649 560.005 135.036 554.632 147.249 553.632C147.476 555.125 147.703 556.632 147.929 558.138C136.036 560.605 124.636 565.219 114.236 571.445C101.796 578.152 92.4895 589.992 78.7961 594.419C79.3028 591.765 81.1162 589.712 82.9428 587.845C91.7962 579.032 102.529 572.472 113.129 566.005Z" fill="#030402"/>
<path d="M723.33 644.432C723.983 643.179 724.65 641.925 725.303 640.685C725.73 645.765 726.316 650.845 726.69 655.939C726.81 657.699 726.97 659.459 727.156 661.232C726.543 661.472 725.329 661.965 724.729 662.219C724.316 660.565 723.93 658.925 723.636 657.259C723.476 654.112 723.423 650.965 723.303 647.832C723.33 647.192 723.37 645.925 723.383 645.299L723.33 644.432Z" fill="#030402"/>
<path d="M384.156 597.259C390.983 596.485 397.289 592.805 404.303 593.339C402.369 597.139 397.21 596.872 393.77 598.512C388.823 600.859 383.196 600.139 378.103 601.885C365.289 607.645 352.769 614.139 339.796 619.525C340.103 617.085 338.383 616.418 336.383 616.138C337.356 616.272 339.316 616.539 340.289 616.672C344.943 611.605 351.516 609.165 357.463 606.032C366.116 602.485 374.676 597.992 384.156 597.259Z" fill="#030402"/>
<path d="M732.263 607.099H733.383C736.036 609.445 731.489 611.499 731.823 607.739L732.263 607.099Z" fill="#030402"/>
<path d="M735.89 603.832H736.263L736.183 604.285C736.103 604.165 735.956 603.939 735.89 603.832Z" fill="#030402"/>
<path d="M733.383 607.099C733.93 607.085 735.01 607.072 735.543 607.072C735.743 609.632 735.983 612.205 736.196 614.779C736.21 615.365 736.236 616.552 736.25 617.139C736.343 617.912 736.516 619.432 736.596 620.192C736.13 620.272 735.183 620.445 734.716 620.525C733.903 620.672 733.103 620.819 732.316 620.979C732.836 626.952 733.063 632.965 732.156 638.912C731.583 638.992 730.41 639.139 729.823 639.219C729.783 635.339 729.73 631.459 729.876 627.579C730.13 622.739 730.249 617.885 730.143 613.032L730.13 612.912C730.743 611.125 731.276 609.312 731.756 607.499L731.823 607.739C731.489 611.499 736.036 609.445 733.383 607.099Z" fill="#030402"/>
<path d="M629.57 619.765C629.983 615.379 629.89 610.605 633.103 607.165C632.85 614.525 631.93 621.845 631.05 629.165C637.836 633.605 644.516 638.405 652.263 641.085C650.649 635.045 647.53 629.512 646.303 623.365C649.41 627.485 651.183 632.365 653.69 636.845C656.09 641.178 659.396 644.912 662.116 649.032C661.516 649.952 660.303 651.792 659.69 652.712C658.783 651.339 657.916 649.979 657.05 648.605C646.41 645.685 637.356 639.205 628.49 632.912C624.37 642.885 616.249 650.205 610.476 659.085C607.983 658.832 605.516 658.592 603.036 658.352C603.01 656.792 603.023 655.272 602.983 653.739C600.049 655.725 600.143 658.779 602.623 661.099C601.156 662.379 599.703 663.672 598.25 664.965C597.703 664.192 596.609 662.619 596.063 661.845C603.743 648.259 608.463 633.259 615.33 619.312C615.463 622.192 615.556 625.085 615.623 627.979C618.303 626.699 619.023 623.685 620.53 621.392C622.063 619.952 624.329 619.752 626.236 618.979C626.503 618.245 627.036 616.792 627.303 616.059C628.05 617.285 628.796 618.525 629.57 619.765Z" fill="#030402"/>
<path d="M343.129 609.219C345.223 607.979 346.01 611.285 343.863 611.712C341.73 612.952 340.983 609.659 343.129 609.219Z" fill="#030402"/>
<path d="M489.356 636.885C493.303 635.872 497.316 634.472 501.463 635.165C484.756 641.685 467.85 647.912 451.17 654.592C449.343 655.285 447.37 655.285 445.463 655.499C448.823 652.952 452.61 651.072 456.116 648.765C466.996 644.285 477.916 639.765 489.356 636.885Z" fill="#030402"/>
<path d="M502.849 650.138C504.169 645.738 509.969 645.285 513.769 646.138C514.009 646.698 514.476 647.845 514.716 648.419C510.636 647.939 506.623 648.592 502.849 650.138Z" fill="#030402"/>
<path d="M418.356 658.019C421.196 656.125 423.943 654.059 426.409 651.699C426.783 653.272 427.156 654.872 427.53 656.485L428.103 657.085C428.436 657.432 429.116 658.152 429.463 658.512L429.236 659.499C428.85 659.472 428.076 659.419 427.69 659.379C425.85 659.112 423.956 659.005 422.17 659.579C421.21 659.192 419.303 658.405 418.356 658.019Z" fill="#030402"/>
<path d="M393.476 659.618C397.01 657.538 400.556 655.379 404.383 653.859C407.663 655.379 410.743 657.805 414.569 656.272C413.476 657.619 412.023 658.592 410.503 659.392C408.663 658.659 407.583 657.379 407.263 655.539C403.61 657.352 400.476 659.965 397.196 662.352C388.423 668.899 378.796 674.219 368.97 679.019C365.33 680.872 361.876 683.672 357.53 683.232C368.943 674.525 381.383 667.312 393.476 659.618Z" fill="#030402"/>
<path d="M360.13 672.779C364.783 670.219 369.636 668.005 374.783 666.619C374.516 670.525 369.956 671.459 367.29 673.419C357.223 678.192 346.89 682.419 337.023 687.619C336.023 685.112 338.716 684.085 340.21 682.819C346.503 678.805 353.636 676.419 360.13 672.779Z" fill="#030402"/>
<path d="M440.983 1073.83C444.156 1073.62 447.329 1073.51 450.516 1073.46C449.796 1074.85 448.996 1076.18 448.076 1077.46C445.689 1076.94 443.769 1075.33 441.676 1074.21L440.983 1073.83Z" fill="#030402"/>
<path d="M500.183 655.165C505.996 655.152 512.276 653.819 517.77 656.285C512.436 656.312 507.116 656.445 501.796 656.125C501.396 655.885 500.583 655.405 500.183 655.165Z" fill="#030402"/>
<path d="M602.623 661.099C600.143 658.779 600.049 655.725 602.983 653.739C603.023 655.272 603.01 656.792 603.036 658.352C605.516 658.592 607.983 658.832 610.476 659.085L610.023 659.872C608.33 659.992 606.65 660.085 604.97 660.179C604.53 666.672 601.276 672.832 597.063 677.699C596.97 678.659 596.89 679.632 596.81 680.619C595.796 680.432 594.796 680.259 593.81 680.099C593.863 682.059 594.143 684.059 593.93 686.045C592.476 689.525 589.383 691.939 586.77 694.525C582.236 688.299 586.196 679.445 592.583 676.312C592.583 675.299 592.596 674.285 592.623 673.299C595.623 670.685 596.223 666.872 595.996 663.085L596.063 661.845C596.609 662.619 597.703 664.192 598.25 664.965C599.703 663.672 601.156 662.379 602.623 661.099Z" fill="#030402"/>
<path d="M487.13 658.298C491.756 656.352 496.836 656.072 501.796 656.125C507.116 656.445 512.436 656.312 517.77 656.285C521.943 656.792 526.636 657.405 529.849 660.392C523.023 662.272 516.516 658.112 509.649 658.832C502.156 658.099 494.396 660.632 487.13 658.298Z" fill="#030402"/>
<path d="M534.036 657.365C538.076 660.832 543.503 659.712 548.37 659.539C547.823 662.859 547.143 666.165 546.583 669.485C544.809 667.125 544.583 664.205 544.676 661.379C541.209 660.699 537.93 661.872 534.956 663.552C535.45 670.045 533.343 676.432 534.13 682.925C534.703 687.219 535.676 691.445 536.316 695.725C536.876 701.805 542.05 706.152 542.636 712.232C543.73 712.659 544.836 713.099 545.956 713.552C545.636 715.712 547.236 719.192 544.29 719.939C542.156 720.712 539.89 720.952 537.69 721.379C537.663 722.365 537.609 724.339 537.583 725.312C529.663 731.259 524.516 739.845 518.809 747.739C518.103 747.792 516.676 747.912 515.97 747.965C520.25 738.205 528.596 730.885 536.036 723.472C532.93 722.272 529.823 721.125 526.783 719.792C528.49 719.338 530.196 718.818 531.916 718.312C531.129 716.818 530.343 715.325 529.53 713.885C534.036 715.005 538.13 717.352 542.69 718.352C540.503 709.925 533.503 703.392 532.783 694.472C530.596 685.165 531.53 675.565 531.89 666.125C515.783 656.539 496.17 659.805 478.77 663.152C472.276 663.699 467.049 667.845 461.263 670.378C440.703 681.245 420.93 694.179 404.476 710.739C389.743 725.219 378.65 743.099 371.276 762.339C361.13 785.779 356.209 812.672 337.689 831.512C338.463 827.592 341.263 824.579 343.116 821.165C356.89 797.685 363.21 770.859 375.156 746.512C390.396 714.579 418.396 690.765 448.196 672.779C450.41 671.259 453.036 670.232 454.89 668.232C409.13 677.259 363.769 688.792 319.996 705.032C313.436 707.912 306.289 709.459 300.143 713.232C285.196 721.579 271.183 731.765 259.583 744.405C241.529 762.085 222.556 779.085 201.183 792.698C190.823 799.445 181.183 807.992 169.209 811.725C171.623 808.578 175.289 806.885 178.583 804.859C185.543 800.925 192.37 796.778 199.196 792.618C211.01 784.378 222.343 775.485 233.503 766.392C246.129 754.645 258.196 742.312 270.889 730.645C275.529 726.259 280.983 722.872 285.609 718.499C256.329 729.659 227.476 742.592 197.929 752.685C199.156 750.805 202.183 750.605 204.103 749.472C225.929 739.072 247.769 728.512 270.329 719.752C270.249 720.312 270.089 721.445 270.023 722.005C272.129 717.645 277.503 716.818 281.543 715.045C324.329 697.952 368.383 683.965 413.356 673.925C431.49 669.432 449.863 666.005 468.063 661.819C473.716 658.392 480.61 656.938 487.13 658.298C494.396 660.632 502.156 658.099 509.649 658.832C516.516 658.112 523.023 662.272 529.849 660.392C530.929 660.459 532.036 660.579 533.156 660.752C533.436 659.619 533.743 658.485 534.036 657.365Z" fill="#030402"/>
<path d="M210.676 665.099C217.396 663.325 222.609 656.899 230.169 658.672C224.316 663.405 216.996 665.672 210.129 668.499C210.303 667.365 210.489 666.232 210.676 665.099Z" fill="#030402"/>
<path d="M422.17 659.579C423.956 659.005 425.85 659.112 427.69 659.379C423.356 662.725 418.21 664.939 413.01 666.539C414.316 662.645 419.143 661.819 422.17 659.579Z" fill="#030402"/>
<path d="M604.97 660.179C606.65 660.085 608.33 659.992 610.023 659.872C603.263 674.872 595.236 689.325 586.396 703.192C583.223 708.339 577.623 713.005 578.37 719.645C579.85 730.245 586.209 739.419 593.329 747.099C596.516 750.792 600.276 754.005 602.903 758.152C592.649 755.565 585.863 746.339 580.97 737.565C578.023 731.805 575.489 725.779 574.743 719.299C570.036 722.899 565.996 727.339 560.836 730.339C560.836 731.272 560.823 733.125 560.809 734.059C553.143 732.752 546.663 738.165 540.036 741.085C530.61 746.232 522.09 753.032 514.796 760.899C508.316 767.459 503.796 775.605 497.489 782.325C496.329 782.045 495.169 781.779 494.023 781.525C484.956 789.512 474.303 795.539 463.196 800.219C460.956 801.245 458.556 801.832 456.13 802.139C456.756 800.419 458.649 800.032 460.103 799.272C475.089 792.192 488.689 782.219 499.743 769.859C504.396 763.005 509.276 756.299 514.556 749.912C514.636 751.165 514.796 753.685 514.89 754.939C521.69 751.939 523.676 743.739 530.543 740.845C535.063 735.459 544.063 738.699 547.476 731.939C551.103 730.712 554.983 730.285 558.556 728.859C560.583 726.752 561.916 724.112 563.436 721.645C565.316 721.259 567.21 720.885 569.116 720.512C568.916 719.619 568.73 718.725 568.556 717.832C569.783 716.552 570.129 714.845 570.329 713.152C573.103 711.005 578.636 709.712 576.623 705.205C573.223 706.525 569.823 707.819 566.356 708.885C566.396 709.805 566.463 710.739 566.53 711.685C561.41 713.125 555.556 710.739 551.169 714.432C551.529 712.565 552.17 710.779 553.036 709.099C551.37 704.459 547.65 700.845 546.423 696.032C544.663 689.925 544.73 683.499 544.93 677.205C545.33 676.579 546.143 675.312 546.543 674.685C546.703 678.739 546.769 682.859 547.849 686.819C549.263 690.979 547.97 695.965 550.97 699.579C553.49 703.005 555.596 706.712 557.409 710.579C561.636 707.859 566.569 706.432 570.703 703.619C574.983 698.379 578.53 692.539 581.556 686.485C586.063 678.499 591.49 671.085 595.996 663.085C596.223 666.872 595.623 670.685 592.623 673.299C592.596 674.285 592.583 675.299 592.583 676.312C586.196 679.445 582.236 688.299 586.77 694.525C589.383 691.939 592.476 689.525 593.93 686.045C594.143 684.059 593.863 682.059 593.81 680.099C594.796 680.259 595.796 680.432 596.81 680.619C596.89 679.632 596.97 678.659 597.063 677.699C601.276 672.832 604.53 666.672 604.97 660.179ZM584.516 695.032C581.89 696.752 580.249 699.512 578.489 702.032C581.103 700.432 584.05 699.525 586.783 698.152C588.73 696.885 585.89 694.499 584.516 695.032Z" fill="#030402"/>
<path d="M332.609 683.192C332.983 681.579 335.103 681.272 336.183 680.259C337.516 681.099 338.863 681.965 340.21 682.819C338.716 684.085 336.023 685.112 337.023 687.619C334.303 689.232 331.09 688.859 328.076 688.819C329.743 687.205 333.289 686.032 332.609 683.192Z" fill="#030402"/>
<path d="M328.956 684.459C329.876 684.139 331.689 683.499 332.609 683.192C333.289 686.032 329.743 687.205 328.076 688.819C319.956 693.619 310.796 696.112 301.996 699.352C302.009 698.872 302.036 697.899 302.049 697.419C310.943 692.965 320.463 689.725 328.956 684.459Z" fill="#030402"/>
<path d="M396.743 696.325C399.756 693.579 402.676 690.405 406.689 689.165C406.023 693.112 402.889 695.859 400.609 698.939C393.996 706.565 387.063 713.912 380.543 721.618C367.023 737.618 358.809 757.085 349.903 775.805C353.116 761.979 360.303 749.525 367.183 737.245C375.943 722.885 384.423 708.005 396.743 696.325Z" fill="#030402"/>
<path d="M477.089 1067.74C481.169 1066.7 485.276 1065.03 489.503 1064.99C492.303 1066.98 487.716 1068.86 486.076 1069.66C483.569 1067.54 480.116 1067.94 477.089 1067.74Z" fill="#030402"/>
<path d="M385.916 1087.83C387.583 1085.46 388.556 1081.61 391.956 1081.39C388.169 1088.62 383.69 1095.65 382.09 1103.79C380.903 1106.73 381.316 1111.53 377.623 1112.63C376.716 1103.53 381.703 1095.46 385.916 1087.83Z" fill="#030402"/>
<path d="M477.676 690.672C485.583 695.392 491.996 702.379 500.29 706.539C507.53 709.632 515.729 709.019 523.063 711.845C518.983 712.045 514.943 712.685 510.956 713.485C511.916 714.152 512.903 714.805 513.903 715.472C508.903 714.685 503.929 713.419 499.343 711.285C490.543 706.299 484.303 698.085 477.676 690.672Z" fill="#030402"/>
<path d="M620.356 693.285C622.276 693.579 624.116 694.219 625.583 695.552C641.769 707.712 661.196 714.099 679.81 721.405C679.93 721.939 680.156 723.005 680.263 723.525C657.396 721.045 637.636 707.565 620.356 693.285Z" fill="#030402"/>
<path d="M584.516 695.032C585.89 694.499 588.73 696.885 586.783 698.152C584.05 699.525 581.103 700.432 578.489 702.032C580.249 699.512 581.89 696.752 584.516 695.032Z" fill="#030402"/>
<path d="M510.956 713.485C514.943 712.685 518.983 712.045 523.063 711.845C525.263 712.299 527.476 712.899 529.53 713.885C530.343 715.325 531.129 716.818 531.916 718.312C530.196 718.818 528.49 719.338 526.783 719.792C522.463 718.418 518.143 717.019 513.903 715.472C512.903 714.805 511.916 714.152 510.956 713.485Z" fill="#030402"/>
<path d="M535.89 776.925C536.276 777.139 537.036 777.565 537.423 777.779C530.41 791.019 518.943 801.245 507.85 811.045C505.996 812.698 503.97 814.365 501.383 814.512C502.023 813.339 502.809 812.285 503.756 811.365C515.876 801.339 526.583 789.565 535.89 776.925Z" fill="#030402"/>
<path d="M456.943 786.152C465.623 783.779 473.676 778.339 482.996 778.925C481.916 781.339 479.116 781.845 476.93 782.779C470.476 785.245 463.636 786.405 457.023 788.325C456.996 787.779 456.956 786.699 456.943 786.152Z" fill="#030402"/>
<path d="M65.1828 798.672C65.1562 795.472 65.6762 792.325 66.3028 789.205C66.9962 810.659 68.8362 832.099 72.8095 853.205C74.5295 867.899 80.6761 881.619 82.8761 896.179C80.3161 890.979 79.5028 885.179 77.8362 879.672C72.1562 861.085 69.8228 841.712 67.5028 822.485C66.3962 814.579 66.6762 806.525 65.1828 798.672Z" fill="#030402"/>
<path d="M585.849 791.632C586.316 793.419 586.769 795.205 587.249 797.019C596.169 825.499 605.556 855.059 601.89 885.299C601.103 888.832 601.476 893.085 598.649 895.792C598.023 878.459 599.796 860.912 596.489 843.765C594.129 829.259 590.983 814.912 587.289 800.712C586.596 797.712 586.223 794.659 585.849 791.632Z" fill="#030402"/>
<path d="M635.65 840.352C635.396 833.059 634.583 824.872 638.356 818.365C639.583 820.925 638.61 823.672 638.436 826.352C638.063 831.192 638.383 836.045 638.356 840.898C637.676 840.765 636.33 840.485 635.65 840.352Z" fill="#030402"/>
<path d="M627.89 828.925C627.81 827.699 628.236 824.912 630.023 825.685C630.823 838.285 634.303 851.059 631.49 863.619L629.476 863.019C626.783 851.819 627.876 840.299 627.89 828.925Z" fill="#030402"/>
<path d="M619.956 830.259C623.356 832.672 621.303 837.592 622.423 841.112C624.623 852.352 625.223 863.805 624.689 875.232C623.996 875.299 622.583 875.419 621.89 875.472C620.703 868.845 619.649 862.139 619.663 855.392C620.676 857.099 621.796 858.739 622.969 860.392C623.503 851.472 622.209 842.499 620.316 833.805C620.223 832.925 620.05 831.139 619.956 830.259Z" fill="#030402"/>
<path d="M610.49 833.179C612.703 837.032 612.85 841.565 613.676 845.832C615.996 862.725 619.41 879.685 617.556 896.805C614.663 896.752 615.516 893.525 614.89 891.752C612.583 872.285 613.05 852.605 610.49 833.179Z" fill="#030402"/>
<path d="M620.316 833.805C622.209 842.499 623.503 851.472 622.969 860.392C621.796 858.739 620.676 857.099 619.663 855.392C619.756 848.205 619.169 840.925 620.316 833.805Z" fill="#030402"/>
<path d="M667.156 846.765C668.45 847.205 669.743 847.659 671.05 848.125L671.863 848.419C669.183 857.099 666.463 865.779 663.103 874.232C654.53 893.032 642.089 909.765 628.316 925.085C624.796 928.899 622.61 933.672 620.13 938.179C611.29 953.259 601.13 967.512 592.396 982.659C583.063 997.792 573.836 1012.98 564.516 1028.1C563.396 1029.82 562.343 1031.66 560.756 1033.01C561.169 1024.91 563.77 1017.18 567.956 1010.3C565.756 1004.45 555.476 1001.22 552.463 1007.97C549.876 1012.22 546.343 1015.75 542.996 1019.42C544.649 1021.27 546.236 1023.18 547.796 1025.15C545.81 1025.69 543.81 1026.21 541.836 1026.74C542.01 1024.89 542.183 1023.05 542.343 1021.22C538.29 1022.21 536.369 1026.43 533.063 1028.65C527.943 1032.29 523.796 1037.11 518.676 1040.7C517.783 1040.74 515.996 1040.83 515.116 1040.89C521.97 1034.57 529.13 1028.58 536.01 1022.29C551.236 1007.59 562.103 989.219 573.063 971.299C576.063 966.139 579.81 961.419 582.156 955.912C591.93 934.739 607.276 916.912 621.97 899.059C634.436 883.752 643.263 866.019 651.956 848.419C652.183 856.819 646.383 863.605 643.89 871.312C642.183 877.632 636.65 882.032 635.516 888.592C634.316 888.512 633.143 888.432 631.983 888.365C632.196 890.192 632.41 892.045 632.636 893.899C627.796 895.699 625.17 900.365 621.37 903.552C617.33 906.672 614.423 912.525 616.81 917.485C617.69 915.685 618.156 913.752 618.436 911.792C620.516 909.979 622.529 907.312 625.583 907.432C628.769 907.139 628.05 911.179 628.956 913.152C632.503 913.699 633.863 910.992 634.53 908.045C635.823 908.285 637.13 908.539 638.45 908.805C637.85 907.832 637.263 906.872 636.676 905.939C643.543 902.379 648.383 895.979 651.57 889.085C650.903 886.952 650.516 884.645 649.276 882.752C647.623 881.485 645.756 880.539 643.983 879.525C644.89 878.565 645.81 877.605 646.743 876.659C649.53 879.152 652.29 881.685 655.01 884.259C658.383 881.565 658.556 877.205 658.876 873.259C659.676 872.299 660.476 871.352 661.29 870.419C660.29 867.285 661.956 864.912 664.476 863.259C664.636 861.019 664.77 858.805 664.93 856.579C665.863 855.685 666.796 854.805 667.756 853.939C667.543 851.539 667.343 849.152 667.156 846.765ZM589.743 948.899C590.663 949.592 591.583 950.299 592.516 951.032C592.916 953.805 595.729 953.885 597.996 953.925C598.303 955.565 598.623 957.205 598.943 958.872C600.663 956.272 603.196 954.459 606.436 955.205C608.516 952.032 611.97 946.765 607.93 943.779C604.196 942.752 600.156 941.952 596.53 943.725C597.836 941.552 598.743 939.165 599.21 936.685C592.423 935.539 592.156 944.552 589.743 948.899ZM586.023 953.712C584.356 957.872 582.809 962.098 581.169 966.285C582.289 966.312 585.17 964.072 585.25 966.312C583.716 968.832 583.076 971.859 581.516 974.299C580.636 973.219 580.049 971.979 579.756 970.552C578.183 971.525 576.623 972.499 575.063 973.485C576.103 976.672 578.956 978.512 581.649 980.259C579.289 981.645 576.703 982.525 573.97 982.645C574.516 980.472 574.903 978.258 575.13 976.045C573.81 976.525 572.516 977.032 571.236 977.552C571.676 980.059 571.889 982.645 571.316 985.179C573.049 986.845 575.063 988.299 576.396 990.365C576.956 992.285 575.05 993.459 573.876 994.579C573.143 992.672 572.41 990.739 571.69 988.859C570.716 990.072 569.783 991.325 568.903 992.632C567.876 992.552 566.85 992.485 565.836 992.445C563.663 994.259 560.57 995.552 559.716 998.472C560.57 1000.78 562.889 997.352 564.316 997.099C565.476 997.392 566.636 997.699 567.823 998.019C569.329 997.125 570.836 996.245 572.383 995.405C573.743 1000.17 566.703 1001.25 568.343 1006.06C570.396 1005.98 572.476 1005.93 574.543 1005.93C570.69 1005.21 573.209 1002.42 575.476 1001.59C575.396 1000.81 575.33 1000.02 575.276 999.272C577.97 995.965 580.836 992.899 584.556 990.739C586.076 987.325 585.223 983.219 586.823 979.739C587.929 980.099 589.05 980.485 590.183 980.885C589.983 979.445 589.783 978.005 589.61 976.592C592.916 976.819 595.156 973.992 593.783 970.845C594.436 970.992 595.743 971.272 596.396 971.419C595.943 970.152 595.503 968.899 595.076 967.659C595.37 967.045 595.943 965.805 596.236 965.179C593.863 962.685 593.676 959.419 594.33 956.219C592.956 954.845 591.583 953.499 590.223 952.152C588.81 952.632 587.383 953.085 586.023 953.712Z" fill="#030402"/>
<path d="M283.556 903.859C286.983 912.312 287.636 921.485 287.81 930.512C289.77 946.459 287.689 962.499 286.716 978.405C289.223 995.832 286.89 1014.29 278.023 1029.69C276.836 1031.43 276.169 1034.01 273.756 1034.37C280.449 1018.42 285.943 1001.43 284.956 983.912C283.983 976.632 284.889 969.299 284.956 961.992C285.303 949.245 285.223 936.485 284.703 923.739C284.61 917.085 283.023 910.525 283.556 903.859Z" fill="#030402"/>
<path d="M84.7561 908.845C81.0361 910.685 78.3428 914.099 75.9161 917.392C79.8761 915.872 82.7028 912.419 84.7561 908.845Z" fill="#030402"/>
<path d="M561.436 930.872C562.049 930.498 563.276 929.752 563.89 929.379C562.85 941.059 557.943 951.939 555.116 963.232C552.583 963.005 550.089 962.712 547.569 962.458C545.703 970.298 543.556 978.432 538.769 985.059C535.716 979.405 539.743 973.205 541.023 967.579C543.929 960.739 545.97 953.299 550.37 947.259C550.196 951.339 549.343 955.339 548.37 959.299C549.37 960.192 550.396 961.085 551.436 961.979C553.063 957.699 554.143 953.259 555.396 948.859C557.089 942.752 559.929 937.032 561.436 930.872Z" fill="#030402"/>
<path d="M589.743 948.899C592.156 944.552 592.423 935.539 599.21 936.685C598.743 939.165 597.836 941.552 596.53 943.725C600.156 941.952 604.196 942.752 607.93 943.779C611.97 946.765 608.516 952.032 606.436 955.205C603.196 954.459 600.663 956.272 598.943 958.872C598.623 957.205 598.303 955.565 597.996 953.925C595.729 953.885 592.916 953.805 592.516 951.032C591.583 950.299 590.663 949.592 589.743 948.899Z" fill="#030402"/>
<path d="M552.463 1007.97C555.476 1001.22 565.756 1004.45 567.956 1010.3C563.77 1017.18 561.169 1024.91 560.756 1033.01C558.796 1033.42 556.81 1033.77 554.956 1034.57C552.823 1036.97 551.343 1039.87 549.53 1042.53C549.97 1043.98 550.436 1045.46 550.903 1046.95C549.289 1047.05 546.543 1045.65 546.57 1048.26C546.143 1053.97 539.57 1057.03 540.543 1063.09C539.196 1063.73 537.876 1064.39 536.543 1065.06C537.09 1066.61 537.636 1068.15 538.183 1069.73C535.436 1073.05 536.143 1077.78 533.383 1081.06C529.783 1085.69 528.903 1091.61 528.263 1097.25C527.743 1102.61 525.956 1107.71 524.93 1112.98C523.05 1112.83 521.17 1112.71 519.303 1112.61C518.036 1108.11 517.036 1103.55 516.396 1098.93C518.463 1098.09 520.53 1097.25 522.596 1096.41C522.103 1096.17 521.116 1095.71 520.61 1095.47C521.33 1094.17 522.05 1092.86 522.783 1091.59C517.93 1084.13 523.049 1075.39 520.729 1067.39L520.623 1066.73C523.036 1065.65 525.17 1064.03 526.343 1061.62C525.903 1060.78 525.476 1059.97 525.063 1059.17C527.009 1056.67 527.663 1053.53 526.783 1050.47C524.556 1048.73 521.503 1048.66 518.823 1048.49C512.689 1048.46 508.516 1053.54 503.436 1056.11C491.583 1060.09 479.383 1062.91 467.316 1066.17C467.169 1065.49 466.876 1064.11 466.729 1063.43C484.009 1058.87 501.223 1052.45 515.116 1040.89C515.996 1040.83 517.783 1040.74 518.676 1040.7C523.796 1037.11 527.943 1032.29 533.063 1028.65C536.369 1026.43 538.29 1022.21 542.343 1021.22C542.183 1023.05 542.01 1024.89 541.836 1026.74C543.81 1026.21 545.81 1025.69 547.796 1025.15C546.236 1023.18 544.649 1021.27 542.996 1019.42C546.343 1015.75 549.876 1012.22 552.463 1007.97ZM551.476 1015.43C550.129 1015.82 548.796 1016.22 547.476 1016.62C547.369 1017.99 547.276 1019.38 547.196 1020.78C549.276 1020.93 551.73 1021.37 553.263 1019.53C555.663 1017.47 554.37 1014.18 554.076 1011.54C552.556 1012.3 552.129 1013.99 551.476 1015.43Z" fill="#030402"/>
<path d="M505.756 1172.03C507.916 1169.49 510.73 1172.82 512.623 1174.03C516.396 1179.18 512.609 1185.7 513.236 1191.47C509.769 1190.51 506.17 1190.19 502.596 1190.38C502.663 1189.47 502.796 1187.66 502.863 1186.77C503.463 1186.87 504.663 1187.1 505.263 1187.22C506.036 1185.25 506.77 1183.26 507.463 1181.29C504.863 1179.07 502.81 1174.79 505.756 1172.03Z" fill="#030402"/>
<path d="M586.023 953.712C587.383 953.085 588.81 952.632 590.223 952.152C591.583 953.499 592.956 954.845 594.33 956.219C593.676 959.419 593.863 962.685 596.236 965.179C595.943 965.805 595.37 967.045 595.076 967.659C595.503 968.899 595.943 970.152 596.396 971.419C595.743 971.272 594.436 970.992 593.783 970.845C595.156 973.992 592.916 976.819 589.61 976.592C589.783 978.005 589.983 979.445 590.183 980.885C589.05 980.485 587.929 980.099 586.823 979.739C585.223 983.219 586.076 987.325 584.556 990.739C580.836 992.899 577.97 995.965 575.276 999.272C575.33 1000.02 575.396 1000.81 575.476 1001.59C573.209 1002.42 570.69 1005.21 574.543 1005.93C572.476 1005.93 570.396 1005.98 568.343 1006.06C566.703 1001.25 573.743 1000.17 572.383 995.405C570.836 996.245 569.329 997.125 567.823 998.019C566.636 997.699 565.476 997.392 564.316 997.099C562.889 997.352 560.57 1000.78 559.716 998.472C560.57 995.552 563.663 994.259 565.836 992.445C566.85 992.485 567.876 992.552 568.903 992.632C569.783 991.325 570.716 990.072 571.69 988.859C572.41 990.739 573.143 992.672 573.876 994.579C575.05 993.459 576.956 992.285 576.396 990.365C575.063 988.299 573.049 986.845 571.316 985.179C571.889 982.645 571.676 980.059 571.236 977.552C572.516 977.032 573.81 976.525 575.13 976.045C574.903 978.258 574.516 980.472 573.97 982.645C576.703 982.525 579.289 981.645 581.649 980.259C578.956 978.512 576.103 976.672 575.063 973.485C576.623 972.499 578.183 971.525 579.756 970.552C580.049 971.979 580.636 973.219 581.516 974.299C583.076 971.859 583.716 968.832 585.25 966.312C585.17 964.072 582.289 966.312 581.169 966.285C582.809 962.098 584.356 957.872 586.023 953.712Z" fill="#030402"/>
<path d="M333.969 959.485C334.596 958.912 335.223 958.365 335.876 957.845C336.116 957.779 336.583 957.672 336.823 957.605C337.89 960.299 338.983 962.992 339.943 965.752C339.57 967.272 339.223 968.832 338.916 970.392C337.369 966.699 335.743 963.059 333.969 959.485Z" fill="#030402"/>
<path d="M529.276 962.152C529.81 961.992 530.89 961.659 531.436 961.499C531.516 967.805 531.463 974.125 531.476 980.445C529.97 990.152 528.25 1000.45 521.17 1007.86C520.73 1005.94 520.69 1004.01 521.463 1002.21C523.356 996.752 525.423 991.352 526.823 985.739C528.143 977.939 528.996 970.059 529.276 962.152Z" fill="#030402"/>
<path d="M328.996 974.059C330.063 975.845 331.089 977.659 331.756 979.645C336.916 995.885 344.183 1011.65 354.796 1025.07C358.916 1030.79 364.17 1035.62 367.943 1041.62C366.236 1040.99 364.583 1040.26 362.996 1039.42C347.076 1022.06 335.556 1000.9 329.009 978.299C329.009 977.232 328.996 975.125 328.996 974.059Z" fill="#030402"/>
<path d="M338.916 970.392C339.223 968.832 339.57 967.272 339.943 965.752C348.97 991.739 363.316 1016.27 383.476 1035.21C388.956 1040.66 394.996 1045.55 400.169 1051.31C399.063 1050.97 397.983 1050.61 396.903 1050.22C390.276 1044.03 381.396 1040.66 375.77 1033.38C359.543 1015.05 347.449 993.272 338.916 970.392Z" fill="#030402"/>
<path d="M267.303 1016.45C269.103 1012.78 269.743 1008.46 272.57 1005.38C272.45 1013.73 269.223 1021.89 265.53 1029.31C262.396 1036.3 255.863 1040.71 249.836 1044.98C257.37 1036.62 263.09 1026.86 267.303 1016.45Z" fill="#030402"/>
<path d="M551.476 1015.43C552.129 1013.99 552.556 1012.3 554.076 1011.54C554.37 1014.18 555.663 1017.47 553.263 1019.53C551.73 1021.37 549.276 1020.93 547.196 1020.78C547.276 1019.38 547.369 1017.99 547.476 1016.62C548.796 1016.22 550.129 1015.82 551.476 1015.43Z" fill="#030402"/>
<path d="M554.956 1034.57C556.81 1033.77 558.796 1033.42 560.756 1033.01C560.823 1035.3 559.009 1037.05 558.009 1038.98C543.783 1061.55 534.676 1086.99 529.396 1113.07C525.529 1129.34 523.916 1145.98 521.156 1162.45C521.063 1171.11 518.809 1179.54 517.009 1187.97C516.303 1190.61 515.743 1194.46 512.316 1194.75C507.423 1194.94 502.583 1193.7 497.676 1194.05C498.663 1174.1 500.65 1154.22 502.97 1134.38C505.116 1120.9 508.783 1107.7 512.276 1094.53C515.756 1085.69 516.663 1075.97 520.729 1067.39C523.049 1075.39 517.93 1084.13 522.783 1091.59C522.05 1092.86 521.33 1094.17 520.61 1095.47C521.116 1095.71 522.103 1096.17 522.596 1096.41C520.53 1097.25 518.463 1098.09 516.396 1098.93C517.036 1103.55 518.036 1108.11 519.303 1112.61C521.17 1112.71 523.05 1112.83 524.93 1112.98C525.956 1107.71 527.743 1102.61 528.263 1097.25C528.903 1091.61 529.783 1085.69 533.383 1081.06C536.143 1077.78 535.436 1073.05 538.183 1069.73C537.636 1068.15 537.09 1066.61 536.543 1065.06C537.876 1064.39 539.196 1063.73 540.543 1063.09C539.57 1057.03 546.143 1053.97 546.57 1048.26C546.543 1045.65 549.289 1047.05 550.903 1046.95C550.436 1045.46 549.97 1043.98 549.53 1042.53C551.343 1039.87 552.823 1036.97 554.956 1034.57ZM515.97 1122.22C515.103 1126.3 519.756 1129.51 522.729 1126.11C521.289 1123.53 519.236 1121.29 515.97 1122.22ZM505.756 1172.03C502.81 1174.79 504.863 1179.07 507.463 1181.29C506.77 1183.26 506.036 1185.25 505.263 1187.22C504.663 1187.1 503.463 1186.87 502.863 1186.77C502.796 1187.66 502.663 1189.47 502.596 1190.38C506.17 1190.19 509.769 1190.51 513.236 1191.47C512.609 1185.7 516.396 1179.18 512.623 1174.03C510.73 1172.82 507.916 1169.49 505.756 1172.03Z" fill="#030402"/>
<path d="M503.436 1056.11C508.516 1053.54 512.689 1048.46 518.823 1048.49C521.503 1048.66 524.556 1048.73 526.783 1050.47C527.663 1053.53 527.009 1056.67 525.063 1059.17C525.476 1059.97 525.903 1060.78 526.343 1061.62C525.17 1064.03 523.036 1065.65 520.623 1066.73C521.33 1061.54 524.436 1056.54 523.409 1051.21C521.623 1049.35 518.823 1049.59 516.809 1050.89C510.676 1053.29 506.249 1059.26 499.156 1058.82C477.089 1066.78 453.716 1070.62 430.343 1071.65C430.156 1071.54 429.769 1071.31 429.569 1071.19C436.863 1069.23 444.33 1068.1 451.716 1066.57C456.743 1065.65 461.783 1064.77 466.729 1063.43C466.876 1064.11 467.169 1065.49 467.316 1066.17C479.383 1062.91 491.583 1060.09 503.436 1056.11Z" fill="#030402"/>
<path d="M202.796 1052.39C219.236 1054.39 235.756 1052.63 252.236 1052.65C289.049 1051.15 325.383 1058.5 361.169 1066.22C377.783 1069.55 394.45 1072.97 411.41 1074.02C409.01 1074.74 406.623 1075.51 404.236 1076.25C417.396 1078.89 430.823 1077.66 444.143 1078.02C450.516 1078.14 456.743 1076.13 463.13 1076.85C459.316 1078.63 454.956 1078.75 450.823 1079.18C430.383 1080.02 409.716 1080.01 389.596 1075.91C381.143 1073.95 372.369 1073.47 364.303 1070.03C348.956 1065.57 333.383 1061.41 317.449 1059.75C303.316 1057.82 288.983 1058.54 274.876 1056.53C263.769 1055.5 252.583 1056.67 241.503 1055.5C233.543 1056.66 225.503 1056.35 217.49 1056.34C212.37 1056.34 207.183 1055.06 202.796 1052.39Z" fill="#030402"/>
<path d="M450.836 1072.87C459.676 1071.63 468.383 1069.61 477.089 1067.74C480.116 1067.94 483.569 1067.54 486.076 1069.66C480.809 1072.55 474.823 1073.46 469.37 1075.86C467.423 1076.78 465.236 1076.89 463.13 1076.85C456.743 1076.13 450.516 1078.14 444.143 1078.02C430.823 1077.66 417.396 1078.89 404.236 1076.25C406.623 1075.51 409.01 1074.74 411.41 1074.02C421.476 1074.86 431.583 1074.61 441.676 1074.21C443.769 1075.33 445.689 1076.94 448.076 1077.46C448.996 1076.18 449.796 1074.85 450.516 1073.46L450.836 1072.87ZM469.796 1070.53C467.996 1071.54 467.916 1072.46 469.583 1073.26C471.41 1072.21 471.476 1071.3 469.796 1070.53Z" fill="#030402"/>
<path d="M469.583 1073.26C471.41 1072.21 471.476 1071.3 469.796 1070.53C467.996 1071.54 467.916 1072.46 469.583 1073.26Z" fill="#030402"/>
<path d="M325.623 1080.94C333.956 1085.33 339.463 1093.91 342.916 1102.46C346.063 1110.43 347.649 1119.78 344.316 1127.93C343.863 1127.42 342.956 1126.41 342.503 1125.91C341.716 1114.23 339.236 1102.27 332.596 1092.43C329.809 1088.87 328.503 1084.43 325.623 1080.94Z" fill="#030402"/>
<path d="M447.93 1086.34C455.183 1082.65 463.13 1078.81 471.516 1080.65C471.93 1085.06 466.796 1084.38 463.996 1085.14C457.636 1085.35 451.863 1088.43 445.556 1088.75C446.05 1087.65 446.836 1086.85 447.93 1086.34Z" fill="#030402"/>
<path d="M395.09 1087.73C395.903 1085.67 400.183 1086.42 398.036 1089.01C390.65 1100.58 385.356 1113.59 383.103 1127.17C382.29 1127.13 380.663 1127.07 379.863 1127.03C381.103 1128.55 382.343 1130.07 383.503 1131.69C383.463 1131.89 383.396 1132.29 383.37 1132.49C381.743 1132.39 380.116 1132.31 378.516 1132.25C379.463 1116.17 386.516 1101.1 395.09 1087.73Z" fill="#030402"/>
<path d="M386.276 1119.7C387.596 1116.39 387.263 1110.07 392.329 1110.69C392.156 1111.07 391.823 1111.87 391.65 1112.26C389.396 1116.53 389.156 1121.43 387.583 1125.94C386.783 1128.15 386.316 1130.5 386.716 1132.87C386.783 1133.62 386.916 1135.11 386.97 1135.85C385.863 1135.98 383.623 1136.23 382.516 1136.37C382.73 1135.41 383.156 1133.46 383.37 1132.49C383.396 1132.29 383.463 1131.89 383.503 1131.69C382.343 1130.07 381.103 1128.55 379.863 1127.03C380.663 1127.07 382.29 1127.13 383.103 1127.17C385.49 1125.59 385.223 1122.13 386.276 1119.7Z" fill="#030402"/>
<path d="M163.543 1112.97C165.596 1118.47 166.21 1124.37 167.036 1130.15C167.33 1133.21 167.45 1136.29 167.45 1139.38L165.836 1138.73C163.863 1130.31 163.449 1121.57 163.543 1112.97Z" fill="#030402"/>
<path d="M522.729 1126.11C521.289 1123.53 519.236 1121.29 515.97 1122.22C515.103 1126.3 519.756 1129.51 522.729 1126.11Z" fill="#030402"/>
<path d="M381.876 1137.23C383.529 1136.97 385.196 1136.73 386.85 1136.5C386.13 1138.97 387.743 1142.73 385.423 1144.61C384.57 1144.93 382.863 1145.54 382.01 1145.85C381.956 1142.97 381.929 1140.09 381.876 1137.23Z" fill="#030402"/>
</svg>
